<svg width="84" height="121" viewBox="0 0 84 121" fill="none" xmlns="http://www.w3.org/2000/svg">
<g filter="url(#filter0_di_8265_177)">
<mask id="path-1-outside-1_8265_177" maskUnits="userSpaceOnUse" x="3" y="23" width="64" height="78" fill="black">
<rect fill="white" x="3" y="23" width="64" height="78"/>
<path d="M48.657 68.7337V55.0767C48.657 53.205 48.2921 51.4444 47.5625 49.7947C46.8646 48.1134 45.897 46.6541 44.6598 45.4169C43.4226 44.1797 41.9633 43.2121 40.282 42.5142C38.6323 41.7846 36.8717 41.4197 35 41.4197C33.1283 41.4197 31.3518 41.7846 29.6705 42.5142C28.0208 43.2121 26.5774 44.1797 25.3402 45.4169C24.103 46.6541 23.1196 48.1134 22.3899 49.7947C21.692 51.4444 21.343 53.205 21.343 55.0767V68.7337H48.657ZM62.3139 96H48.657V82.343H21.343V96H7.73367V55.0767C7.73367 51.3016 8.44744 47.7644 9.875 44.4652C11.3026 41.1342 13.2377 38.2315 15.6804 35.7571C18.1548 33.2827 21.0417 31.3317 24.3409 29.9041C27.6719 28.4766 31.2249 27.7628 35 27.7628C38.7751 27.7628 42.3123 28.4766 45.6115 29.9041C48.9425 31.3317 51.8452 33.2827 54.3196 35.7571C56.794 38.2315 58.745 41.1342 60.1726 44.4652C61.6001 47.7644 62.3139 51.3016 62.3139 55.0767V96Z"/>
</mask>
<path d="M48.657 68.7337V55.0767C48.657 53.205 48.2921 51.4444 47.5625 49.7947C46.8646 48.1134 45.897 46.6541 44.6598 45.4169C43.4226 44.1797 41.9633 43.2121 40.282 42.5142C38.6323 41.7846 36.8717 41.4197 35 41.4197C33.1283 41.4197 31.3518 41.7846 29.6705 42.5142C28.0208 43.2121 26.5774 44.1797 25.3402 45.4169C24.103 46.6541 23.1196 48.1134 22.3899 49.7947C21.692 51.4444 21.343 53.205 21.343 55.0767V68.7337H48.657ZM62.3139 96H48.657V82.343H21.343V96H7.73367V55.0767C7.73367 51.3016 8.44744 47.7644 9.875 44.4652C11.3026 41.1342 13.2377 38.2315 15.6804 35.7571C18.1548 33.2827 21.0417 31.3317 24.3409 29.9041C27.6719 28.4766 31.2249 27.7628 35 27.7628C38.7751 27.7628 42.3123 28.4766 45.6115 29.9041C48.9425 31.3317 51.8452 33.2827 54.3196 35.7571C56.794 38.2315 58.745 41.1342 60.1726 44.4652C61.6001 47.7644 62.3139 51.3016 62.3139 55.0767V96Z" fill="#56B000"/>
<path d="M48.657 68.7337V73.3018H53.2251V68.7337H48.657ZM47.5625 49.7947L43.3434 51.5461L43.3635 51.5946L43.3847 51.6426L47.5625 49.7947ZM40.282 42.5142L38.4341 46.692L38.4821 46.7132L38.5306 46.7333L40.282 42.5142ZM29.6705 42.5142L31.4504 46.7214L31.4697 46.7132L31.489 46.7048L29.6705 42.5142ZM22.3899 49.7947L18.1993 47.9762L18.191 47.9955L18.1828 48.0148L22.3899 49.7947ZM21.343 68.7337H16.7749V73.3018H21.343V68.7337ZM62.3139 96V100.568H66.8821V96H62.3139ZM48.657 96H44.0888V100.568H48.657V96ZM48.657 82.343H53.2251V77.7749H48.657V82.343ZM21.343 82.343V77.7749H16.7749V82.343H21.343ZM21.343 96V100.568H25.9112V96H21.343ZM7.73367 96H3.16548V100.568H7.73367V96ZM9.875 44.4652L14.0675 46.2793L14.0707 46.272L14.0738 46.2647L9.875 44.4652ZM15.6804 35.7571L12.4502 32.5269L12.4398 32.5373L12.4294 32.5478L15.6804 35.7571ZM24.3409 29.9041L22.5414 25.7053L22.5341 25.7084L22.5268 25.7116L24.3409 29.9041ZM45.6115 29.9041L43.7974 34.0967L43.8047 34.0998L43.812 34.1029L45.6115 29.9041ZM60.1726 44.4652L55.9738 46.2647L55.9769 46.272L55.98 46.2793L60.1726 44.4652ZM53.2251 68.7337V55.0767H44.0888V68.7337H53.2251ZM53.2251 55.0767C53.2251 52.5931 52.7371 50.2006 51.7403 47.9469L43.3847 51.6426C43.8472 52.6882 44.0888 53.8169 44.0888 55.0767H53.2251ZM51.7816 48.0434C50.8636 45.8319 49.5677 43.8644 47.89 42.1867L41.4296 48.6471C42.2263 49.4438 42.8655 50.3949 43.3434 51.5461L51.7816 48.0434ZM47.89 42.1867C46.2123 40.509 44.2449 39.2131 42.0333 38.2951L38.5306 46.7333C39.6818 47.2112 40.6329 47.8504 41.4296 48.6471L47.89 42.1867ZM42.1298 38.3364C39.8761 37.3396 37.4836 36.8516 35 36.8516V45.9879C36.2598 45.9879 37.3885 46.2295 38.4341 46.692L42.1298 38.3364ZM35 36.8516C32.5163 36.8516 30.1195 37.3395 27.8519 38.3236L31.489 46.7048C32.5841 46.2296 33.7403 45.9879 35 45.9879V36.8516ZM27.8905 38.3071C25.7122 39.2286 23.7732 40.5235 22.11 42.1867L28.5704 48.6471C29.3816 47.8358 30.3295 47.1956 31.4504 46.7214L27.8905 38.3071ZM22.11 42.1867C20.4477 43.8491 19.1465 45.7935 18.1993 47.9762L26.5805 51.6133C27.0926 50.4333 27.7583 49.4592 28.5704 48.6471L22.11 42.1867ZM18.1828 48.0148C17.2359 50.2528 16.7749 52.6215 16.7749 55.0767H25.9112C25.9112 53.7885 26.1481 52.6359 26.5971 51.5747L18.1828 48.0148ZM16.7749 55.0767V68.7337H25.9112V55.0767H16.7749ZM21.343 73.3018H48.657V64.1655H21.343V73.3018ZM62.3139 91.4318H48.657V100.568H62.3139V91.4318ZM53.2251 96V82.343H44.0888V96H53.2251ZM48.657 77.7749H21.343V86.9112H48.657V77.7749ZM16.7749 82.343V96H25.9112V82.343H16.7749ZM21.343 91.4318H7.73367V100.568H21.343V91.4318ZM12.3018 96V55.0767H3.16548V96H12.3018ZM12.3018 55.0767C12.3018 51.8937 12.9001 48.9773 14.0675 46.2793L5.68246 42.6511C3.99475 46.5516 3.16548 50.7095 3.16548 55.0767H12.3018ZM14.0738 46.2647C15.286 43.4362 16.9069 41.0172 18.9314 38.9664L12.4294 32.5478C9.56853 35.4459 7.3191 38.8322 5.67618 42.6657L14.0738 46.2647ZM18.9106 38.9873C20.9667 36.9312 23.3695 35.3019 26.155 34.0967L22.5268 25.7116C18.7138 27.3614 15.343 29.6341 12.4502 32.5269L18.9106 38.9873ZM26.1404 34.1029C28.879 32.9292 31.8172 32.331 35 32.331V23.1946C30.6326 23.1946 26.4647 24.0239 22.5414 25.7053L26.1404 34.1029ZM35 32.331C38.183 32.331 41.0994 32.9293 43.7974 34.0967L47.4256 25.7116C43.5251 24.0239 39.3672 23.1946 35 23.1946V32.331ZM43.812 34.1029C46.6282 35.3099 49.0406 36.9385 51.0894 38.9873L57.5498 32.5269C54.6498 29.6269 51.2568 27.3535 47.411 25.7053L43.812 34.1029ZM51.0894 38.9873C53.1383 41.0361 54.7668 43.4485 55.9738 46.2647L64.3714 42.6657C62.7232 38.8199 60.4498 35.4269 57.5498 32.5269L51.0894 38.9873ZM55.98 46.2793C57.1474 48.9773 57.7457 51.8937 57.7457 55.0767H66.8821C66.8821 50.7095 66.0528 46.5516 64.3651 42.6511L55.98 46.2793ZM57.7457 55.0767V96H66.8821V55.0767H57.7457Z" fill="white" mask="url(#path-1-outside-1_8265_177)"/>
</g>
<path fill-rule="evenodd" clip-rule="evenodd" d="M22.2676 40.0775C23.7421 41.5155 23.7718 43.8765 22.3338 45.3509C21.3974 46.3112 20.7527 47.3513 20.3504 48.487C19.6627 50.4284 17.5314 51.4447 15.59 50.757C13.6487 50.0693 12.6324 47.938 13.3201 45.9967C14.0999 43.7952 15.341 41.8389 16.9942 40.1437C18.4322 38.6692 20.7931 38.6396 22.2676 40.0775Z" fill="white"/>
<path fill-rule="evenodd" clip-rule="evenodd" d="M54.395 92.3732C53.6593 91.4405 53.747 90.0712 54.5909 89.3148C55.1404 88.8223 55.5355 88.2637 55.8033 87.6332C56.2612 86.5556 57.4606 86.1116 58.4822 86.6415C59.5038 87.1714 59.9608 88.4746 59.5029 89.5522C58.9836 90.7743 58.2252 91.823 57.255 92.6926C56.4111 93.4489 55.1307 93.306 54.395 92.3732Z" fill="white" fill-opacity="0.76"/>
<defs>
<filter id="filter0_di_8265_177" x="0.333643" y="21.3628" width="83.3803" height="97.0372" filterUnits="userSpaceOnUse" color-interpolation-filters="sRGB">
<feFlood flood-opacity="0" result="BackgroundImageFix"/>
<feColorMatrix in="SourceAlpha" type="matrix" values="0 0 0 0 0 0 0 0 0 0 0 0 0 0 0 0 0 0 127 0" result="hardAlpha"/>
<feOffset dx="7" dy="8"/>
<feGaussianBlur stdDeviation="7.2"/>
<feComposite in2="hardAlpha" operator="out"/>
<feColorMatrix type="matrix" values="0 0 0 0 0 0 0 0 0 0 0 0 0 0 0 0 0 0 0.25 0"/>
<feBlend mode="normal" in2="BackgroundImageFix" result="effect1_dropShadow_8265_177"/>
<feBlend mode="normal" in="SourceGraphic" in2="effect1_dropShadow_8265_177" result="shape"/>
<feColorMatrix in="SourceAlpha" type="matrix" values="0 0 0 0 0 0 0 0 0 0 0 0 0 0 0 0 0 0 127 0" result="hardAlpha"/>
<feOffset dx="3" dy="4"/>
<feGaussianBlur stdDeviation="5.8"/>
<feComposite in2="hardAlpha" operator="arithmetic" k2="-1" k3="1"/>
<feColorMatrix type="matrix" values="0 0 0 0 0.167349 0 0 0 0 0.272858 0 0 0 0 0.0665298 0 0 0 1 0"/>
<feBlend mode="normal" in2="shape" result="effect2_innerShadow_8265_177"/>
</filter>
</defs>
</svg>
