<svg width="294" height="295" viewBox="0 0 294 295" fill="none" xmlns="http://www.w3.org/2000/svg">
<g filter="url(#filter0_d_0_2251)">
<path d="M206.339 128.129C210.366 150.303 204.327 185.354 177.671 203.462C170.971 208.013 166.428 205.337 157.766 207.133C150.027 208.738 148.051 211.868 140.204 210.38C107.62 204.197 88.8275 174.008 84.5134 150.256C78.8732 119.202 101.774 98.7189 140.745 113.421C169.928 87.5503 200.699 97.0754 206.339 128.129Z" fill="#FF542F"/>
<path fill-rule="evenodd" clip-rule="evenodd" d="M139.632 107.335C120.473 100.821 104.055 102.164 92.7611 110.345C80.7578 119.039 76.1688 134.261 79.2477 151.212C83.8062 176.311 103.72 208.906 139.208 215.639C144.111 216.569 147.483 216.052 150.688 215.006C151.788 214.647 152.68 214.31 153.518 213.994C155.126 213.388 156.539 212.855 158.854 212.375C161.606 211.804 163.648 211.776 165.97 211.743C166.818 211.731 167.703 211.719 168.674 211.679C172.341 211.53 176.234 210.91 180.68 207.89C209.693 188.181 215.863 150.601 211.607 127.172C208.485 109.984 198.131 97.8716 183.677 94.237C170.154 90.8364 154.407 95.1989 139.632 107.335ZM177.672 203.462C204.328 185.354 210.368 150.303 206.34 128.129C200.7 97.0755 169.929 87.5505 140.747 113.422C101.775 98.719 78.8745 119.202 84.5147 150.256C88.8288 174.008 107.622 204.197 140.206 210.38C145.3 211.346 147.92 210.366 151.249 209.12C153.047 208.447 155.053 207.696 157.767 207.134C161.061 206.45 163.759 206.414 166.207 206.381C170.196 206.327 173.52 206.282 177.672 203.462Z" fill="white"/>
<path fill-rule="evenodd" clip-rule="evenodd" d="M163.688 191.202C190.344 173.094 194.032 138.414 190.005 116.239C188.825 109.746 186.547 104.193 183.414 99.7092C194.941 103.05 203.603 113.052 206.341 128.128C210.369 150.303 204.329 185.353 177.673 203.461C173.521 206.281 170.197 206.326 166.208 206.38C163.76 206.413 161.062 206.45 157.768 207.133C155.054 207.696 153.048 208.446 151.25 209.119C147.921 210.365 145.301 211.345 140.207 210.379C128.289 208.118 118.216 202.645 110.022 195.45C113.606 196.929 117.435 198.086 121.518 198.861C126.773 199.858 130.449 198.617 134.629 197.207C136.691 196.511 138.875 195.774 141.432 195.244C144.641 194.578 147.609 194.476 150.413 194.379C155.177 194.215 159.471 194.066 163.688 191.202Z" fill="#ED4A27"/>
<path d="M187.869 125.043C187.915 127.673 185.821 129.843 183.191 129.889C180.562 129.936 178.392 127.842 178.346 125.212C178.299 122.582 180.393 120.413 183.023 120.366C185.652 120.32 187.822 122.414 187.869 125.043Z" fill="#C53622"/>
<path d="M202.746 136.656C202.793 139.286 200.699 141.455 198.069 141.502C195.439 141.549 193.27 139.454 193.223 136.825C193.177 134.195 195.271 132.025 197.9 131.979C200.53 131.932 202.7 134.026 202.746 136.656Z" fill="#C53622"/>
<path d="M199.667 118.881C199.702 120.853 198.132 122.48 196.159 122.515C194.187 122.55 192.56 120.979 192.525 119.007C192.49 117.035 194.061 115.408 196.033 115.373C198.005 115.338 199.632 116.908 199.667 118.881Z" fill="#C53622"/>
<path d="M200.698 153.746C200.745 156.376 198.651 158.546 196.021 158.592C193.391 158.639 191.222 156.545 191.175 153.915C191.129 151.285 193.223 149.116 195.853 149.069C198.482 149.023 200.652 151.117 200.698 153.746Z" fill="#C53622"/>
<path d="M185.82 142.134C185.867 144.763 183.773 146.933 181.143 146.979C178.514 147.026 176.344 144.932 176.297 142.302C176.251 139.673 178.345 137.503 180.975 137.456C183.604 137.41 185.774 139.504 185.82 142.134Z" fill="#C53622"/>
<path d="M195.746 172.805C195.792 175.434 193.698 177.604 191.068 177.65C188.439 177.697 186.269 175.603 186.222 172.973C186.176 170.343 188.27 168.174 190.9 168.127C193.529 168.081 195.699 170.175 195.746 172.805Z" fill="#C53622"/>
<path d="M184.047 160.033C184.094 162.663 182 164.833 179.37 164.879C176.74 164.926 174.571 162.832 174.524 160.202C174.477 157.572 176.571 155.403 179.201 155.356C181.831 155.31 184 157.404 184.047 160.033Z" fill="#C53622"/>
<path d="M188.066 184.716C188.101 186.688 186.53 188.315 184.558 188.35C182.585 188.385 180.958 186.815 180.923 184.842C180.888 182.87 182.459 181.243 184.431 181.208C186.404 181.173 188.031 182.744 188.066 184.716Z" fill="#C53622"/>
<path d="M159.547 61.1098C159.547 61.1098 168.169 81.8348 164.515 94.4341C160.111 109.619 140.222 113.669 140.222 113.669C140.222 113.669 131.552 98.0948 137.301 82.4588C141.724 70.4311 159.547 61.1098 159.547 61.1098Z" fill="#7CD623"/>
<path fill-rule="evenodd" clip-rule="evenodd" d="M164.49 59.0539L159.547 61.1101L157.066 56.3665C158.397 55.6708 159.958 55.5656 161.369 56.0766C162.781 56.5877 163.913 57.6679 164.49 59.0539ZM154.892 63.8885C157.627 62.1142 159.547 61.1101 159.547 61.1101C159.547 61.1101 160.371 63.0899 161.401 66.1977C163.704 73.145 167.04 85.7293 164.515 94.4344C160.111 109.62 140.222 113.669 140.222 113.669C140.222 113.669 131.553 98.0952 137.302 82.4592C140.273 74.379 149.292 67.5202 154.892 63.8885ZM140.222 113.669C135.545 116.273 135.544 116.271 135.543 116.269L135.536 116.257L135.524 116.235L135.491 116.175C135.465 116.127 135.431 116.063 135.39 115.985C135.308 115.829 135.197 115.614 135.063 115.344C134.796 114.803 134.435 114.039 134.029 113.082C133.22 111.174 132.216 108.467 131.41 105.215C129.813 98.7704 128.903 89.79 132.277 80.6119C135.042 73.0943 141.662 66.9789 146.829 63.0235C149.519 60.9648 152.048 59.3181 153.905 58.185C154.836 57.6166 155.606 57.1726 156.153 56.866C156.426 56.7125 156.644 56.5932 156.799 56.5095C156.876 56.4676 156.938 56.4346 156.983 56.4107L157.037 56.3818L157.062 56.369L157.066 56.3665C157.067 56.3659 157.066 56.3665 159.547 61.1101C164.49 59.0539 164.489 59.0529 164.49 59.0539L164.494 59.0648L164.502 59.0833L164.526 59.1428L164.61 59.3493C164.681 59.525 164.78 59.7759 164.904 60.0948C165.15 60.7322 165.492 61.6437 165.888 62.7721C166.678 65.0226 167.694 68.1673 168.593 71.7422C170.317 78.5987 171.912 88.1499 169.656 95.9255C166.867 105.542 159.297 111.276 153.213 114.482C150.105 116.12 147.175 117.213 145.026 117.899C143.946 118.244 143.048 118.49 142.404 118.654C142.082 118.736 141.822 118.797 141.634 118.84C141.539 118.861 141.463 118.878 141.405 118.891L141.333 118.906L141.308 118.911L141.298 118.913L141.294 118.914C141.292 118.914 141.29 118.915 140.222 113.669ZM135.545 116.273L140.222 113.669L141.29 118.915C139.004 119.38 136.68 118.311 135.545 116.273Z" fill="white"/>
<path d="M160.985 95.0729C164.528 85.4371 158.783 67.8804 158.783 67.8804C146.506 85.4454 145.481 102.973 145.607 109.224C145.607 109.224 157.442 104.709 160.985 95.0729Z" fill="#6FC21C"/>
<path d="M108.94 94.6001C114.215 95.0136 133.329 106.698 139.461 114.883C139.973 115.566 141.822 114.079 141.385 113.48C137.35 105.399 125.592 86.6779 117.728 81.7167C108.594 82.9596 108.352 92.7321 108.94 94.6001Z" fill="#943D31"/>
<path fill-rule="evenodd" clip-rule="evenodd" d="M108.522 99.9368C106.344 99.7661 104.489 98.2899 103.834 96.2066C103.396 94.8157 103.338 93.0864 103.44 91.6051C103.554 89.9608 103.909 87.9649 104.716 85.9421C106.404 81.706 110.145 77.346 117.006 76.4124C118.253 76.2427 119.519 76.5177 120.584 77.1891C123.199 78.8387 125.809 81.3924 128.192 84.0983C130.634 86.8708 133.09 90.0967 135.375 93.3541C139.848 99.7314 143.875 106.529 146.058 110.856C147.583 113.469 146.388 115.994 146.006 116.674C145.435 117.688 144.667 118.427 144.034 118.912C143.413 119.388 142.44 119.988 141.194 120.263C139.999 120.527 137.122 120.689 135.177 118.093C132.713 114.804 127.087 110.261 120.981 106.328C118.017 104.419 115.128 102.775 112.727 101.605C111.525 101.019 110.504 100.581 109.698 100.29C108.969 100.027 108.606 99.9547 108.531 99.9398C108.515 99.9366 108.512 99.9361 108.522 99.9368ZM141.385 113.48C141.38 113.471 141.376 113.461 141.371 113.452C140.835 112.38 140.164 111.122 139.385 109.735C138.395 107.973 137.232 106.003 135.949 103.94C130.615 95.3627 123.221 85.1823 117.728 81.7167C108.594 82.9596 108.352 92.7321 108.94 94.6C112.743 94.8981 123.739 101.054 131.877 107.534C133.6 108.905 135.194 110.291 136.565 111.639C137.585 112.642 138.482 113.623 139.216 114.563C139.3 114.67 139.382 114.777 139.461 114.883C139.973 115.566 141.822 114.079 141.385 113.48ZM136.526 115.733C136.664 116.03 136.839 116.332 137.06 116.634C136.884 116.393 136.729 116.138 136.596 115.871C136.573 115.826 136.55 115.78 136.526 115.733Z" fill="white"/>
<path d="M119.516 81.6159C121.456 83.126 120.895 87.0915 118.263 90.4732C115.631 93.8549 111.925 95.3721 109.984 93.8621C108.044 92.352 108.605 88.3864 111.237 85.0047C113.869 81.623 117.576 80.1058 119.516 81.6159Z" fill="#C26649"/>
<path d="M115.689 117.547C123.224 119.886 126.488 130.946 122.979 142.249C119.469 153.553 110.515 160.819 102.98 158.479C95.4443 156.14 92.1806 145.08 95.6901 133.777C99.1996 122.473 108.153 115.207 115.689 117.547Z" fill="#FF896F"/>
<path fill-rule="evenodd" clip-rule="evenodd" d="M108.92 127.241C111.457 128.759 112.284 132.046 110.767 134.583C109.779 136.235 109.225 137.902 109.041 139.622C108.727 142.562 106.089 144.69 103.149 144.376C100.209 144.062 98.081 141.424 98.3953 138.484C98.7516 135.151 99.8337 132.006 101.578 129.089C103.095 126.551 106.382 125.724 108.92 127.241Z" fill="white"/>
</g>
<defs>
<filter id="filter0_d_0_2251" x="70.2798" y="52.0247" width="176.418" height="202.283" filterUnits="userSpaceOnUse" color-interpolation-filters="sRGB">
<feFlood flood-opacity="0" result="BackgroundImageFix"/>
<feColorMatrix in="SourceAlpha" type="matrix" values="0 0 0 0 0 0 0 0 0 0 0 0 0 0 0 0 0 0 127 0" result="hardAlpha"/>
<feOffset dx="12.9194" dy="17.2258"/>
<feGaussianBlur stdDeviation="10.479"/>
<feComposite in2="hardAlpha" operator="out"/>
<feColorMatrix type="matrix" values="0 0 0 0 0.993115 0 0 0 0 0.743134 0 0 0 0 0.689567 0 0 0 1 0"/>
<feBlend mode="normal" in2="BackgroundImageFix" result="effect1_dropShadow_0_2251"/>
<feBlend mode="normal" in="SourceGraphic" in2="effect1_dropShadow_0_2251" result="shape"/>
</filter>
</defs>
</svg>
