<svg width="85" height="121" viewBox="0 0 85 121" fill="none" xmlns="http://www.w3.org/2000/svg">
<g filter="url(#filter0_di_8265_177)">
<mask id="path-1-outside-1_8265_177" maskUnits="userSpaceOnUse" x="3" y="23" width="65" height="78" fill="black">
<rect fill="white" x="3" y="23" width="65" height="78"/>
<path d="M62.956 75.5384C62.956 78.3617 62.4167 81.0107 61.3381 83.4851C60.2595 85.9595 58.7843 88.1326 56.9126 90.0043C55.0727 91.8442 52.9155 93.3035 50.4411 94.3821C47.9666 95.4607 45.3177 96 42.4943 96H8.37571V27.7628H42.4943C45.3177 27.7628 47.9666 28.3021 50.4411 29.3807C52.9155 30.4593 55.0727 31.9344 56.9126 33.8061C58.7843 35.6461 60.2595 37.8033 61.3381 40.2777C62.4167 42.7521 62.956 45.401 62.956 48.2244C62.956 49.4934 62.7815 50.794 62.4325 52.1264C62.0836 53.4588 61.5919 54.7436 60.9574 55.9808C60.3229 57.218 59.5616 58.3442 58.6733 59.3594C57.785 60.3745 56.8016 61.2152 55.723 61.8814C56.8333 62.4841 57.8326 63.3089 58.7209 64.3558C59.6091 65.371 60.3705 66.4972 61.005 67.7344C61.6394 68.9716 62.1153 70.2723 62.4325 71.6364C62.7815 72.9688 62.956 74.2694 62.956 75.5384ZM22.0327 82.343H42.4943C43.446 82.343 44.3343 82.1686 45.1591 81.8196C45.9839 81.4706 46.6977 80.9948 47.3004 80.392C47.9349 79.7576 48.4266 79.0279 48.7756 78.2031C49.1245 77.3783 49.299 76.4901 49.299 75.5384C49.299 74.5866 49.1245 73.6984 48.7756 72.8736C48.4266 72.0488 47.9349 71.335 47.3004 70.7322C46.6977 70.0978 45.9839 69.6061 45.1591 69.2571C44.3343 68.9081 43.446 68.7337 42.4943 68.7337H22.0327V82.343ZM22.0327 55.0767H42.4943C43.446 55.0767 44.3343 54.9022 45.1591 54.5533C45.9839 54.2043 46.6977 53.7285 47.3004 53.1257C47.9349 52.4912 48.4266 51.7616 48.7756 50.9368C49.1245 50.0803 49.299 49.1761 49.299 48.2244C49.299 47.2727 49.1245 46.3845 48.7756 45.5597C48.4266 44.7348 47.9349 44.0211 47.3004 43.4183C46.6977 42.7839 45.9839 42.2921 45.1591 41.9432C44.3343 41.5942 43.446 41.4197 42.4943 41.4197H22.0327V55.0767Z"/>
</mask>
<path d="M62.956 75.5384C62.956 78.3617 62.4167 81.0107 61.3381 83.4851C60.2595 85.9595 58.7843 88.1326 56.9126 90.0043C55.0727 91.8442 52.9155 93.3035 50.4411 94.3821C47.9666 95.4607 45.3177 96 42.4943 96H8.37571V27.7628H42.4943C45.3177 27.7628 47.9666 28.3021 50.4411 29.3807C52.9155 30.4593 55.0727 31.9344 56.9126 33.8061C58.7843 35.6461 60.2595 37.8033 61.3381 40.2777C62.4167 42.7521 62.956 45.401 62.956 48.2244C62.956 49.4934 62.7815 50.794 62.4325 52.1264C62.0836 53.4588 61.5919 54.7436 60.9574 55.9808C60.3229 57.218 59.5616 58.3442 58.6733 59.3594C57.785 60.3745 56.8016 61.2152 55.723 61.8814C56.8333 62.4841 57.8326 63.3089 58.7209 64.3558C59.6091 65.371 60.3705 66.4972 61.005 67.7344C61.6394 68.9716 62.1153 70.2723 62.4325 71.6364C62.7815 72.9688 62.956 74.2694 62.956 75.5384ZM22.0327 82.343H42.4943C43.446 82.343 44.3343 82.1686 45.1591 81.8196C45.9839 81.4706 46.6977 80.9948 47.3004 80.392C47.9349 79.7576 48.4266 79.0279 48.7756 78.2031C49.1245 77.3783 49.299 76.4901 49.299 75.5384C49.299 74.5866 49.1245 73.6984 48.7756 72.8736C48.4266 72.0488 47.9349 71.335 47.3004 70.7322C46.6977 70.0978 45.9839 69.6061 45.1591 69.2571C44.3343 68.9081 43.446 68.7337 42.4943 68.7337H22.0327V82.343ZM22.0327 55.0767H42.4943C43.446 55.0767 44.3343 54.9022 45.1591 54.5533C45.9839 54.2043 46.6977 53.7285 47.3004 53.1257C47.9349 52.4912 48.4266 51.7616 48.7756 50.9368C49.1245 50.0803 49.299 49.1761 49.299 48.2244C49.299 47.2727 49.1245 46.3845 48.7756 45.5597C48.4266 44.7348 47.9349 44.0211 47.3004 43.4183C46.6977 42.7839 45.9839 42.2921 45.1591 41.9432C44.3343 41.5942 43.446 41.4197 42.4943 41.4197H22.0327V55.0767Z" fill="#56B000"/>
<path d="M8.37571 96H3.80753V100.568H8.37571V96ZM8.37571 27.7628V23.1946H3.80753V27.7628H8.37571ZM56.9126 33.8061L53.655 37.0086L53.6823 37.0364L53.7102 37.0638L56.9126 33.8061ZM55.723 61.8814L53.3225 57.9948L46.6173 62.1362L53.5436 65.8962L55.723 61.8814ZM58.7209 64.3558L55.2376 67.3113L55.2601 67.3378L55.283 67.364L58.7209 64.3558ZM62.4325 71.6364L57.9831 72.6711L57.9974 72.7326L58.0134 72.7938L62.4325 71.6364ZM22.0327 82.343H17.4645V86.9112H22.0327V82.343ZM47.3004 70.7322L43.9885 73.8786L44.0692 73.9635L44.1541 74.0442L47.3004 70.7322ZM22.0327 68.7337V64.1655H17.4645V68.7337H22.0327ZM22.0327 55.0767H17.4645V59.6449H22.0327V55.0767ZM48.7756 50.9368L52.9827 52.7167L52.9946 52.6886L53.0061 52.6604L48.7756 50.9368ZM47.3004 43.4183L43.9885 46.5647L44.0692 46.6496L44.1541 46.7303L47.3004 43.4183ZM22.0327 41.4197V36.8516H17.4645V41.4197H22.0327ZM58.3878 75.5384C58.3878 77.7631 57.9665 79.7875 57.1504 81.6597L65.5257 85.3105C66.8668 82.2338 67.5241 78.9604 67.5241 75.5384H58.3878ZM57.1504 81.6597C56.2957 83.6207 55.1418 85.3147 53.6824 86.7741L60.1428 93.2345C62.4268 90.9504 64.2233 88.2984 65.5257 85.3105L57.1504 81.6597ZM53.6824 86.7741C52.2618 88.1947 50.586 89.3356 48.6157 90.1945L52.2664 98.5697C55.245 97.2714 57.8836 95.4937 60.1428 93.2345L53.6824 86.7741ZM48.6157 90.1945C46.7435 91.0106 44.719 91.4318 42.4943 91.4318V100.568C45.9164 100.568 49.1898 99.9109 52.2664 98.5697L48.6157 90.1945ZM42.4943 91.4318H8.37571V100.568H42.4943V91.4318ZM12.9439 96V27.7628H3.80753V96H12.9439ZM8.37571 32.331H42.4943V23.1946H8.37571V32.331ZM42.4943 32.331C44.719 32.331 46.7435 32.7522 48.6157 33.5683L52.2664 25.193C49.1898 23.8519 45.9164 23.1946 42.4943 23.1946V32.331ZM48.6157 33.5683C50.5696 34.42 52.2367 35.5659 53.655 37.0086L60.1703 30.6036C57.9086 28.303 55.2614 26.4985 52.2664 25.193L48.6157 33.5683ZM53.7102 37.0638C55.1529 38.482 56.2987 40.1492 57.1504 42.1031L65.5257 38.4523C64.2202 35.4574 62.4158 32.8101 60.1151 30.5484L53.7102 37.0638ZM57.1504 42.1031C57.9665 43.9753 58.3878 45.9997 58.3878 48.2244H67.5241C67.5241 44.8024 66.8668 41.529 65.5257 38.4523L57.1504 42.1031ZM58.3878 48.2244C58.3878 49.0711 58.2718 49.9825 58.0134 50.969L66.8517 53.2838C67.2912 51.6056 67.5241 49.9157 67.5241 48.2244H58.3878ZM58.0134 50.969C57.7493 51.9774 57.377 52.9515 56.8925 53.8963L65.0222 58.0654C65.8067 56.5357 66.4178 54.9403 66.8517 53.2838L58.0134 50.969ZM56.8925 53.8963C56.4232 54.8114 55.8702 55.6257 55.2354 56.3512L62.1112 62.3675C63.2529 61.0628 64.2226 59.6247 65.0222 58.0654L56.8925 53.8963ZM55.2354 56.3512C54.628 57.0454 53.9893 57.5829 53.3225 57.9948L58.1236 65.768C59.6139 64.8475 60.9421 63.7036 62.1112 62.3675L55.2354 56.3512ZM53.5436 65.8962C54.1161 66.2069 54.6829 66.6576 55.2376 67.3113L62.2042 61.4003C60.9823 59.9603 59.5506 58.7613 57.9025 57.8666L53.5436 65.8962ZM55.283 67.364C55.9178 68.0895 56.4708 68.9038 56.9401 69.8189L65.0698 65.6498C64.2702 64.0905 63.3005 62.6524 62.1588 61.3477L55.283 67.364ZM56.9401 69.8189C57.4026 70.7208 57.75 71.6687 57.9831 72.6711L66.882 70.6016C66.4806 68.8758 65.8762 67.2223 65.0698 65.6498L56.9401 69.8189ZM58.0134 72.7938C58.2718 73.7803 58.3878 74.6917 58.3878 75.5384H67.5241C67.5241 73.8471 67.2912 72.1572 66.8517 70.479L58.0134 72.7938ZM22.0327 86.9112H42.4943V77.7749H22.0327V86.9112ZM42.4943 86.9112C44.0186 86.9112 45.5163 86.6287 46.939 86.0267L43.3791 77.6125C43.1522 77.7085 42.8734 77.7749 42.4943 77.7749V86.9112ZM46.939 86.0267C48.2778 85.4604 49.491 84.6619 50.5306 83.6222L44.0702 77.1619C43.9044 77.3277 43.69 77.4809 43.3791 77.6125L46.939 86.0267ZM50.5306 83.6222C51.5803 82.5726 52.4041 81.3507 52.9827 79.9831L44.5684 76.4232C44.4491 76.7051 44.2895 76.9426 44.0702 77.1619L50.5306 83.6222ZM52.9827 79.9831C53.5846 78.5604 53.8672 77.0627 53.8672 75.5384H44.7308C44.7308 75.9174 44.6644 76.1963 44.5684 76.4232L52.9827 79.9831ZM53.8672 75.5384C53.8672 74.014 53.5846 72.5163 52.9827 71.0936L44.5684 74.6535C44.6644 74.8804 44.7308 75.1593 44.7308 75.5384H53.8672ZM52.9827 71.0936C52.395 69.7046 51.5471 68.4657 50.4468 67.4203L44.1541 74.0442C44.3227 74.2043 44.4582 74.393 44.5684 74.6535L52.9827 71.0936ZM50.6124 67.5859C49.567 66.4855 48.3281 65.6376 46.939 65.05L43.3791 73.4642C43.6397 73.5745 43.8284 73.71 43.9885 73.8786L50.6124 67.5859ZM46.939 65.05C45.5163 64.448 44.0186 64.1655 42.4943 64.1655V73.3018C42.8734 73.3018 43.1522 73.3682 43.3791 73.4642L46.939 65.05ZM42.4943 64.1655H22.0327V73.3018H42.4943V64.1655ZM17.4645 68.7337V82.343H26.6009V68.7337H17.4645ZM22.0327 59.6449H42.4943V50.5085H22.0327V59.6449ZM42.4943 59.6449C44.0186 59.6449 45.5163 59.3623 46.939 58.7604L43.3791 50.3461C43.1522 50.4421 42.8734 50.5085 42.4943 50.5085V59.6449ZM46.939 58.7604C48.2778 58.194 49.491 57.3955 50.5306 56.3559L44.0702 49.8955C43.9044 50.0614 43.69 50.2146 43.3791 50.3461L46.939 58.7604ZM50.5306 56.3559C51.5803 55.3062 52.4041 54.0844 52.9827 52.7167L44.5684 49.1568C44.4491 49.4388 44.2895 49.6762 44.0702 49.8955L50.5306 56.3559ZM53.0061 52.6604C53.5846 51.2406 53.8672 49.7496 53.8672 48.2244H44.7308C44.7308 48.6027 44.6645 48.9199 44.545 49.2132L53.0061 52.6604ZM53.8672 48.2244C53.8672 46.7001 53.5846 45.2024 52.9827 43.7797L44.5684 47.3396C44.6644 47.5665 44.7308 47.8454 44.7308 48.2244H53.8672ZM52.9827 43.7797C52.395 42.3907 51.5471 41.1517 50.4468 40.1064L44.1541 46.7303C44.3227 46.8904 44.4582 47.079 44.5684 47.3396L52.9827 43.7797ZM50.6124 40.272C49.567 39.1716 48.3281 38.3237 46.939 37.736L43.3791 46.1503C43.6397 46.2606 43.8284 46.3961 43.9885 46.5647L50.6124 40.272ZM46.939 37.736C45.5163 37.1341 44.0186 36.8516 42.4943 36.8516V45.9879C42.8734 45.9879 43.1522 46.0543 43.3791 46.1503L46.939 37.736ZM42.4943 36.8516H22.0327V45.9879H42.4943V36.8516ZM17.4645 41.4197V55.0767H26.6009V41.4197H17.4645Z" fill="white" mask="url(#path-1-outside-1_8265_177)"/>
</g>
<path fill-rule="evenodd" clip-rule="evenodd" d="M21.2676 40.0775C22.7421 41.5155 22.7718 43.8765 21.3338 45.3509C20.3974 46.3112 19.7527 47.3513 19.3504 48.487C18.6627 50.4284 16.5314 51.4447 14.59 50.757C12.6487 50.0693 11.6324 47.938 12.3201 45.9967C13.0999 43.7952 14.341 41.8389 15.9942 40.1437C17.4322 38.6692 19.7931 38.6396 21.2676 40.0775Z" fill="white"/>
<path fill-rule="evenodd" clip-rule="evenodd" d="M53.395 92.3732C52.6593 91.4405 52.747 90.0712 53.5909 89.3148C54.1404 88.8223 54.5355 88.2637 54.8033 87.6332C55.2612 86.5556 56.4606 86.1116 57.4822 86.6415C58.5038 87.1714 58.9608 88.4746 58.5029 89.5522C57.9836 90.7743 57.2252 91.823 56.255 92.6926C55.4111 93.4489 54.1307 93.306 53.395 92.3732Z" fill="white" fill-opacity="0.76"/>
<defs>
<filter id="filter0_di_8265_177" x="0.975733" y="21.3628" width="83.3803" height="97.0372" filterUnits="userSpaceOnUse" color-interpolation-filters="sRGB">
<feFlood flood-opacity="0" result="BackgroundImageFix"/>
<feColorMatrix in="SourceAlpha" type="matrix" values="0 0 0 0 0 0 0 0 0 0 0 0 0 0 0 0 0 0 127 0" result="hardAlpha"/>
<feOffset dx="7" dy="8"/>
<feGaussianBlur stdDeviation="7.2"/>
<feComposite in2="hardAlpha" operator="out"/>
<feColorMatrix type="matrix" values="0 0 0 0 0 0 0 0 0 0 0 0 0 0 0 0 0 0 0.25 0"/>
<feBlend mode="normal" in2="BackgroundImageFix" result="effect1_dropShadow_8265_177"/>
<feBlend mode="normal" in="SourceGraphic" in2="effect1_dropShadow_8265_177" result="shape"/>
<feColorMatrix in="SourceAlpha" type="matrix" values="0 0 0 0 0 0 0 0 0 0 0 0 0 0 0 0 0 0 127 0" result="hardAlpha"/>
<feOffset dx="3" dy="4"/>
<feGaussianBlur stdDeviation="5.8"/>
<feComposite in2="hardAlpha" operator="arithmetic" k2="-1" k3="1"/>
<feColorMatrix type="matrix" values="0 0 0 0 0.167349 0 0 0 0 0.272858 0 0 0 0 0.0665298 0 0 0 1 0"/>
<feBlend mode="normal" in2="shape" result="effect2_innerShadow_8265_177"/>
</filter>
</defs>
</svg>
