<svg width="1512" height="982" viewBox="0 0 1512 982" fill="none" xmlns="http://www.w3.org/2000/svg">
<path d="M1042.74 44.3527C1049.72 44.3869 1053.22 44.404 1055.81 45.9195C1057.51 46.9123 1058.92 48.3352 1059.9 50.0452C1061.39 52.6553 1061.37 56.1498 1061.34 63.1386C1061.3 70.1274 1061.29 73.6218 1059.77 76.2173C1058.78 77.9176 1057.36 79.3266 1055.65 80.3027C1053.04 81.7927 1049.54 81.7756 1042.55 81.7414L324.689 78.2253C317.7 78.1911 314.205 78.174 311.61 76.6585C309.91 75.6657 308.501 74.2428 307.525 72.5328C306.035 69.9226 306.052 66.4282 306.086 59.4394C306.12 52.4506 306.137 48.9562 307.653 46.3607C308.646 44.6604 310.068 43.2514 311.778 42.2753C314.389 40.7853 317.883 40.8024 324.872 40.8366L1042.74 44.3527Z" fill="#FCE492"/>
<g clip-path="url(#clip0_8272_172)">
<path d="M1017.82 44.2305L1017.63 81.6192L324.689 78.2252C317.7 78.191 314.206 78.1739 311.61 76.6584C309.91 75.6656 308.501 74.2427 307.525 72.5327C306.035 69.9225 306.052 66.4281 306.086 59.4393C306.121 52.4505 306.138 48.9561 307.653 46.3606C308.646 44.6603 310.069 43.2512 311.779 42.2751C314.389 40.7851 317.883 40.8023 324.872 40.8365L1017.82 44.2305Z" fill="#FCE492"/>
<path d="M891.762 43.8434C892.547 43.8472 893.257 44.3102 893.578 45.0271L908.537 78.4899C909.131 79.8168 908.155 81.3133 906.702 81.3062L885.729 81.2034C884.924 81.1995 884.2 80.7133 883.892 79.9698L870.012 46.5123C869.464 45.1914 870.44 43.7389 871.87 43.7459L891.762 43.8434Z" fill="#FCE492"/>
<path d="M327.965 41.1067C329.433 41.1139 330.761 41.9794 331.36 43.3196L344.761 73.2969C345.87 75.7775 344.047 78.575 341.329 78.5617L324.209 78.4779C322.704 78.4705 321.35 77.5617 320.773 76.1717L308.34 46.1991C307.315 43.7298 309.138 41.0145 311.812 41.0275L327.965 41.1067Z" fill="#FFCF25"/>
<path d="M327.965 41.1067C329.433 41.1139 330.761 41.9794 331.36 43.3196L344.761 73.2969C345.87 75.7775 344.047 78.575 341.329 78.5617L324.209 78.4779C322.704 78.4705 321.35 77.5617 320.773 76.1717L308.34 46.1991C307.315 43.7298 309.138 41.0145 311.812 41.0275L327.965 41.1067Z" fill="#FFCF25"/>
<path d="M327.965 41.1067C329.433 41.1139 330.761 41.9794 331.36 43.3196L344.761 73.2969C345.87 75.7775 344.047 78.575 341.329 78.5617L324.209 78.4779C322.704 78.4705 321.35 77.5617 320.773 76.1717L308.34 46.1991C307.315 43.7298 309.138 41.0145 311.812 41.0275L327.965 41.1067Z" fill="#FFCF25"/>
<path d="M358.965 41.1067C360.433 41.1139 361.761 41.9794 362.36 43.3196L375.761 73.2969C376.87 75.7775 375.047 78.575 372.329 78.5617L355.209 78.4779C353.704 78.4705 352.35 77.5617 351.773 76.1717L339.34 46.1991C338.315 43.7298 340.138 41.0145 342.812 41.0275L358.965 41.1067Z" fill="#FFCF25"/>
<path d="M358.965 41.1067C360.433 41.1139 361.761 41.9794 362.36 43.3196L375.761 73.2969C376.87 75.7775 375.047 78.575 372.329 78.5617L355.209 78.4779C353.704 78.4705 352.35 77.5617 351.773 76.1717L339.34 46.1991C338.315 43.7298 340.138 41.0145 342.812 41.0275L358.965 41.1067Z" fill="#FFCF25"/>
<path d="M358.965 41.1067C360.433 41.1139 361.761 41.9794 362.36 43.3196L375.761 73.2969C376.87 75.7775 375.047 78.575 372.329 78.5617L355.209 78.4779C353.704 78.4705 352.35 77.5617 351.773 76.1717L339.34 46.1991C338.315 43.7298 340.138 41.0145 342.812 41.0275L358.965 41.1067Z" fill="#FFCF25"/>
<path d="M389.965 41.1067C391.433 41.1139 392.761 41.9794 393.36 43.3196L406.761 73.2969C407.87 75.7775 406.047 78.575 403.329 78.5617L386.209 78.4779C384.704 78.4705 383.35 77.5617 382.773 76.1717L370.34 46.1991C369.315 43.7298 371.138 41.0145 373.812 41.0275L389.965 41.1067Z" fill="#FFCF25"/>
<path d="M389.965 41.1067C391.433 41.1139 392.761 41.9794 393.36 43.3196L406.761 73.2969C407.87 75.7775 406.047 78.575 403.329 78.5617L386.209 78.4779C384.704 78.4705 383.35 77.5617 382.773 76.1717L370.34 46.1991C369.315 43.7298 371.138 41.0145 373.812 41.0275L389.965 41.1067Z" fill="#FFCF25"/>
<path d="M389.965 41.1067C391.433 41.1139 392.761 41.9794 393.36 43.3196L406.761 73.2969C407.87 75.7775 406.047 78.575 403.329 78.5617L386.209 78.4779C384.704 78.4705 383.35 77.5617 382.773 76.1717L370.34 46.1991C369.315 43.7298 371.138 41.0145 373.812 41.0275L389.965 41.1067Z" fill="#FFCF25"/>
<path d="M420.965 41.1067C422.433 41.1139 423.761 41.9794 424.36 43.3196L437.761 73.2969C438.87 75.7775 437.047 78.575 434.329 78.5617L417.209 78.4779C415.704 78.4705 414.35 77.5617 413.773 76.1717L401.34 46.1991C400.315 43.7298 402.138 41.0145 404.812 41.0275L420.965 41.1067Z" fill="#FFCF25"/>
<path d="M420.965 41.1067C422.433 41.1139 423.761 41.9794 424.36 43.3196L437.761 73.2969C438.87 75.7775 437.047 78.575 434.329 78.5617L417.209 78.4779C415.704 78.4705 414.35 77.5617 413.773 76.1717L401.34 46.1991C400.315 43.7298 402.138 41.0145 404.812 41.0275L420.965 41.1067Z" fill="#FFCF25"/>
<path d="M420.965 41.1067C422.433 41.1139 423.761 41.9794 424.36 43.3196L437.761 73.2969C438.87 75.7775 437.047 78.575 434.329 78.5617L417.209 78.4779C415.704 78.4705 414.35 77.5617 413.773 76.1717L401.34 46.1991C400.315 43.7298 402.138 41.0145 404.812 41.0275L420.965 41.1067Z" fill="#FFCF25"/>
<path d="M450.965 41.1067C452.433 41.1139 453.761 41.9794 454.36 43.3196L467.761 73.2969C468.87 75.7775 467.047 78.575 464.329 78.5617L447.209 78.4779C445.704 78.4705 444.35 77.5617 443.773 76.1717L431.34 46.1991C430.315 43.7298 432.138 41.0145 434.812 41.0275L450.965 41.1067Z" fill="#FFCF25"/>
<path d="M450.965 41.1067C452.433 41.1139 453.761 41.9794 454.36 43.3196L467.761 73.2969C468.87 75.7775 467.047 78.575 464.329 78.5617L447.209 78.4779C445.704 78.4705 444.35 77.5617 443.773 76.1717L431.34 46.1991C430.315 43.7298 432.138 41.0145 434.812 41.0275L450.965 41.1067Z" fill="#FFCF25"/>
<path d="M450.965 41.1067C452.433 41.1139 453.761 41.9794 454.36 43.3196L467.761 73.2969C468.87 75.7775 467.047 78.575 464.329 78.5617L447.209 78.4779C445.704 78.4705 444.35 77.5617 443.773 76.1717L431.34 46.1991C430.315 43.7298 432.138 41.0145 434.812 41.0275L450.965 41.1067Z" fill="#FFCF25"/>
<path d="M481.965 41.1067C483.433 41.1139 484.761 41.9794 485.36 43.3196L498.761 73.2969C499.87 75.7775 498.047 78.575 495.329 78.5617L478.209 78.4779C476.704 78.4705 475.35 77.5617 474.773 76.1717L462.34 46.1991C461.315 43.7298 463.138 41.0145 465.812 41.0275L481.965 41.1067Z" fill="#FFCF25"/>
<path d="M481.965 41.1067C483.433 41.1139 484.761 41.9794 485.36 43.3196L498.761 73.2969C499.87 75.7775 498.047 78.575 495.329 78.5617L478.209 78.4779C476.704 78.4705 475.35 77.5617 474.773 76.1717L462.34 46.1991C461.315 43.7298 463.138 41.0145 465.812 41.0275L481.965 41.1067Z" fill="#FFCF25"/>
<path d="M481.965 41.1067C483.433 41.1139 484.761 41.9794 485.36 43.3196L498.761 73.2969C499.87 75.7775 498.047 78.575 495.329 78.5617L478.209 78.4779C476.704 78.4705 475.35 77.5617 474.773 76.1717L462.34 46.1991C461.315 43.7298 463.138 41.0145 465.812 41.0275L481.965 41.1067Z" fill="#FFCF25"/>
<path d="M512.965 41.1067C514.433 41.1139 515.761 41.9794 516.36 43.3196L529.761 73.2969C530.87 75.7775 529.047 78.575 526.329 78.5617L509.209 78.4779C507.704 78.4705 506.35 77.5617 505.773 76.1717L493.34 46.1991C492.315 43.7298 494.138 41.0145 496.812 41.0275L512.965 41.1067Z" fill="#FFCF25"/>
<path d="M512.965 41.1067C514.433 41.1139 515.761 41.9794 516.36 43.3196L529.761 73.2969C530.87 75.7775 529.047 78.575 526.329 78.5617L509.209 78.4779C507.704 78.4705 506.35 77.5617 505.773 76.1717L493.34 46.1991C492.315 43.7298 494.138 41.0145 496.812 41.0275L512.965 41.1067Z" fill="#FFCF25"/>
<path d="M512.965 41.1067C514.433 41.1139 515.761 41.9794 516.36 43.3196L529.761 73.2969C530.87 75.7775 529.047 78.575 526.329 78.5617L509.209 78.4779C507.704 78.4705 506.35 77.5617 505.773 76.1717L493.34 46.1991C492.315 43.7298 494.138 41.0145 496.812 41.0275L512.965 41.1067Z" fill="#FFCF25"/>
<path d="M543.965 41.1067C545.433 41.1139 546.761 41.9794 547.36 43.3196L560.761 73.2969C561.87 75.7775 560.047 78.575 557.329 78.5617L540.209 78.4779C538.704 78.4705 537.35 77.5617 536.773 76.1717L524.34 46.1991C523.315 43.7298 525.138 41.0145 527.812 41.0275L543.965 41.1067Z" fill="#FFCF25"/>
<path d="M543.965 41.1067C545.433 41.1139 546.761 41.9794 547.36 43.3196L560.761 73.2969C561.87 75.7775 560.047 78.575 557.329 78.5617L540.209 78.4779C538.704 78.4705 537.35 77.5617 536.773 76.1717L524.34 46.1991C523.315 43.7298 525.138 41.0145 527.812 41.0275L543.965 41.1067Z" fill="#FFCF25"/>
<path d="M543.965 41.1067C545.433 41.1139 546.761 41.9794 547.36 43.3196L560.761 73.2969C561.87 75.7775 560.047 78.575 557.329 78.5617L540.209 78.4779C538.704 78.4705 537.35 77.5617 536.773 76.1717L524.34 46.1991C523.315 43.7298 525.138 41.0145 527.812 41.0275L543.965 41.1067Z" fill="#FFCF25"/>
<path d="M821.965 44.1067C823.433 44.1139 824.761 44.9794 825.36 46.3196L838.761 76.2969C839.87 78.7775 838.047 81.575 835.329 81.5617L818.209 81.4779C816.704 81.4705 815.35 80.5617 814.773 79.1717L802.34 49.1991C801.315 46.7298 803.138 44.0145 805.812 44.0275L821.965 44.1067Z" fill="#FFCF25"/>
<path d="M821.965 44.1067C823.433 44.1139 824.761 44.9794 825.36 46.3196L838.761 76.2969C839.87 78.7775 838.047 81.575 835.329 81.5617L818.209 81.4779C816.704 81.4705 815.35 80.5617 814.773 79.1717L802.34 49.1991C801.315 46.7298 803.138 44.0145 805.812 44.0275L821.965 44.1067Z" fill="#FFCF25"/>
<path d="M821.965 44.1067C823.433 44.1139 824.761 44.9794 825.36 46.3196L838.761 76.2969C839.87 78.7775 838.047 81.575 835.329 81.5617L818.209 81.4779C816.704 81.4705 815.35 80.5617 814.773 79.1717L802.34 49.1991C801.315 46.7298 803.138 44.0145 805.812 44.0275L821.965 44.1067Z" fill="#FFCF25"/>
<path d="M852.965 44.1067C854.433 44.1139 855.761 44.9794 856.36 46.3196L869.761 76.2969C870.87 78.7775 869.047 81.575 866.329 81.5617L849.209 81.4779C847.704 81.4705 846.35 80.5617 845.773 79.1717L833.34 49.1991C832.315 46.7298 834.138 44.0145 836.812 44.0275L852.965 44.1067Z" fill="#FFCF25"/>
<path d="M852.965 44.1067C854.433 44.1139 855.761 44.9794 856.36 46.3196L869.761 76.2969C870.87 78.7775 869.047 81.575 866.329 81.5617L849.209 81.4779C847.704 81.4705 846.35 80.5617 845.773 79.1717L833.34 49.1991C832.315 46.7298 834.138 44.0145 836.812 44.0275L852.965 44.1067Z" fill="#FFCF25"/>
<path d="M852.965 44.1067C854.433 44.1139 855.761 44.9794 856.36 46.3196L869.761 76.2969C870.87 78.7775 869.047 81.575 866.329 81.5617L849.209 81.4779C847.704 81.4705 846.35 80.5617 845.773 79.1717L833.34 49.1991C832.315 46.7298 834.138 44.0145 836.812 44.0275L852.965 44.1067Z" fill="#FFCF25"/>
<path d="M883.965 44.1067C885.433 44.1139 886.761 44.9794 887.36 46.3196L900.761 76.2969C901.87 78.7775 900.047 81.575 897.329 81.5617L880.209 81.4779C878.704 81.4705 877.35 80.5617 876.773 79.1717L864.34 49.1991C863.315 46.7298 865.138 44.0145 867.812 44.0275L883.965 44.1067Z" fill="#FFCF25"/>
<path d="M883.965 44.1067C885.433 44.1139 886.761 44.9794 887.36 46.3196L900.761 76.2969C901.87 78.7775 900.047 81.575 897.329 81.5617L880.209 81.4779C878.704 81.4705 877.35 80.5617 876.773 79.1717L864.34 49.1991C863.315 46.7298 865.138 44.0145 867.812 44.0275L883.965 44.1067Z" fill="#FFCF25"/>
<path d="M883.965 44.1067C885.433 44.1139 886.761 44.9794 887.36 46.3196L900.761 76.2969C901.87 78.7775 900.047 81.575 897.329 81.5617L880.209 81.4779C878.704 81.4705 877.35 80.5617 876.773 79.1717L864.34 49.1991C863.315 46.7298 865.138 44.0145 867.812 44.0275L883.965 44.1067Z" fill="#FFCF25"/>
<path d="M914.965 44.1067C916.433 44.1139 917.761 44.9794 918.36 46.3196L931.761 76.2969C932.87 78.7775 931.047 81.575 928.329 81.5617L911.209 81.4779C909.704 81.4705 908.35 80.5617 907.773 79.1717L895.34 49.1991C894.315 46.7298 896.138 44.0145 898.812 44.0275L914.965 44.1067Z" fill="#FFCF25"/>
<path d="M914.965 44.1067C916.433 44.1139 917.761 44.9794 918.36 46.3196L931.761 76.2969C932.87 78.7775 931.047 81.575 928.329 81.5617L911.209 81.4779C909.704 81.4705 908.35 80.5617 907.773 79.1717L895.34 49.1991C894.315 46.7298 896.138 44.0145 898.812 44.0275L914.965 44.1067Z" fill="#FFCF25"/>
<path d="M914.965 44.1067C916.433 44.1139 917.761 44.9794 918.36 46.3196L931.761 76.2969C932.87 78.7775 931.047 81.575 928.329 81.5617L911.209 81.4779C909.704 81.4705 908.35 80.5617 907.773 79.1717L895.34 49.1991C894.315 46.7298 896.138 44.0145 898.812 44.0275L914.965 44.1067Z" fill="#FFCF25"/>
<path d="M944.965 44.1067C946.433 44.1139 947.761 44.9794 948.36 46.3196L961.761 76.2969C962.87 78.7775 961.047 81.575 958.329 81.5617L941.209 81.4779C939.704 81.4705 938.35 80.5617 937.773 79.1717L925.34 49.1991C924.315 46.7298 926.138 44.0145 928.812 44.0275L944.965 44.1067Z" fill="#FFCF25"/>
<path d="M944.965 44.1067C946.433 44.1139 947.761 44.9794 948.36 46.3196L961.761 76.2969C962.87 78.7775 961.047 81.575 958.329 81.5617L941.209 81.4779C939.704 81.4705 938.35 80.5617 937.773 79.1717L925.34 49.1991C924.315 46.7298 926.138 44.0145 928.812 44.0275L944.965 44.1067Z" fill="#FFCF25"/>
<path d="M944.965 44.1067C946.433 44.1139 947.761 44.9794 948.36 46.3196L961.761 76.2969C962.87 78.7775 961.047 81.575 958.329 81.5617L941.209 81.4779C939.704 81.4705 938.35 80.5617 937.773 79.1717L925.34 49.1991C924.315 46.7298 926.138 44.0145 928.812 44.0275L944.965 44.1067Z" fill="#FFCF25"/>
<path d="M975.965 44.1067C977.433 44.1139 978.761 44.9794 979.36 46.3196L992.761 76.2969C993.87 78.7775 992.047 81.575 989.329 81.5617L972.209 81.4779C970.704 81.4705 969.35 80.5617 968.773 79.1717L956.34 49.1991C955.315 46.7298 957.138 44.0145 959.812 44.0275L975.965 44.1067Z" fill="#FFCF25"/>
<path d="M975.965 44.1067C977.433 44.1139 978.761 44.9794 979.36 46.3196L992.761 76.2969C993.87 78.7775 992.047 81.575 989.329 81.5617L972.209 81.4779C970.704 81.4705 969.35 80.5617 968.773 79.1717L956.34 49.1991C955.315 46.7298 957.138 44.0145 959.812 44.0275L975.965 44.1067Z" fill="#FFCF25"/>
<path d="M975.965 44.1067C977.433 44.1139 978.761 44.9794 979.36 46.3196L992.761 76.2969C993.87 78.7775 992.047 81.575 989.329 81.5617L972.209 81.4779C970.704 81.4705 969.35 80.5617 968.773 79.1717L956.34 49.1991C955.315 46.7298 957.138 44.0145 959.812 44.0275L975.965 44.1067Z" fill="#FFCF25"/>
<path d="M1006.96 44.1067C1008.43 44.1139 1009.76 44.9794 1010.36 46.3196L1023.76 76.2969C1024.87 78.7775 1023.05 81.575 1020.33 81.5617L1003.21 81.4779C1001.7 81.4705 1000.35 80.5617 999.773 79.1717L987.34 49.1991C986.315 46.7298 988.138 44.0145 990.812 44.0275L1006.96 44.1067Z" fill="#FFCF25"/>
<path d="M1006.96 44.1067C1008.43 44.1139 1009.76 44.9794 1010.36 46.3196L1023.76 76.2969C1024.87 78.7775 1023.05 81.575 1020.33 81.5617L1003.21 81.4779C1001.7 81.4705 1000.35 80.5617 999.773 79.1717L987.34 49.1991C986.315 46.7298 988.138 44.0145 990.812 44.0275L1006.96 44.1067Z" fill="#FFCF25"/>
<path d="M1006.96 44.1067C1008.43 44.1139 1009.76 44.9794 1010.36 46.3196L1023.76 76.2969C1024.87 78.7775 1023.05 81.575 1020.33 81.5617L1003.21 81.4779C1001.7 81.4705 1000.35 80.5617 999.773 79.1717L987.34 49.1991C986.315 46.7298 988.138 44.0145 990.812 44.0275L1006.96 44.1067Z" fill="#FFCF25"/>
<path d="M1037.96 44.1067C1039.43 44.1139 1040.76 44.9794 1041.36 46.3196L1054.76 76.2969C1055.87 78.7775 1054.05 81.575 1051.33 81.5617L1034.21 81.4779C1032.7 81.4705 1031.35 80.5617 1030.77 79.1717L1018.34 49.1991C1017.32 46.7298 1019.14 44.0145 1021.81 44.0275L1037.96 44.1067Z" fill="#FFCF25"/>
<path d="M1037.96 44.1067C1039.43 44.1139 1040.76 44.9794 1041.36 46.3196L1054.76 76.2969C1055.87 78.7775 1054.05 81.575 1051.33 81.5617L1034.21 81.4779C1032.7 81.4705 1031.35 80.5617 1030.77 79.1717L1018.34 49.1991C1017.32 46.7298 1019.14 44.0145 1021.81 44.0275L1037.96 44.1067Z" fill="#FFCF25"/>
<path d="M1037.96 44.1067C1039.43 44.1139 1040.76 44.9794 1041.36 46.3196L1054.76 76.2969C1055.87 78.7775 1054.05 81.575 1051.33 81.5617L1034.21 81.4779C1032.7 81.4705 1031.35 80.5617 1030.77 79.1717L1018.34 49.1991C1017.32 46.7298 1019.14 44.0145 1021.81 44.0275L1037.96 44.1067Z" fill="#FFCF25"/>
<path d="M575.965 44.1067C577.433 44.1139 578.761 44.9794 579.36 46.3196L592.761 76.2969C593.87 78.7775 592.047 81.575 589.329 81.5617L572.209 81.4779C570.704 81.4705 569.35 80.5617 568.773 79.1717L556.34 49.1991C555.315 46.7298 557.138 44.0145 559.812 44.0275L575.965 44.1067Z" fill="#FFCF25"/>
<path d="M575.965 44.1067C577.433 44.1139 578.761 44.9794 579.36 46.3196L592.761 76.2969C593.87 78.7775 592.047 81.575 589.329 81.5617L572.209 81.4779C570.704 81.4705 569.35 80.5617 568.773 79.1717L556.34 49.1991C555.315 46.7298 557.138 44.0145 559.812 44.0275L575.965 44.1067Z" fill="#FFCF25"/>
<path d="M575.965 44.1067C577.433 44.1139 578.761 44.9794 579.36 46.3196L592.761 76.2969C593.87 78.7775 592.047 81.575 589.329 81.5617L572.209 81.4779C570.704 81.4705 569.35 80.5617 568.773 79.1717L556.34 49.1991C555.315 46.7298 557.138 44.0145 559.812 44.0275L575.965 44.1067Z" fill="#FFCF25"/>
<path d="M606.965 44.1067C608.433 44.1139 609.761 44.9794 610.36 46.3196L623.761 76.2969C624.87 78.7775 623.047 81.575 620.329 81.5617L603.209 81.4779C601.704 81.4705 600.35 80.5617 599.773 79.1717L587.34 49.1991C586.315 46.7298 588.138 44.0145 590.812 44.0275L606.965 44.1067Z" fill="#FFCF25"/>
<path d="M606.965 44.1067C608.433 44.1139 609.761 44.9794 610.36 46.3196L623.761 76.2969C624.87 78.7775 623.047 81.575 620.329 81.5617L603.209 81.4779C601.704 81.4705 600.35 80.5617 599.773 79.1717L587.34 49.1991C586.315 46.7298 588.138 44.0145 590.812 44.0275L606.965 44.1067Z" fill="#FFCF25"/>
<path d="M606.965 44.1067C608.433 44.1139 609.761 44.9794 610.36 46.3196L623.761 76.2969C624.87 78.7775 623.047 81.575 620.329 81.5617L603.209 81.4779C601.704 81.4705 600.35 80.5617 599.773 79.1717L587.34 49.1991C586.315 46.7298 588.138 44.0145 590.812 44.0275L606.965 44.1067Z" fill="#FFCF25"/>
<path d="M636.965 44.1067C638.433 44.1139 639.761 44.9794 640.36 46.3196L653.761 76.2969C654.87 78.7775 653.047 81.575 650.329 81.5617L633.209 81.4779C631.704 81.4705 630.35 80.5617 629.773 79.1717L617.34 49.1991C616.315 46.7298 618.138 44.0145 620.812 44.0275L636.965 44.1067Z" fill="#FFCF25"/>
<path d="M636.965 44.1067C638.433 44.1139 639.761 44.9794 640.36 46.3196L653.761 76.2969C654.87 78.7775 653.047 81.575 650.329 81.5617L633.209 81.4779C631.704 81.4705 630.35 80.5617 629.773 79.1717L617.34 49.1991C616.315 46.7298 618.138 44.0145 620.812 44.0275L636.965 44.1067Z" fill="#FFCF25"/>
<path d="M636.965 44.1067C638.433 44.1139 639.761 44.9794 640.36 46.3196L653.761 76.2969C654.87 78.7775 653.047 81.575 650.329 81.5617L633.209 81.4779C631.704 81.4705 630.35 80.5617 629.773 79.1717L617.34 49.1991C616.315 46.7298 618.138 44.0145 620.812 44.0275L636.965 44.1067Z" fill="#FFCF25"/>
<path d="M667.965 44.1067C669.433 44.1139 670.761 44.9794 671.36 46.3196L684.761 76.2969C685.87 78.7775 684.047 81.575 681.329 81.5617L664.209 81.4779C662.704 81.4705 661.35 80.5617 660.773 79.1717L648.34 49.1991C647.315 46.7298 649.138 44.0145 651.812 44.0275L667.965 44.1067Z" fill="#FFCF25"/>
<path d="M667.965 44.1067C669.433 44.1139 670.761 44.9794 671.36 46.3196L684.761 76.2969C685.87 78.7775 684.047 81.575 681.329 81.5617L664.209 81.4779C662.704 81.4705 661.35 80.5617 660.773 79.1717L648.34 49.1991C647.315 46.7298 649.138 44.0145 651.812 44.0275L667.965 44.1067Z" fill="#FFCF25"/>
<path d="M667.965 44.1067C669.433 44.1139 670.761 44.9794 671.36 46.3196L684.761 76.2969C685.87 78.7775 684.047 81.575 681.329 81.5617L664.209 81.4779C662.704 81.4705 661.35 80.5617 660.773 79.1717L648.34 49.1991C647.315 46.7298 649.138 44.0145 651.812 44.0275L667.965 44.1067Z" fill="#FFCF25"/>
<path d="M698.965 44.1067C700.433 44.1139 701.761 44.9794 702.36 46.3196L715.761 76.2969C716.87 78.7775 715.047 81.575 712.329 81.5617L695.209 81.4779C693.704 81.4705 692.35 80.5617 691.773 79.1717L679.34 49.1991C678.315 46.7298 680.138 44.0145 682.812 44.0275L698.965 44.1067Z" fill="#FFCF25"/>
<path d="M698.965 44.1067C700.433 44.1139 701.761 44.9794 702.36 46.3196L715.761 76.2969C716.87 78.7775 715.047 81.575 712.329 81.5617L695.209 81.4779C693.704 81.4705 692.35 80.5617 691.773 79.1717L679.34 49.1991C678.315 46.7298 680.138 44.0145 682.812 44.0275L698.965 44.1067Z" fill="#FFCF25"/>
<path d="M698.965 44.1067C700.433 44.1139 701.761 44.9794 702.36 46.3196L715.761 76.2969C716.87 78.7775 715.047 81.575 712.329 81.5617L695.209 81.4779C693.704 81.4705 692.35 80.5617 691.773 79.1717L679.34 49.1991C678.315 46.7298 680.138 44.0145 682.812 44.0275L698.965 44.1067Z" fill="#FFCF25"/>
<path d="M729.965 44.1067C731.433 44.1139 732.761 44.9794 733.36 46.3196L746.761 76.2969C747.87 78.7775 746.047 81.575 743.329 81.5617L726.209 81.4779C724.704 81.4705 723.35 80.5617 722.773 79.1717L710.34 49.1991C709.315 46.7298 711.138 44.0145 713.812 44.0275L729.965 44.1067Z" fill="#FFCF25"/>
<path d="M729.965 44.1067C731.433 44.1139 732.761 44.9794 733.36 46.3196L746.761 76.2969C747.87 78.7775 746.047 81.575 743.329 81.5617L726.209 81.4779C724.704 81.4705 723.35 80.5617 722.773 79.1717L710.34 49.1991C709.315 46.7298 711.138 44.0145 713.812 44.0275L729.965 44.1067Z" fill="#FFCF25"/>
<path d="M729.965 44.1067C731.433 44.1139 732.761 44.9794 733.36 46.3196L746.761 76.2969C747.87 78.7775 746.047 81.575 743.329 81.5617L726.209 81.4779C724.704 81.4705 723.35 80.5617 722.773 79.1717L710.34 49.1991C709.315 46.7298 711.138 44.0145 713.812 44.0275L729.965 44.1067Z" fill="#FFCF25"/>
<path d="M759.965 44.1067C761.433 44.1139 762.761 44.9794 763.36 46.3196L776.761 76.2969C777.87 78.7775 776.047 81.575 773.329 81.5617L756.209 81.4779C754.704 81.4705 753.35 80.5617 752.773 79.1717L740.34 49.1991C739.315 46.7298 741.138 44.0145 743.812 44.0275L759.965 44.1067Z" fill="#FFCF25"/>
<path d="M759.965 44.1067C761.433 44.1139 762.761 44.9794 763.36 46.3196L776.761 76.2969C777.87 78.7775 776.047 81.575 773.329 81.5617L756.209 81.4779C754.704 81.4705 753.35 80.5617 752.773 79.1717L740.34 49.1991C739.315 46.7298 741.138 44.0145 743.812 44.0275L759.965 44.1067Z" fill="#FFCF25"/>
<path d="M759.965 44.1067C761.433 44.1139 762.761 44.9794 763.36 46.3196L776.761 76.2969C777.87 78.7775 776.047 81.575 773.329 81.5617L756.209 81.4779C754.704 81.4705 753.35 80.5617 752.773 79.1717L740.34 49.1991C739.315 46.7298 741.138 44.0145 743.812 44.0275L759.965 44.1067Z" fill="#FFCF25"/>
<path d="M790.965 44.1067C792.433 44.1139 793.761 44.9794 794.36 46.3196L807.761 76.2969C808.87 78.7775 807.047 81.575 804.329 81.5617L787.209 81.4779C785.704 81.4705 784.35 80.5617 783.773 79.1717L771.34 49.1991C770.315 46.7298 772.138 44.0145 774.812 44.0275L790.965 44.1067Z" fill="#FFCF25"/>
<path d="M790.965 44.1067C792.433 44.1139 793.761 44.9794 794.36 46.3196L807.761 76.2969C808.87 78.7775 807.047 81.575 804.329 81.5617L787.209 81.4779C785.704 81.4705 784.35 80.5617 783.773 79.1717L771.34 49.1991C770.315 46.7298 772.138 44.0145 774.812 44.0275L790.965 44.1067Z" fill="#FFCF25"/>
<path d="M790.965 44.1067C792.433 44.1139 793.761 44.9794 794.36 46.3196L807.761 76.2969C808.87 78.7775 807.047 81.575 804.329 81.5617L787.209 81.4779C785.704 81.4705 784.35 80.5617 783.773 79.1717L771.34 49.1991C770.315 46.7298 772.138 44.0145 774.812 44.0275L790.965 44.1067Z" fill="#FFCF25"/>
</g>
<path d="M1074.82 51.2163C1075.06 46.9942 1074.18 43.3022 1072.54 40.2622C1071.19 37.7645 1070.81 34.7799 1071.42 31.9131C1071.47 31.7122 1071.51 31.5116 1071.57 31.3121L1073.6 23.5876C1074.76 19.2068 1072.54 14.6629 1068.51 13.4708C1064.32 12.234 1059.9 14.9688 1058.71 19.4842L1057.6 23.7215C1056.59 27.5517 1053.88 30.6698 1050.36 32.0286C1046.93 33.3554 1043.71 35.8247 1041.17 39.5951C1032.33 52.6703 1020.98 63.8561 1007.72 72.2599C994.451 80.6636 979.91 85.8793 965.107 87.7756C955.848 88.9616 949.916 96.1645 948.335 104.164C946.748 112.197 949.549 121.034 957.781 125.39C967.778 130.682 978.973 133.691 990.72 133.949C1021.57 134.626 1050.65 116.2 1065.36 86.6652C1070.97 75.407 1074.1 63.3078 1074.82 51.2163Z" fill="#EEBF00"/>
<path d="M1071.42 31.9131C1071.47 31.7122 1071.51 31.5116 1071.57 31.3121L1072.63 27.2603L1073.6 23.5876C1074.76 19.2068 1072.54 14.6629 1068.51 13.4708C1064.32 12.234 1059.9 14.9688 1058.71 19.4842L1057.68 23.4014L1057.6 23.7215C1056.59 27.5517 1053.88 30.6698 1050.36 32.0286C1046.93 33.3554 1043.71 35.8247 1041.17 39.5951C1032.33 52.6703 1020.98 63.8561 1007.72 72.2599C994.451 80.6636 979.91 85.8793 965.107 87.7756C955.848 88.9616 949.916 96.1645 948.335 104.164C973.082 113.476 1000.78 110.826 1024.37 96.8904C1047.8 83.0472 1064.91 59.3977 1071.42 31.9131Z" fill="#FFD422"/>
<path d="M1074.26 21.6783L1075.23 18.0056C1076.39 13.6248 1074.17 9.0809 1070.14 7.88884C1065.95 6.65199 1061.53 9.38679 1060.34 13.9022L1059.31 17.8194C1063.86 20.4435 1069.01 21.7717 1074.26 21.6783Z" fill="#AA6100"/>
<path d="M986.036 125.058C985.362 127.487 979.228 129.179 972.34 127.269C965.452 125.36 960.42 120.571 961.094 118.143C961.767 115.715 967.896 115.294 974.784 117.204C981.671 119.114 986.709 122.63 986.036 125.058Z" fill="white"/>
<path d="M1041.3 48.9543C1040 47.6772 1041.31 42.9643 1045.23 38.9641C1049.16 34.9639 1054.21 33.1912 1055.52 34.4683C1056.82 35.7454 1054.69 40.0236 1050.76 44.0238C1046.84 48.024 1042.6 50.2315 1041.3 48.9543Z" fill="white" fill-opacity="0.85"/>
<path d="M1173.82 329.216C1174.06 324.994 1173.18 321.302 1171.54 318.262C1170.19 315.764 1169.81 312.78 1170.42 309.913C1170.47 309.712 1170.51 309.512 1170.57 309.312L1172.6 301.588C1173.76 297.207 1171.54 292.663 1167.51 291.471C1163.32 290.234 1158.9 292.969 1157.71 297.484L1156.6 301.722C1155.59 305.552 1152.88 308.67 1149.36 310.029C1145.93 311.355 1142.71 313.825 1140.17 317.595C1131.33 330.67 1119.98 341.856 1106.72 350.26C1093.45 358.664 1078.91 363.879 1064.11 365.776C1054.85 366.962 1048.92 374.165 1047.33 382.164C1045.75 390.197 1048.55 399.034 1056.78 403.39C1066.78 408.682 1077.97 411.691 1089.72 411.949C1120.57 412.626 1149.65 394.2 1164.36 364.665C1169.97 353.407 1173.1 341.308 1173.82 329.216Z" fill="#EEBF00"/>
<path d="M1170.42 309.913C1170.47 309.712 1170.51 309.512 1170.57 309.312L1171.63 305.26L1172.6 301.588C1173.76 297.207 1171.54 292.663 1167.51 291.471C1163.32 290.234 1158.9 292.969 1157.71 297.484L1156.68 301.401L1156.6 301.722C1155.59 305.552 1152.88 308.67 1149.36 310.029C1145.93 311.355 1142.71 313.825 1140.17 317.595C1131.33 330.67 1119.98 341.856 1106.72 350.26C1093.45 358.664 1078.91 363.879 1064.11 365.776C1054.85 366.962 1048.92 374.165 1047.33 382.164C1072.08 391.476 1099.78 388.826 1123.37 374.89C1146.8 361.047 1163.91 337.398 1170.42 309.913Z" fill="#FFD422"/>
<path d="M1173.26 299.678L1174.23 296.006C1175.39 291.625 1173.17 287.081 1169.14 285.889C1164.95 284.652 1160.53 287.387 1159.34 291.902L1158.31 295.819C1162.86 298.443 1168.01 299.772 1173.26 299.678Z" fill="#AA6100"/>
<path d="M1085.04 403.058C1084.36 405.487 1078.23 407.179 1071.34 405.269C1064.45 403.36 1059.42 398.571 1060.09 396.143C1060.77 393.715 1066.9 393.294 1073.78 395.204C1080.67 397.114 1085.71 400.63 1085.04 403.058Z" fill="white"/>
<path d="M1140.3 326.954C1139 325.677 1140.31 320.964 1144.23 316.964C1148.16 312.964 1153.21 311.191 1154.52 312.468C1155.82 313.745 1153.69 318.024 1149.76 322.024C1145.84 326.024 1141.6 328.231 1140.3 326.954Z" fill="white" fill-opacity="0.85"/>
<path d="M1276.62 464.842C1273.42 462.076 1269.95 460.529 1266.54 459.986C1263.74 459.54 1261.14 458.024 1259.23 455.794C1259.1 455.638 1258.97 455.479 1258.84 455.316L1253.95 449.001C1251.18 445.42 1246.22 444.412 1242.82 446.89C1239.3 449.46 1238.78 454.63 1241.64 458.322L1244.32 461.786C1246.75 464.917 1247.58 468.964 1246.52 472.581C1245.48 476.112 1245.48 480.168 1246.93 484.483C1251.94 499.446 1253.91 515.26 1252.51 530.901C1251.11 546.543 1246.41 561.257 1238.91 574.16C1234.22 582.231 1236.33 591.321 1241.72 597.441C1247.13 603.587 1255.84 606.738 1264.31 602.854C1274.59 598.138 1283.79 591.082 1291.14 581.915C1310.44 557.842 1313.51 523.546 1299.01 493.907C1293.48 482.609 1285.78 472.763 1276.62 464.842Z" fill="#EEBF00"/>
<path d="M1259.23 455.794C1259.1 455.638 1258.97 455.479 1258.84 455.316L1256.28 452.003L1253.95 449.001C1251.18 445.42 1246.22 444.412 1242.82 446.89C1239.3 449.46 1238.78 454.63 1241.64 458.322L1244.12 461.524L1244.32 461.786C1246.75 464.917 1247.58 468.964 1246.52 472.581C1245.48 476.112 1245.48 480.168 1246.93 484.483C1251.94 499.446 1253.91 515.26 1252.51 530.901C1251.11 546.543 1246.41 561.257 1238.91 574.16C1234.22 582.231 1236.33 591.321 1241.72 597.441C1264.16 583.462 1278.9 559.864 1282.19 532.666C1285.45 505.65 1277.09 477.679 1259.23 455.794Z" fill="#FFD422"/>
<path d="M1252.84 447.315L1250.51 444.312C1247.74 440.731 1242.78 439.724 1239.38 442.201C1235.86 444.772 1235.34 449.942 1238.2 453.633L1240.68 456.835C1245.53 454.817 1249.72 451.54 1252.84 447.315Z" fill="#AA6100"/>
<path d="M1281.23 580.225C1282.75 582.236 1280.36 588.135 1274.66 592.441C1268.95 596.746 1262.09 597.828 1260.57 595.817C1259.05 593.805 1262.45 588.684 1268.15 584.379C1273.86 580.073 1279.71 578.214 1281.23 580.225Z" fill="white"/>
<path d="M1254.44 490.072C1252.63 490.328 1249.69 486.421 1248.9 480.871C1248.11 475.321 1249.78 470.23 1251.59 469.975C1253.39 469.719 1255.49 474.01 1256.28 479.56C1257.07 485.11 1256.24 489.816 1254.44 490.072Z" fill="white" fill-opacity="0.85"/>
<path d="M399.026 615.36C402.269 612.644 404.351 609.471 405.434 606.188C406.323 603.491 408.236 601.169 410.742 599.648C410.917 599.541 411.096 599.438 411.277 599.339L418.294 595.521C422.273 593.356 424.061 588.628 422.16 584.875C420.188 580.981 415.167 579.643 411.065 581.875L407.216 583.969C403.737 585.863 399.61 586.031 396.209 584.405C392.889 582.819 388.885 582.171 384.395 582.905C368.823 585.451 352.897 584.866 337.681 580.98C322.466 577.094 308.696 570.094 297.16 560.625C289.945 554.702 280.634 555.328 273.73 559.666C266.797 564.022 262.29 572.123 264.768 581.101C267.777 592.004 273.268 602.214 281.139 610.937C301.81 633.844 335.171 642.365 366.75 632.803C378.787 629.158 389.739 623.136 399.026 615.36Z" fill="#EEBF00"/>
<path d="M410.742 599.648C410.917 599.541 411.096 599.438 411.277 599.339L414.957 597.337L418.294 595.521C422.273 593.356 424.061 588.628 422.16 584.875C420.188 580.981 415.167 579.643 411.065 581.875L407.507 583.811L407.216 583.969C403.737 585.863 399.61 586.031 396.209 584.405C392.889 582.819 388.885 582.171 384.395 582.905C368.823 585.451 352.897 584.866 337.681 580.98C322.466 577.094 308.696 570.094 297.16 560.625C289.945 554.702 280.634 555.328 273.73 559.666C283.934 584.059 304.865 602.394 331.186 609.993C357.331 617.54 386.279 613.768 410.742 599.648Z" fill="#FFD422"/>
<path d="M420.137 594.693L423.474 592.877C427.453 590.712 429.241 585.985 427.34 582.231C425.368 578.337 420.347 576.999 416.245 579.231L412.687 581.167C413.902 586.281 416.466 590.936 420.137 594.693Z" fill="#AA6100"/>
<path d="M284.394 601.43C282.166 602.606 276.726 599.304 273.39 592.983C270.054 586.662 270.085 579.716 272.314 578.54C274.542 577.363 279.053 581.534 282.389 587.855C285.725 594.176 286.623 600.254 284.394 601.43Z" fill="white"/>
<path d="M377.675 589.422C377.712 587.599 382.04 585.319 387.644 585.432C393.248 585.544 398.006 588.005 397.969 589.828C397.933 591.651 393.36 593.038 387.756 592.925C382.152 592.813 377.639 591.244 377.675 589.422Z" fill="white" fill-opacity="0.85"/>
<path d="M428.817 282.216C429.066 277.994 428.186 274.302 426.54 271.262C425.188 268.764 424.812 265.78 425.423 262.913C425.466 262.712 425.514 262.512 425.566 262.312L427.602 254.588C428.757 250.207 426.544 245.663 422.509 244.471C418.323 243.234 413.906 245.969 412.715 250.484L411.598 254.722C410.589 258.552 407.879 261.67 404.364 263.029C400.932 264.355 397.713 266.825 395.167 270.595C386.336 283.67 374.984 294.856 361.718 303.26C348.452 311.664 333.911 316.879 319.108 318.776C309.849 319.962 303.917 327.165 302.336 335.164C300.749 343.197 303.55 352.034 311.782 356.39C321.779 361.682 332.974 364.691 344.721 364.949C375.568 365.626 404.655 347.2 419.364 317.665C424.97 306.407 428.103 294.308 428.817 282.216Z" fill="#EEBF00"/>
<path d="M425.423 262.913C425.466 262.712 425.513 262.512 425.566 262.312L426.634 258.26L427.602 254.588C428.757 250.207 426.544 245.663 422.509 244.471C418.323 243.234 413.906 245.969 412.715 250.484L411.683 254.401L411.598 254.722C410.589 258.552 407.879 261.67 404.364 263.029C400.932 264.355 397.713 266.825 395.167 270.595C386.336 283.67 374.984 294.856 361.718 303.26C348.452 311.664 333.911 316.879 319.108 318.776C309.849 319.962 303.917 327.165 302.336 335.164C327.083 344.476 354.783 341.826 378.369 327.89C401.797 314.047 418.913 290.398 425.423 262.913Z" fill="#FFD422"/>
<path d="M428.263 252.678L429.232 249.006C430.386 244.625 428.173 240.081 424.139 238.889C419.953 237.652 415.535 240.387 414.344 244.902L413.312 248.819C417.865 251.443 423.011 252.772 428.263 252.678Z" fill="#AA6100"/>
<path d="M340.037 356.058C339.363 358.487 333.229 360.179 326.341 358.269C319.453 356.36 314.421 351.571 315.095 349.143C315.768 346.715 321.897 346.294 328.784 348.204C335.672 350.114 340.71 353.63 340.037 356.058Z" fill="white"/>
<path d="M395.297 279.954C393.996 278.677 395.307 273.964 399.233 269.964C403.16 265.964 408.215 264.191 409.516 265.468C410.817 266.745 408.689 271.024 404.763 275.024C400.836 279.024 396.598 281.231 395.297 279.954Z" fill="white" fill-opacity="0.85"/>
<path d="M1170.46 708.147C1168.16 704.599 1165.26 702.148 1162.13 700.676C1159.56 699.466 1157.49 697.286 1156.28 694.615C1156.2 694.428 1156.12 694.238 1156.04 694.046L1153.1 686.619C1151.43 682.406 1146.96 680.059 1143 681.492C1138.9 682.978 1136.96 687.799 1138.68 692.141L1140.29 696.216C1141.75 699.899 1141.42 704.016 1139.39 707.194C1137.42 710.298 1136.29 714.195 1136.47 718.74C1137.11 734.506 1134.61 750.244 1128.91 764.877C1123.21 779.51 1114.59 792.331 1103.79 802.635C1097.04 809.08 1096.53 818.398 1100 825.777C1103.49 833.186 1110.98 838.641 1120.2 837.269C1131.38 835.602 1142.18 831.388 1151.8 824.631C1177.04 806.886 1189.53 774.802 1183.87 742.297C1181.71 729.907 1177.06 718.307 1170.46 708.147Z" fill="#EEBF00"/>
<path d="M1156.28 694.615C1156.2 694.428 1156.12 694.238 1156.04 694.046L1154.5 690.15L1153.1 686.619C1151.43 682.406 1146.96 680.059 1143 681.492C1138.9 682.978 1136.96 687.799 1138.68 692.141L1140.17 695.908L1140.29 696.216C1141.75 699.899 1141.42 704.016 1139.39 707.194C1137.42 710.298 1136.29 714.195 1136.47 718.74C1137.11 734.506 1134.61 750.244 1128.91 764.877C1123.21 779.51 1114.59 792.331 1103.79 802.635C1097.04 809.08 1096.53 818.398 1100 825.777C1125.45 818.602 1146.19 800.045 1156.92 774.838C1167.58 749.799 1167.34 720.607 1156.28 694.615Z" fill="#FFD422"/>
<path d="M1152.5 684.689L1151.1 681.157C1149.44 676.945 1144.96 674.598 1141 676.03C1136.9 677.516 1134.96 682.338 1136.68 686.68L1138.17 690.447C1143.4 689.86 1148.33 687.878 1152.5 684.689Z" fill="#AA6100"/>
<path d="M1142.75 820.248C1143.65 822.603 1139.71 827.603 1133.03 830.149C1126.36 832.695 1119.46 831.823 1118.57 829.469C1117.67 827.114 1122.36 823.141 1129.03 820.595C1135.71 818.049 1141.85 817.894 1142.75 820.248Z" fill="white"/>
<path d="M1142.13 726.2C1140.32 725.943 1138.58 721.37 1139.37 715.821C1140.16 710.272 1143.18 705.847 1144.99 706.104C1146.79 706.361 1147.62 711.068 1146.83 716.617C1146.04 722.166 1143.93 726.457 1142.13 726.2Z" fill="white" fill-opacity="0.85"/>
<g filter="url(#filter0_d_8272_172)">
<rect x="518.563" y="355.926" width="462.564" height="465.597" rx="45.4981" transform="rotate(0.441137 518.563 355.926)" fill="#FFF5D1"/>
</g>
<path d="M629.313 94.1887L734.164 82.3253L740.899 303.07L674 310.64L629.313 94.1887Z" fill="url(#paint0_linear_8272_172)"/>
<path d="M873.438 93.5382L768.636 81.2475L761.002 301.963L827.869 309.805L873.438 93.5382Z" fill="url(#paint1_linear_8272_172)"/>
<path d="M616.017 128.268L529.098 153.941L597.544 330.713L653.001 314.333L616.017 128.268Z" fill="url(#paint2_linear_8272_172)"/>
<path d="M886.599 127.671L973.412 153.698L904.246 330.19L848.856 313.584L886.599 127.671Z" fill="url(#paint3_linear_8272_172)"/>
<path d="M533.444 210.538L475.765 239.929L546.939 355.113L583.74 336.361L533.444 210.538Z" fill="url(#paint4_linear_8272_172)"/>
<path d="M968.832 210.276L1026.39 239.902L954.749 354.796L918.024 335.894L968.832 210.276Z" fill="url(#paint5_linear_8272_172)"/>
<g filter="url(#filter1_d_8272_172)">
<path d="M506.646 345.71C494.579 323.947 488.545 313.065 491.951 305.994C495.356 298.923 506.236 297.091 527.994 293.427L561.394 287.802C575.494 285.428 582.544 284.241 587.662 287.883C592.78 291.526 593.968 298.576 596.342 312.676L606.687 374.109C609.062 388.209 610.249 395.259 606.606 400.377C602.964 405.495 595.913 406.683 581.813 409.057L548.725 414.629C526.938 418.298 516.044 420.132 510.516 414.622C504.988 409.111 507.034 396.727 511.125 371.96C512.088 366.128 512.393 360.995 511.602 357.39C510.894 354.16 509.093 350.122 506.646 345.71Z" fill="url(#paint6_linear_8272_172)"/>
</g>
<g filter="url(#filter2_d_8272_172)">
<path d="M992.686 349.453C1005.09 327.878 1011.29 317.09 1007.99 309.967C1004.69 302.844 993.845 300.845 972.145 296.846L938.836 290.708C924.774 288.117 917.743 286.821 912.57 290.385C907.396 293.948 906.101 300.979 903.509 315.041L892.22 376.308C889.628 390.369 888.333 397.4 891.896 402.574C895.46 407.747 902.49 409.043 916.552 411.634L949.551 417.715C971.279 421.719 982.143 423.721 987.755 418.296C993.368 412.871 991.513 400.457 987.804 375.63C986.93 369.783 986.705 364.647 987.551 361.054C988.308 357.836 990.172 353.826 992.686 349.453Z" fill="url(#paint7_linear_8272_172)"/>
</g>
<g filter="url(#filter3_d_8272_172)">
<path d="M544.568 310.827C544.748 287.429 544.838 275.73 552.394 267.215C559.949 258.7 570.975 257.293 593.026 254.479C629.15 249.868 683.672 244.965 749.818 245.475C815.964 245.984 870.404 251.726 906.454 256.892C928.459 260.045 939.461 261.622 946.885 270.252C954.308 278.882 954.218 290.581 954.038 313.979L953.872 335.595C953.634 366.491 953.515 381.939 943.769 390.862C934.023 399.786 918.513 398.537 887.493 396.039C842.254 392.397 784.184 388.304 748.721 388.031C713.257 387.758 655.131 390.956 609.842 393.901C578.787 395.921 563.26 396.931 553.652 387.859C544.044 378.786 544.163 363.338 544.401 332.442L544.568 310.827Z" fill="url(#paint8_linear_8272_172)"/>
</g>
<path d="M696.695 304.034C695.903 304.028 695.292 303.82 694.863 303.408C694.459 302.973 694.259 302.36 694.266 301.568L694.423 281.084C694.429 280.292 694.638 279.694 695.049 279.289C695.484 278.86 696.098 278.649 696.89 278.655L709.742 278.754C710.342 278.759 710.796 278.918 711.106 279.233C711.44 279.547 711.604 279.992 711.6 280.568C711.595 281.168 711.424 281.635 711.085 281.968C710.771 282.278 710.313 282.431 709.713 282.426L698.842 282.342L698.788 289.326L708.868 289.404C709.492 289.408 709.958 289.568 710.268 289.882C710.578 290.197 710.73 290.654 710.725 291.254C710.721 291.854 710.561 292.309 710.247 292.618C709.933 292.928 709.463 293.08 708.839 293.076L698.76 292.998L698.703 300.378L709.575 300.461C710.174 300.466 710.629 300.626 710.939 300.94C711.272 301.254 711.437 301.712 711.432 302.312C711.428 302.912 711.256 303.366 710.918 303.676C710.603 303.985 710.146 304.138 709.546 304.133L696.695 304.034ZM720.912 304.581C719.64 304.571 718.502 304.322 717.497 303.834C716.517 303.323 715.743 302.645 715.173 301.801C714.628 300.956 714.359 300.006 714.367 298.95C714.377 297.654 714.721 296.637 715.399 295.898C716.076 295.135 717.173 294.592 718.687 294.267C720.202 293.943 722.231 293.791 724.775 293.81L726.575 293.824L726.555 296.416L724.791 296.402C723.303 296.391 722.114 296.454 721.225 296.591C720.336 296.728 719.698 296.975 719.312 297.332C718.949 297.665 718.765 298.144 718.761 298.768C718.754 299.56 719.025 300.21 719.574 300.718C720.122 301.227 720.888 301.485 721.872 301.492C722.664 301.498 723.361 301.324 723.964 300.968C724.591 300.589 725.087 300.077 725.452 299.432C725.817 298.786 726.002 298.044 726.009 297.204L726.041 293.064C726.05 291.864 725.793 290.998 725.269 290.466C724.745 289.934 723.859 289.663 722.611 289.653C721.915 289.648 721.158 289.726 720.341 289.888C719.548 290.05 718.705 290.331 717.814 290.733C717.357 290.945 716.948 291.002 716.589 290.903C716.254 290.805 715.991 290.611 715.801 290.321C715.612 290.008 715.518 289.671 715.521 289.311C715.524 288.951 715.623 288.604 715.817 288.269C716.012 287.911 716.338 287.649 716.795 287.485C717.903 287.037 718.961 286.721 719.971 286.537C721.004 286.353 721.941 286.264 722.781 286.271C724.509 286.284 725.923 286.559 727.023 287.095C728.147 287.632 728.98 288.442 729.524 289.527C730.068 290.587 730.333 291.957 730.32 293.637L730.254 302.277C730.248 303.021 730.064 303.595 729.701 304C729.338 304.382 728.82 304.57 728.148 304.565C727.476 304.559 726.95 304.363 726.569 303.976C726.212 303.566 726.036 302.988 726.042 302.244L726.055 300.516L726.343 300.519C726.169 301.357 725.827 302.087 725.318 302.707C724.834 303.303 724.218 303.766 723.472 304.096C722.725 304.427 721.872 304.588 720.912 304.581ZM737.107 304.633C736.363 304.628 735.789 304.431 735.384 304.044C735.003 303.633 734.815 303.056 734.821 302.312L734.926 288.704C734.932 287.96 735.128 287.398 735.515 287.017C735.902 286.636 736.443 286.448 737.139 286.453C737.835 286.459 738.374 286.655 738.755 287.042C739.136 287.429 739.324 287.994 739.318 288.738L739.3 291.006L738.94 291.003C739.287 289.566 739.956 288.479 740.946 287.743C741.935 287.006 743.247 286.572 744.88 286.441C745.384 286.397 745.779 286.532 746.065 286.846C746.374 287.136 746.551 287.594 746.594 288.218C746.637 288.818 746.49 289.309 746.151 289.691C745.836 290.048 745.354 290.261 744.706 290.328L743.913 290.393C742.448 290.526 741.341 290.974 740.591 291.736C739.841 292.474 739.461 293.527 739.45 294.895L739.393 302.347C739.387 303.091 739.191 303.666 738.804 304.071C738.417 304.452 737.851 304.639 737.107 304.633ZM751.133 304.741C750.413 304.736 749.862 304.54 749.481 304.153C749.1 303.742 748.913 303.164 748.918 302.42L749.023 288.813C749.029 288.069 749.225 287.506 749.612 287.125C749.999 286.744 750.541 286.556 751.237 286.562C751.933 286.567 752.471 286.763 752.852 287.15C753.233 287.537 753.421 288.103 753.415 288.847L753.396 291.295L753.007 290.391C753.545 289.124 754.368 288.17 755.477 287.53C756.61 286.867 757.885 286.541 759.301 286.552C760.717 286.563 761.879 286.836 762.787 287.371C763.695 287.906 764.372 288.715 764.82 289.798C765.268 290.858 765.486 292.204 765.473 293.836L765.406 302.547C765.4 303.291 765.204 303.866 764.817 304.271C764.43 304.652 763.876 304.84 763.156 304.834C762.436 304.829 761.874 304.632 761.469 304.245C761.088 303.834 760.9 303.257 760.906 302.513L760.971 294.017C760.982 292.649 760.726 291.651 760.203 291.023C759.703 290.395 758.914 290.077 757.834 290.069C756.514 290.058 755.455 290.47 754.656 291.304C753.882 292.114 753.49 293.203 753.479 294.571L753.418 302.455C753.406 303.991 752.645 304.753 751.133 304.741ZM778.634 305.025C776.642 305.01 774.929 304.625 773.495 303.87C772.06 303.115 770.953 302.05 770.171 300.676C769.414 299.302 769.042 297.679 769.057 295.807C769.071 293.983 769.455 292.39 770.209 291.028C770.988 289.666 772.04 288.606 773.366 287.848C774.716 287.067 776.243 286.682 777.947 286.695C779.195 286.705 780.309 286.918 781.29 287.333C782.295 287.749 783.142 288.343 783.832 289.117C784.547 289.89 785.079 290.83 785.431 291.937C785.806 293.02 785.989 294.246 785.979 295.614C785.975 296.045 785.817 296.38 785.503 296.618C785.213 296.832 784.792 296.936 784.24 296.932L772.685 296.843L772.705 294.251L782.82 294.329L782.24 294.865C782.249 293.761 782.088 292.835 781.758 292.089C781.451 291.343 780.988 290.775 780.367 290.386C779.77 289.974 779.015 289.764 778.103 289.757C777.095 289.749 776.23 289.982 775.506 290.457C774.806 290.907 774.261 291.563 773.871 292.424C773.504 293.261 773.317 294.268 773.307 295.444L773.306 295.696C773.29 297.664 773.735 299.143 774.639 300.134C775.568 301.102 776.932 301.592 778.732 301.606C779.356 301.611 780.053 301.544 780.822 301.406C781.615 301.244 782.361 300.974 783.06 300.595C783.566 300.311 784.011 300.194 784.395 300.245C784.779 300.272 785.078 300.407 785.292 300.648C785.53 300.89 785.672 301.191 785.717 301.552C785.762 301.888 785.688 302.235 785.493 302.594C785.322 302.953 785.02 303.262 784.586 303.523C783.742 304.045 782.767 304.433 781.661 304.689C780.579 304.92 779.57 305.032 778.634 305.025ZM796.237 305.161C794.701 305.149 793.348 304.767 792.178 304.013C791.032 303.261 790.14 302.198 789.502 300.825C788.865 299.428 788.554 297.793 788.568 295.921C788.583 294.026 788.919 292.408 789.577 291.069C790.236 289.706 791.144 288.657 792.302 287.922C793.483 287.187 794.842 286.825 796.378 286.837C797.842 286.849 799.111 287.218 800.186 287.947C801.284 288.675 802.021 289.629 802.396 290.808L802 290.805L802.072 281.445C802.078 280.701 802.274 280.139 802.661 279.757C803.048 279.376 803.601 279.189 804.321 279.194C805.041 279.2 805.592 279.396 805.973 279.783C806.378 280.17 806.577 280.736 806.572 281.48L806.407 302.863C806.401 303.607 806.205 304.181 805.818 304.587C805.431 304.968 804.877 305.155 804.157 305.15C803.437 305.144 802.887 304.948 802.506 304.561C802.125 304.15 801.937 303.573 801.943 302.829L801.965 300.021L802.352 301.104C801.983 302.349 801.243 303.339 800.134 304.075C799.024 304.81 797.725 305.172 796.237 305.161ZM797.523 301.751C798.411 301.757 799.193 301.547 799.868 301.121C800.544 300.694 801.064 300.062 801.431 299.225C801.822 298.364 802.022 297.297 802.032 296.025C802.046 294.105 801.649 292.674 800.841 291.732C800.032 290.766 798.956 290.277 797.612 290.267C796.724 290.26 795.942 290.47 795.267 290.897C794.592 291.3 794.059 291.932 793.668 292.793C793.302 293.63 793.114 294.684 793.104 295.956C793.089 297.852 793.486 299.295 794.295 300.286C795.103 301.252 796.179 301.74 797.523 301.751Z" fill="white"/>
<path d="M566.235 360.576C564.827 360.565 563.689 360.241 562.821 359.604C561.952 358.917 561.449 358.04 561.312 356.971C561.175 355.902 561.475 354.716 562.213 353.411L583.551 314.555L583.524 318.049L561.54 317.88C559.939 317.868 558.729 317.47 557.91 316.687C557.091 315.856 556.687 314.688 556.699 313.183C556.71 311.679 557.132 310.542 557.963 309.772C558.794 308.953 560.011 308.55 561.612 308.562L589.347 308.776C590.9 308.788 592.158 309.21 593.123 310.042C594.135 310.875 594.636 312.044 594.624 313.548C594.614 314.859 594.411 315.998 594.016 316.965C593.669 317.933 593.199 318.973 592.609 320.085L572.669 356.986C571.979 358.242 571.123 359.158 570.1 359.732C569.076 360.307 567.788 360.588 566.235 360.576ZM631.457 360.423C629.564 360.409 628.112 359.888 627.101 358.861C626.09 357.834 625.591 356.374 625.606 354.481L625.91 314.954C625.925 313.061 626.446 311.609 627.473 310.598C628.5 309.587 629.959 309.088 631.852 309.103L649.468 309.239C653.108 309.267 656.21 309.824 658.774 310.912C661.338 311.999 663.267 313.543 664.562 315.543C665.906 317.543 666.567 319.926 666.545 322.692C666.522 325.75 665.628 328.339 663.865 330.461C662.101 332.583 659.688 333.996 656.625 334.701L656.634 333.536C660.172 334.194 662.903 335.622 664.827 337.821C666.801 339.972 667.774 342.77 667.748 346.216C667.712 350.777 666.108 354.332 662.933 356.88C659.76 359.379 655.406 360.608 649.874 360.565L631.457 360.423ZM636.399 352.089L648.41 352.182C651.322 352.204 653.461 351.663 654.829 350.557C656.196 349.403 656.889 347.709 656.906 345.477C656.923 343.245 656.257 341.565 654.907 340.438C653.556 339.312 651.425 338.737 648.514 338.715L636.502 338.622L636.399 352.089ZM636.567 330.251L647.34 330.334C650.155 330.356 652.246 329.838 653.613 328.781C654.98 327.723 655.672 326.127 655.688 323.992C655.704 321.905 655.037 320.323 653.687 319.245C652.336 318.166 650.253 317.617 647.439 317.595L636.665 317.512L636.567 330.251ZM688.763 361.665C686.142 361.645 683.793 361.117 681.714 360.082C679.635 359.047 678.02 357.651 676.868 355.895C675.717 354.139 675.15 352.169 675.167 349.986C675.187 347.365 675.882 345.308 677.253 343.814C678.623 342.271 680.84 341.196 683.902 340.589C686.965 339.933 691.02 339.625 696.067 339.663L699.925 339.693L699.881 345.371L696.096 345.342C693.621 345.323 691.606 345.453 690.05 345.732C688.544 345.963 687.449 346.392 686.765 347.017C686.129 347.643 685.807 348.514 685.798 349.631C685.788 350.989 686.24 352.109 687.155 352.99C688.119 353.871 689.499 354.318 691.295 354.332C692.702 354.343 693.942 354.037 695.014 353.414C696.136 352.743 697.016 351.852 697.656 350.741C698.296 349.581 698.621 348.273 698.632 346.817L698.697 338.446C698.713 336.311 698.24 334.803 697.276 333.922C696.312 332.992 694.666 332.518 692.336 332.5C691.026 332.49 689.593 332.649 688.038 332.977C686.531 333.256 684.853 333.753 683.003 334.467C681.932 334.944 680.984 335.058 680.161 334.809C679.338 334.511 678.711 334.021 678.28 333.339C677.849 332.607 677.636 331.829 677.642 331.004C677.649 330.131 677.898 329.307 678.389 328.535C678.881 327.713 679.687 327.113 680.806 326.733C683.094 325.829 685.234 325.214 687.226 324.89C689.267 324.566 691.137 324.41 692.835 324.424C696.572 324.452 699.625 325.034 701.995 326.168C704.413 327.255 706.22 328.943 707.416 331.233C708.612 333.475 709.196 336.367 709.169 339.91L709.044 356.07C709.03 357.866 708.583 359.246 707.702 360.21C706.821 361.173 705.555 361.649 703.905 361.636C702.255 361.624 700.973 361.128 700.059 360.151C699.192 359.173 698.766 357.787 698.78 355.991L698.801 353.298L699.307 353.739C699.003 355.386 698.361 356.813 697.381 358.019C696.45 359.176 695.254 360.089 693.793 360.758C692.332 361.377 690.656 361.68 688.763 361.665ZM724.189 361.792C722.393 361.779 721.014 361.283 720.051 360.305C719.136 359.327 718.686 357.94 718.7 356.145L718.899 330.303C718.913 328.507 719.384 327.152 720.313 326.237C721.291 325.274 722.63 324.799 724.328 324.812C726.075 324.825 727.406 325.321 728.321 326.298C729.236 327.227 729.686 328.59 729.672 330.385L729.64 334.535L728.858 332.126C729.993 329.757 731.657 327.95 733.85 326.705C736.093 325.412 738.621 324.776 741.436 324.798C744.299 324.82 746.649 325.396 748.484 326.526C750.32 327.608 751.691 329.269 752.595 331.508C753.501 333.699 753.94 336.493 753.914 339.89L753.787 356.415C753.773 358.21 753.277 359.59 752.299 360.553C751.369 361.516 750.007 361.991 748.211 361.977C746.464 361.964 745.109 361.468 744.146 360.49C743.231 359.512 742.781 358.126 742.795 356.33L742.918 340.315C742.937 337.84 742.49 336.065 741.576 334.991C740.711 333.868 739.356 333.299 737.512 333.285C735.183 333.267 733.309 333.981 731.89 335.426C730.52 336.871 729.826 338.807 729.807 341.234L729.692 356.229C729.663 359.966 727.829 361.82 724.189 361.792ZM775.488 362.333C772.868 362.313 770.518 361.785 768.439 360.75C766.36 359.715 764.745 358.319 763.594 356.563C762.442 354.807 761.875 352.837 761.892 350.653C761.912 348.033 762.607 345.975 763.978 344.481C765.349 342.939 767.565 341.864 770.627 341.257C773.69 340.601 777.745 340.292 782.792 340.331L786.65 340.361L786.606 346.039L782.821 346.01C780.346 345.991 778.331 346.121 776.776 346.4C775.269 346.631 774.174 347.059 773.49 347.685C772.854 348.311 772.532 349.182 772.523 350.298C772.513 351.657 772.965 352.777 773.881 353.658C774.845 354.539 776.224 354.986 778.02 355C779.427 355.011 780.667 354.705 781.74 354.082C782.861 353.411 783.742 352.52 784.381 351.409C785.021 350.249 785.346 348.941 785.358 347.485L785.422 339.114C785.439 336.978 784.965 335.47 784.001 334.589C783.038 333.66 781.391 333.186 779.062 333.168C777.751 333.158 776.318 333.317 774.763 333.645C773.256 333.924 771.578 334.421 769.728 335.135C768.657 335.612 767.71 335.726 766.886 335.477C766.064 335.179 765.436 334.689 765.005 334.006C764.574 333.275 764.361 332.497 764.368 331.672C764.374 330.798 764.623 329.975 765.115 329.202C765.606 328.381 766.412 327.781 767.531 327.401C769.819 326.496 771.959 325.882 773.951 325.558C775.992 325.234 777.862 325.078 779.561 325.091C783.297 325.12 786.35 325.702 788.72 326.836C791.138 327.922 792.945 329.611 794.141 331.901C795.337 334.143 795.921 337.035 795.894 340.578L795.77 356.738C795.756 358.534 795.308 359.913 794.427 360.877C793.546 361.841 792.281 362.317 790.631 362.304C788.981 362.291 787.698 361.796 786.784 360.818C785.918 359.841 785.492 358.455 785.505 356.659L785.526 353.966L786.032 354.406C785.729 356.054 785.087 357.481 784.107 358.687C783.176 359.844 781.98 360.757 780.518 361.425C779.058 362.045 777.381 362.348 775.488 362.333ZM810.914 362.46C809.119 362.446 807.739 361.95 806.776 360.972C805.862 359.995 805.411 358.608 805.425 356.812L805.624 330.97C805.638 329.175 806.109 327.819 807.039 326.904C808.017 325.941 809.355 325.466 811.053 325.479C812.801 325.493 814.131 325.988 815.046 326.966C815.961 327.895 816.411 329.258 816.398 331.053L816.366 335.202L815.583 332.794C816.718 330.425 818.382 328.618 820.576 327.373C822.818 326.079 825.347 325.444 828.161 325.465C831.025 325.487 833.374 326.064 835.21 327.194C837.045 328.276 838.416 329.937 839.321 332.176C840.226 334.367 840.666 337.161 840.639 340.558L840.512 357.083C840.498 358.878 840.002 360.257 839.024 361.221C838.095 362.184 836.732 362.659 834.937 362.645C833.19 362.632 831.834 362.136 830.871 361.158C829.957 360.18 829.506 358.794 829.52 356.998L829.643 340.983C829.662 338.508 829.215 336.733 828.301 335.658C827.436 334.535 826.082 333.967 824.238 333.953C821.908 333.935 820.034 334.648 818.616 336.093C817.246 337.539 816.551 339.475 816.533 341.901L816.417 356.897C816.388 360.634 814.554 362.488 810.914 362.46ZM862.214 363.001C859.593 362.981 857.243 362.453 855.164 361.418C853.085 360.382 851.47 358.987 850.319 357.231C849.168 355.475 848.6 353.505 848.617 351.321C848.637 348.7 849.333 346.643 850.703 345.149C852.074 343.607 854.29 342.532 857.353 341.924C860.415 341.269 864.47 340.96 869.517 340.999L873.375 341.029L873.332 346.707L869.546 346.677C867.071 346.658 865.056 346.788 863.501 347.068C861.995 347.299 860.899 347.727 860.215 348.353C859.579 348.979 859.257 349.85 859.249 350.966C859.238 352.325 859.691 353.445 860.606 354.325C861.57 355.206 862.95 355.654 864.745 355.668C866.153 355.678 867.393 355.372 868.465 354.75C869.586 354.079 870.467 353.188 871.106 352.077C871.746 350.917 872.072 349.609 872.083 348.153L872.147 339.782C872.164 337.646 871.69 336.138 870.726 335.257C869.763 334.328 868.116 333.854 865.787 333.836C864.477 333.826 863.044 333.985 861.488 334.312C859.981 334.592 858.303 335.089 856.453 335.802C855.382 336.279 854.435 336.393 853.612 336.144C852.789 335.847 852.162 335.357 851.73 334.674C851.299 333.943 851.087 333.165 851.093 332.34C851.1 331.466 851.349 330.643 851.84 329.87C852.332 329.049 853.137 328.448 854.256 328.069C856.544 327.164 858.684 326.55 860.677 326.225C862.718 325.901 864.587 325.746 866.286 325.759C870.023 325.788 873.076 326.369 875.445 327.504C877.863 328.59 879.67 330.279 880.866 332.569C882.062 334.81 882.647 337.703 882.619 341.245L882.495 357.406C882.481 359.201 882.034 360.581 881.153 361.545C880.272 362.509 879.006 362.984 877.356 362.972C875.706 362.959 874.424 362.464 873.509 361.486C872.643 360.509 872.217 359.122 872.231 357.327L872.251 354.633L872.758 355.074C872.454 356.722 871.812 358.149 870.832 359.354C869.901 360.512 868.705 361.425 867.244 362.093C865.783 362.713 864.106 363.015 862.214 363.001ZM897.916 331.026C897.181 331.942 896.4 332.446 895.575 332.536C894.749 332.627 894.022 332.476 893.394 332.083C892.815 331.642 892.504 331.008 892.462 330.183C892.42 329.357 892.791 328.487 893.574 327.571C894.652 326.269 895.39 324.964 895.789 323.657C896.187 322.349 896.39 321.186 896.398 320.167L896.739 323.154C894.798 323.139 893.225 322.569 892.02 321.444C890.815 320.318 890.22 318.809 890.235 316.916C890.249 315.072 890.819 313.596 891.943 312.489C893.069 311.333 894.602 310.762 896.543 310.777C898.533 310.792 900.081 311.459 901.187 312.778C902.293 314.097 902.836 315.97 902.818 318.396C902.808 319.658 902.677 320.967 902.423 322.324C902.171 323.633 901.699 325.012 901.008 326.463C900.318 327.865 899.287 329.386 897.916 331.026ZM922.958 363.468C920.823 363.452 918.616 363.241 916.338 362.835C914.109 362.43 912.076 361.759 910.239 360.823C909.272 360.33 908.573 359.718 908.141 358.986C907.759 358.207 907.595 357.429 907.65 356.653C907.704 355.877 907.952 355.175 908.394 354.548C908.884 353.92 909.494 353.513 910.223 353.324C911.002 353.087 911.85 353.167 912.77 353.562C914.753 354.402 916.568 354.999 918.216 355.351C919.863 355.704 921.488 355.886 923.089 355.898C925.176 355.914 926.683 355.611 927.61 354.987C928.585 354.315 929.077 353.445 929.086 352.377C929.093 351.407 928.783 350.676 928.156 350.186C927.529 349.696 926.61 349.349 925.398 349.146L917.765 347.704C914.76 347.147 912.439 346.037 910.802 344.374C909.214 342.663 908.429 340.498 908.45 337.877C908.468 335.451 909.164 333.369 910.536 331.632C911.909 329.847 913.788 328.503 916.173 327.599C918.607 326.647 921.352 326.183 924.41 326.206C926.593 326.223 928.606 326.433 930.447 326.835C932.288 327.238 934.055 327.882 935.747 328.769C936.617 329.212 937.219 329.799 937.553 330.53C937.936 331.261 938.051 332.014 937.9 332.789C937.797 333.565 937.5 334.267 937.01 334.894C936.52 335.521 935.886 335.929 935.108 336.117C934.378 336.305 933.53 336.202 932.562 335.806C931.015 335.066 929.587 334.545 928.279 334.244C926.971 333.894 925.711 333.715 924.498 333.705C922.314 333.689 920.734 334.04 919.757 334.761C918.782 335.433 918.29 336.303 918.281 337.37C918.275 338.195 918.537 338.901 919.066 339.488C919.644 340.026 920.515 340.397 921.678 340.6L929.311 342.042C932.461 342.6 934.855 343.686 936.493 345.3C938.131 346.866 938.94 349.007 938.919 351.725C938.89 355.413 937.412 358.314 934.484 360.427C931.604 362.492 927.762 363.505 922.958 363.468Z" fill="white"/>
<g filter="url(#filter4_d_8272_172)">
<rect x="540.131" y="706.438" width="414.032" height="90.9961" rx="30.332" transform="rotate(0.441137 540.131 706.438)" fill="#FFDF6D"/>
</g>
<g filter="url(#filter5_d_8272_172)">
<rect x="546.161" y="711.034" width="401.9" height="75.8301" rx="30.332" transform="rotate(0.441137 546.161 711.034)" fill="#FFCF25"/>
</g>
<path d="M558.136 731.811C558.204 722.9 565.483 715.733 574.393 715.802L919.75 718.461C928.66 718.529 935.827 725.808 935.758 734.717C935.686 744.045 927.798 751.381 918.492 750.75C883.766 748.397 803.623 743.363 747.45 742.917C690.875 742.468 610.065 746.286 575.152 748.108C565.837 748.595 558.064 741.138 558.136 731.811Z" fill="#FFD84C"/>
<path d="M653.665 770.902C652.662 770.894 651.888 770.613 651.342 770.059C650.829 769.473 650.577 768.662 650.585 767.626L650.698 752.873L651.98 756.62L640.411 740.079C639.995 739.493 639.805 738.877 639.842 738.23C639.912 737.551 640.192 736.987 640.681 736.538C641.17 736.056 641.851 735.819 642.724 735.826C643.371 735.831 643.953 735.997 644.468 736.324C645.015 736.652 645.529 737.158 646.009 737.841L654.601 750.234L653.242 750.224L662.073 737.964C662.596 737.257 663.101 736.759 663.589 736.472C664.076 736.152 664.676 735.995 665.388 736C666.229 736.007 666.874 736.238 667.324 736.694C667.806 737.119 668.044 737.654 668.039 738.301C668.067 738.949 667.835 739.626 667.344 740.335L655.619 756.648L656.91 752.921L656.796 767.674C656.78 769.842 655.736 770.918 653.665 770.902ZM672.482 771.047C671.706 771.041 671.076 770.858 670.594 770.498C670.143 770.139 669.872 769.668 669.779 769.085C669.687 768.469 669.806 767.791 670.135 767.049L683.165 738.758C683.593 737.823 684.1 737.163 684.685 736.78C685.303 736.364 686 736.159 686.777 736.165C687.521 736.17 688.182 736.386 688.761 736.811C689.373 737.204 689.886 737.871 690.299 738.813L702.941 767.302C703.291 768.048 703.415 768.729 703.313 769.343C703.212 769.957 702.933 770.44 702.477 770.792C702.022 771.112 701.422 771.27 700.678 771.264C699.772 771.257 699.062 771.041 698.547 770.617C698.066 770.16 697.634 769.477 697.253 768.568L694.155 761.216L696.762 762.935L676.283 762.777L678.916 761.099L675.754 768.403C675.326 769.338 674.884 770.014 674.428 770.431C673.972 770.848 673.323 771.053 672.482 771.047ZM686.625 743.298L679.706 759.406L678.456 757.843L694.665 757.968L693.44 759.512L686.722 743.299L686.625 743.298ZM719.251 771.407C718.248 771.399 717.474 771.118 716.928 770.564C716.415 769.978 716.162 769.167 716.17 768.131L716.284 753.378L717.565 757.125L705.996 740.584C705.58 739.998 705.391 739.382 705.428 738.735C705.498 738.056 705.777 737.492 706.266 737.043C706.755 736.561 707.436 736.324 708.31 736.331C708.957 736.335 709.538 736.502 710.053 736.829C710.601 737.157 711.114 737.662 711.595 738.346L720.186 750.739L718.828 750.729L727.658 738.469C728.181 737.762 728.686 737.264 729.174 736.976C729.662 736.657 730.262 736.5 730.973 736.505C731.814 736.511 732.46 736.743 732.909 737.199C733.391 737.624 733.63 738.159 733.625 738.806C733.652 739.454 733.421 740.131 732.93 740.839L721.205 757.153L722.495 753.426L722.382 768.179C722.365 770.347 721.321 771.423 719.251 771.407ZM740.702 776.377C740.277 776.891 739.822 777.179 739.336 777.24C738.883 777.333 738.479 777.249 738.125 776.988C737.771 776.726 737.58 776.353 737.551 775.867C737.522 775.414 737.737 774.914 738.194 774.368C738.847 773.564 739.29 772.758 739.523 771.951C739.755 771.144 739.874 770.417 739.879 769.77L740.109 771.422C738.977 771.413 738.057 771.082 737.35 770.43C736.676 769.745 736.343 768.853 736.352 767.753C736.36 766.718 736.69 765.879 737.342 765.237C737.994 764.562 738.87 764.229 739.97 764.238C741.103 764.247 741.989 764.642 742.631 765.423C743.272 766.172 743.587 767.259 743.576 768.682C743.57 769.459 743.483 770.267 743.315 771.107C743.179 771.915 742.898 772.754 742.47 773.624C742.075 774.527 741.486 775.444 740.702 776.377ZM784.004 772.002C780.704 771.977 777.814 771.227 775.334 769.752C772.886 768.277 770.993 766.224 769.655 763.593C768.316 760.929 767.661 757.818 767.688 754.259C767.709 751.574 768.116 749.167 768.908 747.037C769.702 744.876 770.816 743.04 772.251 741.53C773.719 739.989 775.459 738.821 777.471 738.028C779.516 737.202 781.784 736.799 784.275 736.818C787.607 736.844 790.497 737.594 792.945 739.069C795.393 740.512 797.286 742.548 798.625 745.179C799.963 747.81 800.619 750.905 800.592 754.464C800.571 757.15 800.164 759.573 799.371 761.735C798.578 763.896 797.447 765.748 795.979 767.29C794.544 768.832 792.804 770.016 790.759 770.841C788.747 771.635 786.495 772.022 784.004 772.002ZM784.045 766.664C786.148 766.68 787.931 766.209 789.395 765.249C790.89 764.29 792.034 762.892 792.824 761.053C793.647 759.216 794.069 757.019 794.088 754.463C794.118 750.58 793.268 747.565 791.537 745.416C789.839 743.267 787.404 742.181 784.234 742.157C782.163 742.141 780.38 742.612 778.884 743.571C777.389 744.498 776.23 745.881 775.407 747.718C774.616 749.524 774.211 751.721 774.191 754.31C774.161 758.16 775.012 761.175 776.742 763.356C778.473 765.537 780.907 766.64 784.045 766.664ZM812.791 772.127C811.788 772.119 811.013 771.838 810.467 771.284C809.954 770.698 809.702 769.903 809.709 768.9L809.93 740.268C809.938 739.232 810.203 738.458 810.724 737.944C811.278 737.398 812.057 737.129 813.06 737.137C814.063 737.145 814.821 737.426 815.335 737.98C815.881 738.501 816.15 739.28 816.142 740.315L816.046 752.69L816.143 752.691L830.179 738.822C830.701 738.308 831.221 737.924 831.741 737.669C832.261 737.414 832.844 737.289 833.491 737.294C834.429 737.302 835.091 737.549 835.475 738.038C835.892 738.526 836.049 739.094 835.947 739.74C835.878 740.386 835.566 740.983 835.011 741.528L820.733 755.444L820.803 752.63L835.489 767.788C836.163 768.441 836.514 769.123 836.541 769.835C836.568 770.547 836.337 771.144 835.847 771.625C835.391 772.075 834.71 772.296 833.804 772.289C833.028 772.283 832.398 772.116 831.915 771.789C831.465 771.462 830.934 770.989 830.324 770.369L816.118 755.943L816.021 755.942L815.921 768.948C815.913 769.951 815.648 770.742 815.126 771.32C814.604 771.866 813.826 772.135 812.791 772.127ZM848.464 762.161C847.849 762.157 847.365 761.959 847.012 761.568C846.692 761.177 846.502 760.626 846.443 759.913L845.13 741.364C845.042 740.166 845.308 739.213 845.928 738.506C846.549 737.767 847.457 737.402 848.654 737.411C849.819 737.42 850.69 737.799 851.266 738.547C851.876 739.264 852.127 740.22 852.021 741.417L850.422 759.944C850.384 760.655 850.186 761.204 849.827 761.589C849.501 761.975 849.046 762.166 848.464 762.161ZM848.386 772.256C847.286 772.247 846.399 771.9 845.725 771.216C845.083 770.531 844.766 769.655 844.774 768.588C844.782 767.552 845.112 766.714 845.764 766.072C846.449 765.397 847.341 765.065 848.441 765.073C849.574 765.082 850.445 765.428 851.054 766.112C851.696 766.764 852.013 767.608 852.005 768.643C851.997 769.711 851.667 770.582 851.015 771.257C850.395 771.931 849.518 772.264 848.386 772.256Z" fill="white"/>
<path d="M651.342 770.059L650.772 770.558L650.786 770.575L650.802 770.591L651.342 770.059ZM650.698 752.873L651.416 752.628L649.94 752.868L650.698 752.873ZM651.98 756.62L651.358 757.055L652.697 756.375L651.98 756.62ZM640.411 740.079L641.032 739.644L641.029 739.639L640.411 740.079ZM639.842 738.23L639.088 738.152L639.086 738.169L639.085 738.186L639.842 738.23ZM640.681 736.538L641.194 737.096L641.203 737.087L641.213 737.078L640.681 736.538ZM644.468 736.324L644.061 736.964L644.07 736.97L644.078 736.975L644.468 736.324ZM646.009 737.841L646.632 737.409L646.63 737.405L646.009 737.841ZM654.601 750.234L654.595 750.992L656.057 751.004L655.224 749.802L654.601 750.234ZM653.242 750.224L652.627 749.78L651.77 750.971L653.236 750.982L653.242 750.224ZM662.073 737.964L661.463 737.514L661.457 737.521L662.073 737.964ZM663.589 736.472L663.974 737.125L663.989 737.116L664.004 737.106L663.589 736.472ZM667.324 736.694L666.784 737.226L666.802 737.246L666.823 737.264L667.324 736.694ZM668.039 738.301L667.281 738.296L667.281 738.315L667.282 738.334L668.039 738.301ZM667.344 740.335L667.96 740.777L667.968 740.767L667.344 740.335ZM655.619 756.648L654.903 756.4L656.235 757.091L655.619 756.648ZM656.91 752.921L657.668 752.927L656.193 752.673L656.91 752.921ZM653.671 770.144C652.809 770.137 652.25 769.9 651.883 769.527L650.802 770.591C651.527 771.327 652.516 771.651 653.66 771.66L653.671 770.144ZM651.913 769.56C651.558 769.153 651.336 768.544 651.343 767.632L649.826 767.621C649.817 768.78 650.101 769.792 650.772 770.558L651.913 769.56ZM651.343 767.632L651.456 752.879L649.94 752.868L649.826 767.621L651.343 767.632ZM649.981 753.119L651.262 756.866L652.697 756.375L651.416 752.628L649.981 753.119ZM652.601 756.186L641.032 739.644L639.789 740.513L651.358 757.055L652.601 756.186ZM641.029 739.639C640.701 739.178 640.573 738.73 640.6 738.274L639.085 738.186C639.037 739.024 639.288 739.808 639.793 740.518L641.029 739.639ZM640.597 738.308C640.648 737.807 640.845 737.416 641.194 737.096L640.167 735.979C639.538 736.558 639.177 737.295 639.088 738.152L640.597 738.308ZM641.213 737.078C641.522 736.773 641.989 736.578 642.719 736.584L642.73 735.067C641.713 735.059 640.817 735.339 640.149 735.997L641.213 737.078ZM642.719 736.584C643.232 736.588 643.673 736.718 644.061 736.964L644.875 735.684C644.232 735.276 643.511 735.073 642.73 735.067L642.719 736.584ZM644.078 736.975C644.511 737.234 644.952 737.655 645.389 738.277L646.63 737.405C646.106 736.66 645.519 736.07 644.857 735.674L644.078 736.975ZM645.386 738.273L653.978 750.666L655.224 749.802L646.632 737.409L645.386 738.273ZM654.607 749.476L653.248 749.465L653.236 750.982L654.595 750.992L654.607 749.476ZM653.858 750.667L662.688 738.408L661.457 737.521L652.627 749.78L653.858 750.667ZM662.682 738.415C663.175 737.749 663.609 737.34 663.974 737.125L663.203 735.818C662.593 736.178 662.016 736.765 661.463 737.514L662.682 738.415ZM664.004 737.106C664.342 736.884 664.787 736.754 665.382 736.758L665.394 735.242C664.566 735.235 663.811 735.419 663.173 735.837L664.004 737.106ZM665.382 736.758C666.088 736.764 666.515 736.954 666.784 737.226L667.864 736.162C667.233 735.522 666.371 735.249 665.394 735.242L665.382 736.758ZM666.823 737.264C667.138 737.541 667.284 737.867 667.281 738.296L668.798 738.307C668.804 737.442 668.473 736.696 667.825 736.125L666.823 737.264ZM667.282 738.334C667.3 738.769 667.149 739.286 666.721 739.903L667.968 740.767C668.522 739.967 668.833 739.129 668.797 738.269L667.282 738.334ZM666.729 739.892L655.004 756.206L656.235 757.091L667.96 740.777L666.729 739.892ZM656.336 756.896L657.627 753.169L656.193 752.673L654.903 756.4L656.336 756.896ZM656.152 752.915L656.038 767.668L657.555 767.68L657.668 752.927L656.152 752.915ZM656.038 767.668C656.031 768.644 655.793 769.233 655.457 769.579C655.127 769.919 654.581 770.151 653.671 770.144L653.66 771.66C654.821 771.669 655.831 771.371 656.545 770.635C657.253 769.905 657.545 768.872 657.555 767.68L656.038 767.668ZM670.594 770.498L670.12 771.091L670.13 771.099L670.14 771.106L670.594 770.498ZM669.779 769.085L669.029 769.197L669.03 769.204L669.779 769.085ZM670.135 767.049L669.446 766.732L669.442 766.741L670.135 767.049ZM683.165 738.758L683.854 739.075L683.855 739.073L683.165 738.758ZM684.685 736.78L685.101 737.414L685.108 737.409L684.685 736.78ZM688.761 736.811L688.313 737.422L688.332 737.436L688.352 737.449L688.761 736.811ZM690.299 738.813L689.605 739.117L689.606 739.12L690.299 738.813ZM702.941 767.302L702.248 767.609L702.251 767.616L702.254 767.623L702.941 767.302ZM703.313 769.343L702.565 769.219L703.313 769.343ZM702.477 770.792L702.913 771.413L702.927 771.403L702.941 771.392L702.477 770.792ZM698.547 770.617L698.026 771.167L698.045 771.185L698.065 771.201L698.547 770.617ZM697.253 768.568L697.952 768.275L697.952 768.274L697.253 768.568ZM694.155 761.216L694.572 760.583L692.486 759.207L693.456 761.51L694.155 761.216ZM696.762 762.935L696.757 763.693L699.321 763.713L697.18 762.301L696.762 762.935ZM676.283 762.777L675.875 762.137L673.713 763.515L676.277 763.535L676.283 762.777ZM678.916 761.099L679.612 761.4L680.595 759.129L678.509 760.459L678.916 761.099ZM675.754 768.403L676.444 768.718L676.447 768.711L676.45 768.704L675.754 768.403ZM674.428 770.431L673.916 769.871L674.428 770.431ZM686.625 743.298L686.63 742.54L686.127 742.536L685.928 742.999L686.625 743.298ZM679.706 759.406L679.114 759.88L679.904 760.867L680.403 759.705L679.706 759.406ZM678.456 757.843L678.462 757.085L676.869 757.073L677.864 758.317L678.456 757.843ZM694.665 757.968L695.259 758.44L696.226 757.222L694.671 757.21L694.665 757.968ZM693.44 759.512L692.739 759.802L693.233 760.993L694.034 759.983L693.44 759.512ZM686.722 743.299L687.422 743.008L687.23 742.544L686.728 742.54L686.722 743.299ZM672.488 770.288C671.826 770.283 671.367 770.129 671.047 769.89L670.14 771.106C670.785 771.587 671.585 771.798 672.476 771.805L672.488 770.288ZM671.067 769.906C670.768 769.668 670.592 769.367 670.528 768.966L669.03 769.204C669.152 769.968 669.518 770.61 670.12 771.091L671.067 769.906ZM670.529 768.972C670.464 768.537 670.54 768.006 670.828 767.357L669.442 766.741C669.071 767.575 668.91 768.402 669.029 769.197L670.529 768.972ZM670.824 767.366L683.854 739.075L682.476 738.44L669.446 766.732L670.824 767.366ZM683.855 739.073C684.249 738.211 684.678 737.691 685.101 737.414L684.269 736.145C683.521 736.636 682.937 737.435 682.476 738.442L683.855 739.073ZM685.108 737.409C685.594 737.082 686.14 736.918 686.771 736.923L686.782 735.406C685.86 735.399 685.012 735.645 684.262 736.15L685.108 737.409ZM686.771 736.923C687.362 736.928 687.867 737.095 688.313 737.422L689.21 736.2C688.498 735.677 687.68 735.413 686.782 735.406L686.771 736.923ZM688.352 737.449C688.796 737.734 689.228 738.258 689.605 739.117L690.993 738.508C690.544 737.484 689.951 736.674 689.171 736.173L688.352 737.449ZM689.606 739.12L702.248 767.609L703.634 766.994L690.992 738.505L689.606 739.12ZM702.254 767.623C702.56 768.276 702.635 768.798 702.565 769.219L704.062 769.467C704.195 768.659 704.022 767.821 703.628 766.98L702.254 767.623ZM702.565 769.219C702.492 769.661 702.305 769.967 702.013 770.193L702.941 771.392C703.561 770.913 703.931 770.253 704.062 769.467L702.565 769.219ZM702.041 770.172C701.752 770.375 701.322 770.51 700.684 770.506L700.672 772.022C701.522 772.029 702.291 771.85 702.913 771.413L702.041 770.172ZM700.684 770.506C699.89 770.499 699.369 770.311 699.03 770.032L698.065 771.201C698.755 771.771 699.654 772.014 700.672 772.022L700.684 770.506ZM699.069 770.066C698.691 769.708 698.311 769.13 697.952 768.275L696.554 768.861C696.958 769.825 697.44 770.611 698.026 771.167L699.069 770.066ZM697.952 768.274L694.854 760.921L693.456 761.51L696.554 768.863L697.952 768.274ZM693.738 761.849L696.345 763.568L697.18 762.301L694.572 760.583L693.738 761.849ZM696.768 762.176L676.289 762.019L676.277 763.535L696.757 763.693L696.768 762.176ZM676.69 763.416L679.324 761.738L678.509 760.459L675.875 762.137L676.69 763.416ZM678.221 760.797L675.058 768.101L676.45 768.704L679.612 761.4L678.221 760.797ZM675.065 768.087C674.655 768.983 674.264 769.554 673.916 769.871L674.94 770.99C675.505 770.474 675.998 769.692 676.444 768.718L675.065 768.087ZM673.916 769.871C673.646 770.119 673.208 770.294 672.488 770.288L672.476 771.805C673.439 771.812 674.298 771.577 674.94 770.99L673.916 769.871ZM685.928 742.999L679.009 759.107L680.403 759.705L687.321 743.597L685.928 742.999ZM680.298 758.932L679.048 757.37L677.864 758.317L679.114 759.88L680.298 758.932ZM678.45 758.602L694.659 758.726L694.671 757.21L678.462 757.085L678.45 758.602ZM694.071 757.497L692.846 759.04L694.034 759.983L695.259 758.44L694.071 757.497ZM694.141 759.221L687.422 743.008L686.021 743.589L692.739 759.802L694.141 759.221ZM686.728 742.54L686.63 742.54L686.619 744.056L686.716 744.057L686.728 742.54ZM716.928 770.564L716.357 771.063L716.372 771.08L716.387 771.096L716.928 770.564ZM716.284 753.378L717.001 753.133L715.525 753.373L716.284 753.378ZM717.565 757.125L716.944 757.56L718.283 756.88L717.565 757.125ZM705.996 740.584L706.617 740.149L706.614 740.144L705.996 740.584ZM705.428 738.735L704.674 738.657L704.672 738.674L704.671 738.691L705.428 738.735ZM706.266 737.043L706.779 737.601L706.789 737.592L706.798 737.583L706.266 737.043ZM710.053 736.829L709.646 737.469L709.655 737.475L709.664 737.48L710.053 736.829ZM711.595 738.346L712.218 737.914L712.215 737.91L711.595 738.346ZM720.186 750.739L720.181 751.497L721.643 751.509L720.81 750.307L720.186 750.739ZM718.828 750.729L718.212 750.285L717.355 751.476L718.822 751.487L718.828 750.729ZM727.658 738.469L727.048 738.019L727.043 738.026L727.658 738.469ZM729.174 736.976L729.559 737.63L729.575 737.621L729.59 737.611L729.174 736.976ZM732.909 737.199L732.369 737.731L732.388 737.751L732.408 737.769L732.909 737.199ZM733.625 738.806L732.867 738.801L732.866 738.82L732.867 738.838L733.625 738.806ZM732.93 740.839L733.546 741.282L733.553 741.271L732.93 740.839ZM721.205 757.153L720.488 756.905L721.821 757.596L721.205 757.153ZM722.495 753.426L723.254 753.432L721.779 753.178L722.495 753.426ZM719.257 770.649C718.394 770.642 717.835 770.405 717.468 770.032L716.387 771.096C717.112 771.832 718.102 772.156 719.245 772.165L719.257 770.649ZM717.498 770.064C717.143 769.658 716.921 769.049 716.928 768.137L715.412 768.126C715.403 769.285 715.686 770.297 716.357 771.063L717.498 770.064ZM716.928 768.137L717.042 753.384L715.525 753.373L715.412 768.126L716.928 768.137ZM715.566 753.624L716.848 757.371L718.283 756.88L717.001 753.133L715.566 753.624ZM718.186 756.691L706.617 740.149L705.375 741.018L716.944 757.56L718.186 756.691ZM706.614 740.144C706.286 739.683 706.159 739.235 706.185 738.779L704.671 738.691C704.623 739.529 704.874 740.313 705.378 741.023L706.614 740.144ZM706.182 738.813C706.234 738.312 706.431 737.921 706.779 737.601L705.753 736.484C705.124 737.063 704.762 737.8 704.674 738.657L706.182 738.813ZM706.798 737.583C707.107 737.278 707.574 737.083 708.304 737.089L708.316 735.572C707.299 735.564 706.403 735.844 705.734 736.502L706.798 737.583ZM708.304 737.089C708.818 737.093 709.258 737.223 709.646 737.469L710.46 736.189C709.818 735.781 709.096 735.578 708.316 735.572L708.304 737.089ZM709.664 737.48C710.097 737.739 710.537 738.16 710.974 738.782L712.215 737.91C711.692 737.165 711.105 736.575 710.443 736.179L709.664 737.48ZM710.971 738.778L719.563 751.171L720.81 750.307L712.218 737.914L710.971 738.778ZM720.192 749.981L718.833 749.97L718.822 751.487L720.181 751.497L720.192 749.981ZM719.443 751.172L728.273 738.913L727.043 738.026L718.212 750.285L719.443 751.172ZM728.268 738.92C728.76 738.254 729.194 737.845 729.559 737.63L728.789 736.323C728.179 736.683 727.602 737.27 727.048 738.019L728.268 738.92ZM729.59 737.611C729.927 737.389 730.372 737.259 730.967 737.263L730.979 735.747C730.151 735.74 729.396 735.924 728.758 736.342L729.59 737.611ZM730.967 737.263C731.673 737.269 732.101 737.459 732.369 737.731L733.45 736.667C732.819 736.027 731.956 735.754 730.979 735.747L730.967 737.263ZM732.408 737.769C732.724 738.046 732.87 738.372 732.867 738.801L734.383 738.812C734.39 737.947 734.059 737.201 733.41 736.63L732.408 737.769ZM732.867 738.838C732.886 739.274 732.734 739.791 732.307 740.407L733.553 741.271C734.107 740.472 734.419 739.634 734.382 738.774L732.867 738.838ZM732.314 740.397L720.589 756.711L721.821 757.596L733.546 741.282L732.314 740.397ZM721.921 757.401L723.212 753.674L721.779 753.178L720.488 756.905L721.921 757.401ZM721.737 753.42L721.624 768.173L723.14 768.185L723.254 753.432L721.737 753.42ZM721.624 768.173C721.616 769.149 721.378 769.738 721.042 770.084C720.713 770.424 720.166 770.656 719.257 770.649L719.245 772.165C720.406 772.174 721.417 771.876 722.131 771.14C722.839 770.41 723.131 769.377 723.14 768.185L721.624 768.173ZM740.702 776.377L740.121 775.889L740.117 775.894L740.702 776.377ZM739.336 777.24L739.242 776.487L739.212 776.491L739.183 776.497L739.336 777.24ZM737.551 775.867L738.308 775.823L738.308 775.819L737.551 775.867ZM738.194 774.368L738.775 774.854L738.782 774.846L738.194 774.368ZM739.523 771.951L740.251 772.161L739.523 771.951ZM739.879 769.77L740.63 769.665L739.121 769.764L739.879 769.77ZM740.109 771.422L740.103 772.18L740.981 772.187L740.86 771.317L740.109 771.422ZM737.35 770.43L736.81 770.962L736.823 770.975L736.836 770.987L737.35 770.43ZM737.342 765.237L737.874 765.777L737.881 765.771L737.887 765.764L737.342 765.237ZM742.631 765.423L742.044 765.904L742.049 765.91L742.054 765.916L742.631 765.423ZM743.315 771.107L742.571 770.958L742.569 770.97L742.567 770.981L743.315 771.107ZM742.47 773.624L741.79 773.29L741.782 773.305L741.776 773.32L742.47 773.624ZM740.117 775.894C739.77 776.314 739.475 776.458 739.242 776.487L739.431 777.992C740.169 777.9 740.784 777.468 741.287 776.859L740.117 775.894ZM739.183 776.497C738.928 776.55 738.746 776.504 738.576 776.378L737.674 777.598C738.212 777.995 738.837 778.117 739.49 777.982L739.183 776.497ZM738.576 776.378C738.423 776.265 738.325 776.11 738.308 775.823L736.794 775.912C736.835 776.595 737.119 777.187 737.674 777.598L738.576 776.378ZM738.308 775.819C738.297 775.645 738.375 775.333 738.775 774.854L737.612 773.881C737.098 774.495 736.748 775.183 736.794 775.915L738.308 775.819ZM738.782 774.846C739.485 773.981 739.985 773.086 740.251 772.161L738.794 771.741C738.595 772.43 738.209 773.147 737.605 773.889L738.782 774.846ZM740.251 772.161C740.498 771.306 740.632 770.509 740.638 769.776L739.121 769.764C739.117 770.325 739.013 770.982 738.794 771.741L740.251 772.161ZM739.128 769.875L739.358 771.526L740.86 771.317L740.63 769.665L739.128 769.875ZM740.115 770.664C739.136 770.656 738.409 770.375 737.865 769.873L736.836 770.987C737.705 771.79 738.818 772.17 740.103 772.18L740.115 770.664ZM737.891 769.898C737.378 769.378 737.103 768.689 737.11 767.759L735.594 767.747C735.584 769.017 735.974 770.113 736.81 770.962L737.891 769.898ZM737.11 767.759C737.117 766.896 737.384 766.259 737.874 765.777L736.81 764.697C735.995 765.499 735.603 766.539 735.594 767.747L737.11 767.759ZM737.887 765.764C738.37 765.265 739.033 764.989 739.965 764.996L739.976 763.48C738.708 763.47 737.618 763.86 736.797 764.71L737.887 765.764ZM739.965 764.996C740.902 765.003 741.564 765.319 742.044 765.904L743.217 764.942C742.415 763.965 741.303 763.49 739.976 763.48L739.965 764.996ZM742.054 765.916C742.534 766.476 742.828 767.356 742.818 768.676L744.334 768.688C744.346 767.161 744.01 765.869 743.207 764.93L742.054 765.916ZM742.818 768.676C742.812 769.4 742.731 770.16 742.571 770.958L744.058 771.256C744.235 770.373 744.328 769.517 744.334 768.688L742.818 768.676ZM742.567 770.981C742.445 771.705 742.19 772.474 741.79 773.29L743.151 773.958C743.605 773.034 743.913 772.124 744.063 771.232L742.567 770.981ZM741.776 773.32C741.415 774.143 740.869 775 740.121 775.889L741.282 776.865C742.102 775.889 742.735 774.911 743.165 773.928L741.776 773.32ZM775.334 769.752L774.943 770.401L774.946 770.403L775.334 769.752ZM769.655 763.593L768.977 763.933L768.979 763.937L769.655 763.593ZM768.908 747.037L769.619 747.302L769.62 747.299L768.908 747.037ZM772.251 741.53L771.702 741.008L771.702 741.008L772.251 741.53ZM777.471 738.028L777.749 738.733L777.755 738.731L777.471 738.028ZM792.945 739.069L792.554 739.719L792.56 739.722L792.945 739.069ZM798.625 745.179L799.301 744.836L798.625 745.179ZM799.371 761.735L798.659 761.474L799.371 761.735ZM795.979 767.29L795.43 766.767L795.424 766.773L795.979 767.29ZM790.759 770.841L791.037 771.547L791.043 771.544L790.759 770.841ZM789.395 765.249L788.985 764.611L788.979 764.615L789.395 765.249ZM792.824 761.053L792.132 760.743L792.128 760.754L792.824 761.053ZM791.537 745.416L790.942 745.886L790.947 745.892L791.537 745.416ZM778.884 743.571L779.284 744.216L779.294 744.21L778.884 743.571ZM775.407 747.718L774.714 747.409L774.712 747.414L775.407 747.718ZM776.742 763.356L777.336 762.885L776.742 763.356ZM784.01 771.244C780.825 771.22 778.07 770.497 775.722 769.1L774.946 770.403C777.558 771.957 780.583 772.734 783.998 772.761L784.01 771.244ZM775.725 769.102C773.403 767.703 771.607 765.758 770.33 763.249L768.979 763.937C770.38 766.69 772.369 768.851 774.943 770.401L775.725 769.102ZM770.332 763.252C769.057 760.715 768.42 757.727 768.446 754.265L766.93 754.254C766.902 757.91 767.575 761.144 768.977 763.933L770.332 763.252ZM768.446 754.265C768.466 751.653 768.862 749.335 769.619 747.302L768.198 746.773C767.369 748.999 766.951 751.496 766.93 754.254L768.446 754.265ZM769.62 747.299C770.382 745.224 771.444 743.48 772.801 742.053L771.702 741.008C770.188 742.6 769.022 744.528 768.197 746.776L769.62 747.299ZM772.8 742.053C774.191 740.593 775.838 739.487 777.749 738.733L777.193 737.322C775.08 738.156 773.247 739.385 771.702 741.008L772.8 742.053ZM777.755 738.731C779.696 737.947 781.864 737.558 784.269 737.577L784.281 736.06C781.703 736.04 779.335 736.457 777.187 737.325L777.755 738.731ZM784.269 737.577C787.488 737.601 790.241 738.325 792.554 739.719L793.336 738.42C790.754 736.864 787.726 736.087 784.281 736.06L784.269 737.577ZM792.56 739.722C794.878 741.089 796.673 743.016 797.949 745.523L799.301 744.836C797.899 742.081 795.907 739.935 793.33 738.416L792.56 739.722ZM797.949 745.523C799.222 748.026 799.86 750.996 799.833 754.458L801.35 754.47C801.378 750.815 800.705 747.595 799.301 744.836L797.949 745.523ZM799.833 754.458C799.813 757.071 799.418 759.406 798.659 761.474L800.083 761.996C800.911 759.74 801.329 757.228 801.35 754.47L799.833 754.458ZM798.659 761.474C797.899 763.546 796.821 765.306 795.43 766.767L796.529 767.813C798.074 766.19 799.257 764.247 800.083 761.996L798.659 761.474ZM795.424 766.773C794.068 768.23 792.422 769.352 790.475 770.138L791.043 771.544C793.186 770.679 795.02 769.434 796.534 767.807L795.424 766.773ZM790.481 770.136C788.572 770.888 786.419 771.263 784.01 771.244L783.998 772.761C786.572 772.781 788.922 772.381 791.037 771.547L790.481 770.136ZM784.039 767.422C786.261 767.44 788.198 766.94 789.81 765.884L788.979 764.615C787.664 765.477 786.035 765.921 784.051 765.906L784.039 767.422ZM789.804 765.888C791.443 764.837 792.678 763.312 793.521 761.353L792.128 760.754C791.389 762.471 790.338 763.744 788.985 764.611L789.804 765.888ZM793.516 761.363C794.392 759.408 794.826 757.102 794.847 754.469L793.33 754.457C793.311 756.935 792.902 759.023 792.132 760.744L793.516 761.363ZM794.847 754.469C794.877 750.481 794.005 747.272 792.128 744.94L790.947 745.892C792.53 747.858 793.359 750.679 793.33 754.457L794.847 754.469ZM792.132 744.946C790.268 742.587 787.599 741.424 784.24 741.398L784.228 742.915C787.209 742.938 789.41 743.948 790.942 745.886L792.132 744.946ZM784.24 741.398C782.047 741.381 780.114 741.882 778.475 742.933L779.294 744.21C780.646 743.342 782.28 742.9 784.228 742.915L784.24 741.398ZM778.485 742.927C776.843 743.945 775.59 745.453 774.715 747.409L776.099 748.028C776.869 746.308 777.935 745.052 779.284 744.216L778.485 742.927ZM774.712 747.414C773.87 749.339 773.453 751.643 773.433 754.304L774.949 754.315C774.969 751.799 775.363 749.71 776.101 748.023L774.712 747.414ZM773.433 754.304C773.402 758.261 774.275 761.467 776.148 763.828L777.336 762.885C775.748 760.883 774.921 758.058 774.949 754.315L773.433 754.304ZM776.148 763.828C778.04 766.213 780.705 767.397 784.039 767.422L784.051 765.906C781.109 765.883 778.905 764.862 777.336 762.885L776.148 763.828ZM810.467 771.284L809.897 771.784L809.912 771.8L809.927 771.816L810.467 771.284ZM810.724 737.944L810.192 737.404L810.724 737.944ZM815.335 737.98L814.778 738.495L814.794 738.512L814.811 738.528L815.335 737.98ZM816.046 752.69L815.288 752.685L815.282 753.443L816.04 753.449L816.046 752.69ZM816.143 752.691L816.138 753.45L816.452 753.452L816.676 753.231L816.143 752.691ZM830.179 738.822L829.647 738.282L829.646 738.282L830.179 738.822ZM831.741 737.669L831.407 736.988L831.741 737.669ZM835.475 738.038L834.879 738.507L834.889 738.518L834.898 738.53L835.475 738.038ZM835.947 739.74L835.198 739.622L835.195 739.64L835.193 739.659L835.947 739.74ZM835.011 741.528L835.541 742.071L835.544 742.069L835.011 741.528ZM820.733 755.444L819.975 755.425L819.928 757.287L821.262 755.987L820.733 755.444ZM820.803 752.63L821.348 752.102L820.09 750.804L820.045 752.611L820.803 752.63ZM835.489 767.788L834.944 768.316L834.953 768.325L834.962 768.333L835.489 767.788ZM836.541 769.835L837.298 769.806L837.298 769.806L836.541 769.835ZM835.847 771.625L836.38 772.165L835.847 771.625ZM831.915 771.789L831.47 772.403L831.479 772.41L831.49 772.417L831.915 771.789ZM830.324 770.369L830.865 769.837L830.324 770.369ZM816.118 755.943L816.659 755.411L816.438 755.187L816.124 755.184L816.118 755.943ZM816.021 755.942L816.027 755.184L815.269 755.178L815.263 755.936L816.021 755.942ZM815.126 771.32L815.675 771.844L815.682 771.836L815.689 771.828L815.126 771.32ZM812.796 771.369C811.934 771.362 811.375 771.125 811.008 770.752L809.927 771.816C810.652 772.552 811.642 772.877 812.785 772.885L812.796 771.369ZM811.038 770.785C810.679 770.374 810.461 769.778 810.468 768.906L808.951 768.894C808.942 770.028 809.23 771.021 809.897 771.784L811.038 770.785ZM810.468 768.906L810.688 740.273L809.171 740.262L808.951 768.894L810.468 768.906ZM810.688 740.273C810.695 739.355 810.928 738.807 811.256 738.484L810.192 737.404C809.477 738.108 809.18 739.11 809.171 740.262L810.688 740.273ZM811.256 738.484C811.629 738.117 812.191 737.889 813.054 737.895L813.066 736.379C811.923 736.37 810.928 736.679 810.192 737.404L811.256 738.484ZM813.054 737.895C813.92 737.902 814.449 738.14 814.778 738.495L815.891 737.464C815.193 736.711 814.206 736.388 813.066 736.379L813.054 737.895ZM814.811 738.528C815.156 738.858 815.39 739.403 815.383 740.31L816.9 740.321C816.909 739.157 816.605 738.145 815.858 737.431L814.811 738.528ZM815.383 740.31L815.288 752.685L816.805 752.696L816.9 740.321L815.383 740.31ZM816.04 753.449L816.138 753.45L816.149 751.933L816.052 751.932L816.04 753.449ZM816.676 753.231L830.712 739.361L829.646 738.282L815.61 752.152L816.676 753.231ZM830.711 739.362C831.189 738.891 831.645 738.561 832.075 738.35L831.407 736.988C830.798 737.287 830.212 737.725 829.647 738.282L830.711 739.362ZM832.075 738.35C832.477 738.153 832.942 738.048 833.485 738.053L833.497 736.536C832.746 736.53 832.044 736.676 831.407 736.988L832.075 738.35ZM833.485 738.053C834.313 738.059 834.698 738.276 834.879 738.507L836.071 737.568C835.483 736.822 834.545 736.544 833.497 736.536L833.485 738.053ZM834.898 738.53C835.168 738.846 835.267 739.189 835.198 739.622L836.696 739.858C836.832 738.998 836.616 738.206 836.052 737.545L834.898 738.53ZM835.193 739.659C835.146 740.099 834.934 740.54 834.479 740.988L835.544 742.069C836.197 741.425 836.609 740.674 836.701 739.821L835.193 739.659ZM834.482 740.985L820.204 754.901L821.262 755.987L835.541 742.071L834.482 740.985ZM821.491 755.463L821.561 752.649L820.045 752.611L819.975 755.425L821.491 755.463ZM820.258 753.158L834.944 768.316L836.033 767.261L821.348 752.102L820.258 753.158ZM834.962 768.333C835.541 768.894 835.766 769.402 835.783 769.863L837.298 769.806C837.262 768.843 836.785 767.987 836.016 767.243L834.962 768.333ZM835.783 769.863C835.802 770.372 835.646 770.759 835.315 771.085L836.38 772.165C837.027 771.528 837.333 770.722 837.298 769.806L835.783 769.863ZM835.315 771.085C835.053 771.343 834.599 771.537 833.81 771.531L833.798 773.047C834.821 773.055 835.729 772.806 836.38 772.165L835.315 771.085ZM833.81 771.531C833.134 771.525 832.665 771.381 832.341 771.161L831.49 772.417C832.131 772.852 832.921 773.04 833.798 773.047L833.81 771.531ZM832.361 771.175C831.957 770.882 831.46 770.441 830.865 769.837L829.784 770.901C830.409 771.536 830.972 772.041 831.47 772.403L832.361 771.175ZM830.865 769.837L816.659 755.411L815.578 756.475L829.784 770.901L830.865 769.837ZM816.124 755.184L816.027 755.184L816.015 756.7L816.112 756.701L816.124 755.184ZM815.263 755.936L815.163 768.942L816.679 768.954L816.78 755.948L815.263 755.936ZM815.163 768.942C815.156 769.814 814.929 770.407 814.563 770.812L815.689 771.828C816.368 771.076 816.671 770.088 816.679 768.954L815.163 768.942ZM814.578 770.796C814.248 771.141 813.703 771.376 812.796 771.369L812.785 772.885C813.949 772.894 814.961 772.591 815.675 771.844L814.578 770.796ZM847.012 761.568L846.426 762.049L846.437 762.063L846.449 762.076L847.012 761.568ZM846.443 759.913L845.686 759.967L845.687 759.976L846.443 759.913ZM845.13 741.364L845.886 741.31L845.886 741.308L845.13 741.364ZM845.928 738.506L846.498 739.006L846.504 739L846.509 738.994L845.928 738.506ZM851.266 738.547L850.666 739.01L850.677 739.025L850.689 739.039L851.266 738.547ZM852.021 741.417L851.265 741.35L851.265 741.351L852.021 741.417ZM850.422 759.944L849.667 759.879L849.666 759.891L849.665 759.904L850.422 759.944ZM849.827 761.589L849.272 761.073L849.26 761.086L849.248 761.099L849.827 761.589ZM845.725 771.216L845.172 771.735L845.178 771.741L845.184 771.748L845.725 771.216ZM845.764 766.072L845.232 765.531L845.764 766.072ZM851.054 766.112L850.488 766.617L850.501 766.631L850.514 766.644L851.054 766.112ZM851.015 771.257L850.469 770.729L850.463 770.736L850.456 770.743L851.015 771.257ZM848.47 761.403C848.029 761.4 847.762 761.266 847.575 761.06L846.449 762.076C846.969 762.651 847.67 762.914 848.458 762.92L848.47 761.403ZM847.599 761.087C847.408 760.855 847.25 760.471 847.198 759.85L845.687 759.976C845.754 760.781 845.975 761.499 846.426 762.049L847.599 761.087ZM847.199 759.86L845.886 741.31L844.373 741.417L845.686 759.967L847.199 759.86ZM845.886 741.308C845.809 740.254 846.046 739.521 846.498 739.006L845.358 738.006C844.569 738.905 844.275 740.078 844.373 741.419L845.886 741.308ZM846.509 738.994C846.95 738.469 847.618 738.161 848.648 738.169L848.66 736.653C847.296 736.642 846.147 737.065 845.347 738.019L846.509 738.994ZM848.648 738.169C849.64 738.177 850.264 738.489 850.666 739.01L851.867 738.085C851.115 737.109 849.998 736.663 848.66 736.653L848.648 738.169ZM850.689 739.039C851.132 739.56 851.359 740.297 851.265 741.35L852.776 741.484C852.895 740.144 852.619 738.967 851.844 738.056L850.689 739.039ZM851.265 741.351L849.667 759.879L851.178 760.009L852.776 741.482L851.265 741.351ZM849.665 759.904C849.633 760.5 849.473 760.857 849.272 761.073L850.382 762.106C850.899 761.551 851.135 760.81 851.179 759.984L849.665 759.904ZM849.248 761.099C849.09 761.286 848.865 761.406 848.47 761.403L848.458 762.92C849.227 762.926 849.911 762.664 850.406 762.079L849.248 761.099ZM848.392 771.497C847.461 771.49 846.777 771.204 846.265 770.684L845.184 771.748C846.02 772.597 847.111 773.004 848.38 773.014L848.392 771.497ZM846.278 770.697C845.788 770.175 845.526 769.496 845.533 768.594L844.016 768.582C844.007 769.815 844.378 770.888 845.172 771.735L846.278 770.697ZM845.533 768.594C845.539 767.731 845.807 767.094 846.296 766.612L845.232 765.531C844.418 766.334 844.025 767.374 844.016 768.582L845.533 768.594ZM846.296 766.612C846.817 766.1 847.505 765.824 848.436 765.831L848.447 764.315C847.178 764.305 846.081 764.695 845.232 765.531L846.296 766.612ZM848.436 765.831C849.408 765.839 850.054 766.129 850.488 766.617L851.62 765.608C850.836 764.727 849.739 764.325 848.447 764.315L848.436 765.831ZM850.514 766.644C850.996 767.134 851.254 767.775 851.247 768.638L852.764 768.649C852.773 767.442 852.397 766.395 851.594 765.58L850.514 766.644ZM851.247 768.638C851.24 769.54 850.967 770.214 850.469 770.729L851.56 771.784C852.366 770.95 852.754 769.883 852.764 768.649L851.247 768.638ZM850.456 770.743C850.014 771.224 849.364 771.505 848.392 771.497L848.38 773.014C849.672 773.024 850.775 772.638 851.573 771.77L850.456 770.743Z" fill="white"/>
<path d="M580.434 719.277C583.311 722.725 580.725 729.625 576.354 733.273C571.983 736.921 564.732 738.231 561.854 734.783C558.976 731.335 560.803 725.069 565.933 720.787C571.064 716.505 577.556 715.829 580.434 719.277Z" fill="#FFE588"/>
<defs>
<filter id="filter0_d_8272_172" x="515.586" y="356.534" width="464.92" height="473.995" filterUnits="userSpaceOnUse" color-interpolation-filters="sRGB">
<feFlood flood-opacity="0" result="BackgroundImageFix"/>
<feColorMatrix in="SourceAlpha" type="matrix" values="0 0 0 0 0 0 0 0 0 0 0 0 0 0 0 0 0 0 127 0" result="hardAlpha"/>
<feOffset dy="6.06641"/>
<feComposite in2="hardAlpha" operator="out"/>
<feColorMatrix type="matrix" values="0 0 0 0 1 0 0 0 0 0.787333 0 0 0 0 0.468333 0 0 0 1 0"/>
<feBlend mode="normal" in2="BackgroundImageFix" result="effect1_dropShadow_8272_172"/>
<feBlend mode="normal" in="SourceGraphic" in2="effect1_dropShadow_8272_172" result="shape"/>
</filter>
<filter id="filter1_d_8272_172" x="491.008" y="285.568" width="117.914" height="138.6" filterUnits="userSpaceOnUse" color-interpolation-filters="sRGB">
<feFlood flood-opacity="0" result="BackgroundImageFix"/>
<feColorMatrix in="SourceAlpha" type="matrix" values="0 0 0 0 0 0 0 0 0 0 0 0 0 0 0 0 0 0 127 0" result="hardAlpha"/>
<feOffset dy="6.06641"/>
<feComposite in2="hardAlpha" operator="out"/>
<feColorMatrix type="matrix" values="0 0 0 0 0.886275 0 0 0 0 0.419608 0 0 0 0 0.117647 0 0 0 1 0"/>
<feBlend mode="normal" in2="BackgroundImageFix" result="effect1_dropShadow_8272_172"/>
<feBlend mode="normal" in="SourceGraphic" in2="effect1_dropShadow_8272_172" result="shape"/>
</filter>
<filter id="filter2_d_8272_172" x="889.711" y="288.199" width="119.156" height="139.473" filterUnits="userSpaceOnUse" color-interpolation-filters="sRGB">
<feFlood flood-opacity="0" result="BackgroundImageFix"/>
<feColorMatrix in="SourceAlpha" type="matrix" values="0 0 0 0 0 0 0 0 0 0 0 0 0 0 0 0 0 0 127 0" result="hardAlpha"/>
<feOffset dy="6.06641"/>
<feComposite in2="hardAlpha" operator="out"/>
<feColorMatrix type="matrix" values="0 0 0 0 0.886275 0 0 0 0 0.419608 0 0 0 0 0.117647 0 0 0 1 0"/>
<feBlend mode="normal" in2="BackgroundImageFix" result="effect1_dropShadow_8272_172"/>
<feBlend mode="normal" in="SourceGraphic" in2="effect1_dropShadow_8272_172" result="shape"/>
</filter>
<filter id="filter3_d_8272_172" x="544.335" y="245.438" width="409.753" height="158.495" filterUnits="userSpaceOnUse" color-interpolation-filters="sRGB">
<feFlood flood-opacity="0" result="BackgroundImageFix"/>
<feColorMatrix in="SourceAlpha" type="matrix" values="0 0 0 0 0 0 0 0 0 0 0 0 0 0 0 0 0 0 127 0" result="hardAlpha"/>
<feOffset dy="6.06641"/>
<feComposite in2="hardAlpha" operator="out"/>
<feColorMatrix type="matrix" values="0 0 0 0 0.886275 0 0 0 0 0.419608 0 0 0 0 0.117647 0 0 0 1 0"/>
<feBlend mode="normal" in2="BackgroundImageFix" result="effect1_dropShadow_8272_172"/>
<feBlend mode="normal" in="SourceGraphic" in2="effect1_dropShadow_8272_172" result="shape"/>
</filter>
<filter id="filter4_d_8272_172" x="539.74" y="706.747" width="414.102" height="99.6282" filterUnits="userSpaceOnUse" color-interpolation-filters="sRGB">
<feFlood flood-opacity="0" result="BackgroundImageFix"/>
<feColorMatrix in="SourceAlpha" type="matrix" values="0 0 0 0 0 0 0 0 0 0 0 0 0 0 0 0 0 0 127 0" result="hardAlpha"/>
<feOffset dy="6.06641"/>
<feComposite in2="hardAlpha" operator="out"/>
<feColorMatrix type="matrix" values="0 0 0 0 1 0 0 0 0 0.835982 0 0 0 0 0.251667 0 0 0 1 0"/>
<feBlend mode="normal" in2="BackgroundImageFix" result="effect1_dropShadow_8272_172"/>
<feBlend mode="normal" in="SourceGraphic" in2="effect1_dropShadow_8272_172" result="shape"/>
</filter>
<filter id="filter5_d_8272_172" x="545.842" y="711.299" width="401.942" height="84.4587" filterUnits="userSpaceOnUse" color-interpolation-filters="sRGB">
<feFlood flood-opacity="0" result="BackgroundImageFix"/>
<feColorMatrix in="SourceAlpha" type="matrix" values="0 0 0 0 0 0 0 0 0 0 0 0 0 0 0 0 0 0 127 0" result="hardAlpha"/>
<feOffset dy="6.06641"/>
<feComposite in2="hardAlpha" operator="out"/>
<feColorMatrix type="matrix" values="0 0 0 0 0.929167 0 0 0 0 0.72458 0 0 0 0 0 0 0 0 1 0"/>
<feBlend mode="normal" in2="BackgroundImageFix" result="effect1_dropShadow_8272_172"/>
<feBlend mode="normal" in="SourceGraphic" in2="effect1_dropShadow_8272_172" result="shape"/>
</filter>
<linearGradient id="paint0_linear_8272_172" x1="681.739" y1="88.257" x2="706.485" y2="306.964" gradientUnits="userSpaceOnUse">
<stop stop-color="#FFDF6E" stop-opacity="0"/>
<stop offset="1" stop-color="#FFCD1B" stop-opacity="0.5"/>
</linearGradient>
<linearGradient id="paint1_linear_8272_172" x1="821.037" y1="87.3929" x2="795.4" y2="305.998" gradientUnits="userSpaceOnUse">
<stop stop-color="#FFDF6E" stop-opacity="0"/>
<stop offset="1" stop-color="#FFCD1B" stop-opacity="0.5"/>
</linearGradient>
<linearGradient id="paint2_linear_8272_172" x1="572.557" y1="141.104" x2="626.072" y2="322.286" gradientUnits="userSpaceOnUse">
<stop stop-color="#FFDF6E" stop-opacity="0"/>
<stop offset="1" stop-color="#FFCD1B" stop-opacity="0.5"/>
</linearGradient>
<linearGradient id="paint3_linear_8272_172" x1="930.005" y1="140.685" x2="875.752" y2="321.647" gradientUnits="userSpaceOnUse">
<stop stop-color="#FFDF6E" stop-opacity="0"/>
<stop offset="1" stop-color="#FFCD1B" stop-opacity="0.5"/>
</linearGradient>
<linearGradient id="paint4_linear_8272_172" x1="504.605" y1="225.233" x2="565.87" y2="345.467" gradientUnits="userSpaceOnUse">
<stop stop-color="#FFDF6E" stop-opacity="0"/>
<stop offset="1" stop-color="#FFCD1B" stop-opacity="0.5"/>
</linearGradient>
<linearGradient id="paint5_linear_8272_172" x1="997.612" y1="225.089" x2="935.856" y2="345.072" gradientUnits="userSpaceOnUse">
<stop stop-color="#FFDF6E" stop-opacity="0"/>
<stop offset="1" stop-color="#FFCD1B" stop-opacity="0.5"/>
</linearGradient>
<linearGradient id="paint6_linear_8272_172" x1="518.702" y1="223.221" x2="542.727" y2="353.079" gradientUnits="userSpaceOnUse">
<stop stop-color="#FFCF25"/>
<stop offset="1" stop-color="#FD8C43"/>
</linearGradient>
<linearGradient id="paint7_linear_8272_172" x1="982.518" y1="226.792" x2="956.496" y2="356.265" gradientUnits="userSpaceOnUse">
<stop stop-color="#FFCF25"/>
<stop offset="1" stop-color="#FD8C43"/>
</linearGradient>
<linearGradient id="paint8_linear_8272_172" x1="750.437" y1="165.097" x2="749.188" y2="327.369" gradientUnits="userSpaceOnUse">
<stop stop-color="#FFCF25"/>
<stop offset="1" stop-color="#FD8C43"/>
</linearGradient>
<clipPath id="clip0_8272_172">
<path d="M1017.82 44.2305L1017.63 81.6192L324.689 78.2252C317.7 78.191 314.206 78.1739 311.61 76.6584C309.91 75.6656 308.501 74.2427 307.525 72.5327C306.035 69.9225 306.052 66.4281 306.086 59.4393C306.121 52.4505 306.138 48.9561 307.653 46.3606C308.646 44.6603 310.069 43.2512 311.779 42.2751C314.389 40.7851 317.883 40.8023 324.872 40.8365L1017.82 44.2305Z" fill="white"/>
</clipPath>
</defs>
</svg>
