<svg width="88" height="121" viewBox="0 0 88 121" fill="none" xmlns="http://www.w3.org/2000/svg">
<g filter="url(#filter0_di_8265_177)">
<mask id="path-1-outside-1_8265_177" maskUnits="userSpaceOnUse" x="3" y="22" width="69" height="81" fill="black">
<rect fill="white" x="3" y="22" width="69" height="81"/>
<path d="M65.718 89.1001C62.5457 91.7966 59.0085 93.8745 55.1065 95.3338C51.2045 96.7614 47.1439 97.4751 42.9247 97.4751C39.6889 97.4751 36.5642 97.0469 33.5504 96.1903C30.5684 95.3655 27.7768 94.1918 25.1754 92.669C22.5741 91.1146 20.1948 89.2746 18.0376 87.1491C15.8804 84.992 14.0405 82.6127 12.5178 80.0114C10.995 77.3783 9.8054 74.5549 8.94886 71.5412C8.12405 68.5275 7.71165 65.4027 7.71165 62.1669C7.71165 58.9311 8.12405 55.8222 8.94886 52.8402C9.8054 49.8582 10.995 47.0665 12.5178 44.4652C14.0405 41.8322 15.8804 39.4529 18.0376 37.3274C20.1948 35.1702 22.5741 33.3303 25.1754 31.8075C27.7768 30.2848 30.5684 29.111 33.5504 28.2862C36.5642 27.4297 39.6889 27.0014 42.9247 27.0014C47.1439 27.0014 51.2045 27.7311 55.1065 29.1903C59.0085 30.6179 62.5457 32.6799 65.718 35.3764L58.5803 47.2727C56.5182 45.179 54.139 43.5452 51.4425 42.3714C48.746 41.166 45.9067 40.5632 42.9247 40.5632C39.9427 40.5632 37.1352 41.1342 34.5021 42.2763C31.9008 43.4183 29.6167 44.9728 27.6499 46.9396C25.683 48.8748 24.1286 51.1589 22.9865 53.7919C21.8445 56.3932 21.2734 59.1849 21.2734 62.1669C21.2734 65.1806 21.8445 68.004 22.9865 70.6371C24.1286 73.2701 25.683 75.5701 27.6499 77.5369C29.6167 79.5038 31.9008 81.0582 34.5021 82.2003C37.1352 83.3423 39.9427 83.9134 42.9247 83.9134C44.6378 83.9134 46.3033 83.7071 47.9212 83.2947C49.5391 82.8823 51.0777 82.3113 52.5369 81.5817V62.1669H65.718V89.1001Z"/>
</mask>
<path d="M65.718 89.1001C62.5457 91.7966 59.0085 93.8745 55.1065 95.3338C51.2045 96.7614 47.1439 97.4751 42.9247 97.4751C39.6889 97.4751 36.5642 97.0469 33.5504 96.1903C30.5684 95.3655 27.7768 94.1918 25.1754 92.669C22.5741 91.1146 20.1948 89.2746 18.0376 87.1491C15.8804 84.992 14.0405 82.6127 12.5178 80.0114C10.995 77.3783 9.8054 74.5549 8.94886 71.5412C8.12405 68.5275 7.71165 65.4027 7.71165 62.1669C7.71165 58.9311 8.12405 55.8222 8.94886 52.8402C9.8054 49.8582 10.995 47.0665 12.5178 44.4652C14.0405 41.8322 15.8804 39.4529 18.0376 37.3274C20.1948 35.1702 22.5741 33.3303 25.1754 31.8075C27.7768 30.2848 30.5684 29.111 33.5504 28.2862C36.5642 27.4297 39.6889 27.0014 42.9247 27.0014C47.1439 27.0014 51.2045 27.7311 55.1065 29.1903C59.0085 30.6179 62.5457 32.6799 65.718 35.3764L58.5803 47.2727C56.5182 45.179 54.139 43.5452 51.4425 42.3714C48.746 41.166 45.9067 40.5632 42.9247 40.5632C39.9427 40.5632 37.1352 41.1342 34.5021 42.2763C31.9008 43.4183 29.6167 44.9728 27.6499 46.9396C25.683 48.8748 24.1286 51.1589 22.9865 53.7919C21.8445 56.3932 21.2734 59.1849 21.2734 62.1669C21.2734 65.1806 21.8445 68.004 22.9865 70.6371C24.1286 73.2701 25.683 75.5701 27.6499 77.5369C29.6167 79.5038 31.9008 81.0582 34.5021 82.2003C37.1352 83.3423 39.9427 83.9134 42.9247 83.9134C44.6378 83.9134 46.3033 83.7071 47.9212 83.2947C49.5391 82.8823 51.0777 82.3113 52.5369 81.5817V62.1669H65.718V89.1001Z" fill="#56B000"/>
<path d="M65.718 89.1001L68.6766 92.5808L70.2862 91.2127V89.1001H65.718ZM55.1065 95.3338L56.6761 99.6239L56.6914 99.6183L56.7067 99.6126L55.1065 95.3338ZM33.5504 96.1903L34.7993 91.7962L34.7838 91.7918L34.7682 91.7875L33.5504 96.1903ZM25.1754 92.669L22.8322 96.5904L22.8499 96.601L22.8677 96.6114L25.1754 92.669ZM18.0376 87.1491L14.8074 90.3793L14.8194 90.3913L14.8315 90.4032L18.0376 87.1491ZM12.5178 80.0114L8.56324 82.2983L8.56927 82.3087L8.57535 82.3191L12.5178 80.0114ZM8.94886 71.5412L4.54272 72.7471L4.54861 72.7686L4.55471 72.7901L8.94886 71.5412ZM8.94886 52.8402L4.55821 51.5791L4.552 51.6007L4.546 51.6224L8.94886 52.8402ZM12.5178 44.4652L16.4602 46.773L16.4662 46.7626L16.4723 46.7521L12.5178 44.4652ZM18.0376 37.3274L21.2438 40.5814L21.2559 40.5696L21.2678 40.5576L18.0376 37.3274ZM33.5504 28.2862L34.7682 32.6891L34.7838 32.6848L34.7993 32.6804L33.5504 28.2862ZM55.1065 29.1903L53.5063 33.4691L53.5216 33.4748L53.537 33.4804L55.1065 29.1903ZM65.718 35.3764L69.6352 37.7267L71.6284 34.4048L68.6766 31.8957L65.718 35.3764ZM58.5803 47.2727L55.3255 50.4782L59.4634 54.6797L62.4974 49.623L58.5803 47.2727ZM51.4425 42.3714L49.5781 46.5419L49.5986 46.551L49.6192 46.56L51.4425 42.3714ZM34.5021 42.2763L32.6844 38.0853L32.6751 38.0894L32.6658 38.0935L34.5021 42.2763ZM27.6499 46.9396L30.8537 50.196L30.8669 50.183L30.88 50.1698L27.6499 46.9396ZM22.9865 53.7919L27.1693 55.6283L27.1734 55.619L27.1775 55.6097L22.9865 53.7919ZM34.5021 82.2003L32.6658 86.3831L32.6751 86.3872L32.6844 86.3912L34.5021 82.2003ZM52.5369 81.5817L54.5799 85.6676L57.1051 84.405V81.5817H52.5369ZM52.5369 62.1669V57.5987H47.9687V62.1669H52.5369ZM65.718 62.1669H70.2862V57.5987H65.718V62.1669ZM62.7595 85.6195C59.9905 87.9731 56.913 89.781 53.5063 91.0551L56.7067 99.6126C61.104 97.968 65.1009 95.6202 68.6766 92.5808L62.7595 85.6195ZM53.537 91.0437C50.1457 92.2844 46.6169 92.907 42.9247 92.907V102.043C47.6709 102.043 52.2634 101.238 56.6761 99.6239L53.537 91.0437ZM42.9247 92.907C40.0973 92.907 37.3936 92.5335 34.7993 91.7962L32.3016 100.584C35.7347 101.56 39.2805 102.043 42.9247 102.043V92.907ZM34.7682 91.7875C32.1578 91.0654 29.7337 90.044 27.4832 88.7266L22.8677 96.6114C25.8198 98.3395 28.979 99.6656 32.3326 100.593L34.7682 91.7875ZM27.5187 88.7476C25.2304 87.3803 23.1409 85.7643 21.2438 83.8951L14.8315 90.4032C17.2488 92.7849 19.9178 94.8489 22.8322 96.5904L27.5187 88.7476ZM21.2678 83.919C19.3831 82.0342 17.7834 79.9642 16.4602 77.7036L8.57535 82.3191C10.2975 85.2612 12.3778 87.9497 14.8074 90.3793L21.2678 83.919ZM16.4723 77.7244C15.144 75.4276 14.0995 72.9542 13.343 70.2923L4.55471 72.7901C5.51125 76.1557 6.84605 79.329 8.56324 82.2983L16.4723 77.7244ZM13.355 70.3353C12.6415 67.7283 12.2798 65.0099 12.2798 62.1669H3.14347C3.14347 65.7955 3.60659 69.3266 4.54272 72.7471L13.355 70.3353ZM12.2798 62.1669C12.2798 59.3237 12.6416 56.6256 13.3517 54.058L4.546 51.6224C3.60655 55.0188 3.14347 58.5385 3.14347 62.1669H12.2798ZM13.3395 54.1013C14.094 51.4748 15.1355 49.0359 16.4602 46.773L8.57535 42.1574C6.85456 45.0971 5.51683 48.2416 4.55821 51.5791L13.3395 54.1013ZM16.4723 46.7521C17.7909 44.472 19.3796 42.4183 21.2438 40.5814L14.8315 34.0734C12.3813 36.4875 10.29 39.1923 8.56324 42.1783L16.4723 46.7521ZM21.2678 40.5576C23.1526 38.6729 25.2226 37.0732 27.4832 35.7499L22.8677 27.8651C19.9256 29.5873 17.2371 31.6676 14.8074 34.0972L21.2678 40.5576ZM27.4832 35.7499C29.7337 34.4326 32.1578 33.4111 34.7682 32.6891L32.3326 23.8834C28.979 24.8109 25.8198 26.1371 22.8677 27.8651L27.4832 35.7499ZM34.7993 32.6804C37.3936 31.9431 40.0973 31.5696 42.9247 31.5696V22.4332C39.2805 22.4332 35.7347 22.9163 32.3016 23.8921L34.7993 32.6804ZM42.9247 31.5696C46.6047 31.5696 50.1228 32.2037 53.5063 33.4691L56.7067 24.9116C52.2863 23.2584 47.6832 22.4332 42.9247 22.4332V31.5696ZM53.537 33.4804C56.9307 34.722 59.9978 36.5097 62.7595 38.8571L68.6766 31.8957C65.0936 28.8502 61.0864 26.5138 56.6761 24.9003L53.537 33.4804ZM61.8009 33.0261L54.6631 44.9224L62.4974 49.623L69.6352 37.7267L61.8009 33.0261ZM61.835 44.0673C59.3627 41.557 56.4974 39.5896 53.2657 38.1829L49.6192 46.56C51.7805 47.5008 53.6737 48.801 55.3255 50.4782L61.835 44.0673ZM53.3069 38.201C50.018 36.7307 46.5429 35.995 42.9247 35.995V45.1314C45.2705 45.1314 47.4739 45.6012 49.5781 46.5419L53.3069 38.201ZM42.9247 35.995C39.3423 35.995 35.9136 36.6847 32.6844 38.0853L36.3199 46.4672C38.3568 45.5838 40.5431 45.1314 42.9247 45.1314V35.995ZM32.6658 38.0935C29.556 39.4587 26.7966 41.3325 24.4197 43.7094L30.88 50.1698C32.4369 48.613 34.2456 47.3779 36.3385 46.4591L32.6658 38.0935ZM24.446 43.6833C22.044 46.0466 20.1616 48.8246 18.7956 51.9741L27.1775 55.6097C28.0955 53.4931 29.322 51.7029 30.8537 50.196L24.446 43.6833ZM18.8037 51.9555C17.3949 55.1643 16.7053 58.5847 16.7053 62.1669H25.8416C25.8416 59.7851 26.294 57.6221 27.1693 55.6283L18.8037 51.9555ZM16.7053 62.1669C16.7053 65.7741 17.3923 69.2195 18.7956 72.4548L27.1775 68.8193C26.2966 66.7885 25.8416 64.5872 25.8416 62.1669H16.7053ZM18.7956 72.4548C20.1588 75.5978 22.0336 78.3811 24.4197 80.7671L30.88 74.3067C29.3324 72.7591 28.0983 70.9424 27.1775 68.8193L18.7956 72.4548ZM24.4197 80.7671C26.7966 83.144 29.556 85.0179 32.6658 86.3831L36.3385 78.0175C34.2456 77.0986 32.4369 75.8635 30.88 74.3067L24.4197 80.7671ZM32.6844 86.3912C35.9136 87.7918 39.3423 88.4815 42.9247 88.4815V79.3452C40.5431 79.3452 38.3568 78.8928 36.3199 78.0093L32.6844 86.3912ZM42.9247 88.4815C45.0084 88.4815 47.0533 88.2302 49.0495 87.7214L46.7928 78.8681C45.5532 79.1841 44.2672 79.3452 42.9247 79.3452V88.4815ZM49.0495 87.7214C50.9762 87.2303 52.822 86.5465 54.5799 85.6676L50.494 77.4958C49.3333 78.0761 48.102 78.5344 46.7928 78.8681L49.0495 87.7214ZM57.1051 81.5817V62.1669H47.9687V81.5817H57.1051ZM52.5369 66.7351H65.718V57.5987H52.5369V66.7351ZM61.1499 62.1669V89.1001H70.2862V62.1669H61.1499Z" fill="white" mask="url(#path-1-outside-1_8265_177)"/>
</g>
<path fill-rule="evenodd" clip-rule="evenodd" d="M24.2676 40.0775C25.7421 41.5155 25.7718 43.8765 24.3338 45.3509C23.3974 46.3112 22.7527 47.3513 22.3504 48.487C21.6627 50.4284 19.5314 51.4447 17.59 50.757C15.6487 50.0693 14.6324 47.938 15.3201 45.9967C16.0999 43.7952 17.341 41.8389 18.9942 40.1437C20.4322 38.6692 22.7931 38.6396 24.2676 40.0775Z" fill="white"/>
<path fill-rule="evenodd" clip-rule="evenodd" d="M56.395 92.3732C55.6593 91.4405 55.747 90.0712 56.5909 89.3148C57.1404 88.8223 57.5355 88.2637 57.8033 87.6332C58.2612 86.5556 59.4606 86.1116 60.4822 86.6415C61.5038 87.1714 61.9608 88.4746 61.5029 89.5522C60.9836 90.7743 60.2252 91.823 59.255 92.6926C58.4111 93.4489 57.1307 93.306 56.395 92.3732Z" fill="white" fill-opacity="0.76"/>
<defs>
<filter id="filter0_di_8265_177" x="0.31167" y="20.6015" width="86.8063" height="99.2736" filterUnits="userSpaceOnUse" color-interpolation-filters="sRGB">
<feFlood flood-opacity="0" result="BackgroundImageFix"/>
<feColorMatrix in="SourceAlpha" type="matrix" values="0 0 0 0 0 0 0 0 0 0 0 0 0 0 0 0 0 0 127 0" result="hardAlpha"/>
<feOffset dx="7" dy="8"/>
<feGaussianBlur stdDeviation="7.2"/>
<feComposite in2="hardAlpha" operator="out"/>
<feColorMatrix type="matrix" values="0 0 0 0 0 0 0 0 0 0 0 0 0 0 0 0 0 0 0.25 0"/>
<feBlend mode="normal" in2="BackgroundImageFix" result="effect1_dropShadow_8265_177"/>
<feBlend mode="normal" in="SourceGraphic" in2="effect1_dropShadow_8265_177" result="shape"/>
<feColorMatrix in="SourceAlpha" type="matrix" values="0 0 0 0 0 0 0 0 0 0 0 0 0 0 0 0 0 0 127 0" result="hardAlpha"/>
<feOffset dx="3" dy="4"/>
<feGaussianBlur stdDeviation="5.8"/>
<feComposite in2="hardAlpha" operator="arithmetic" k2="-1" k3="1"/>
<feColorMatrix type="matrix" values="0 0 0 0 0.167349 0 0 0 0 0.272858 0 0 0 0 0.0665298 0 0 0 1 0"/>
<feBlend mode="normal" in2="shape" result="effect2_innerShadow_8265_177"/>
</filter>
</defs>
</svg>
