<svg width="85" height="121" viewBox="0 0 85 121" fill="none" xmlns="http://www.w3.org/2000/svg">
<g filter="url(#filter0_di_8265_177)">
<mask id="path-1-outside-1_8265_177" maskUnits="userSpaceOnUse" x="3" y="23" width="70" height="78" fill="black">
<rect fill="white" x="3" y="23" width="70" height="78"/>
<path d="M22.0313 96H8.37429V27.7628H22.0313V61.8814L47.4418 27.7628H62.9545L41.3984 56.5518L62.9545 96H47.4418L32.4524 68.4006L22.0313 82.343V96Z"/>
</mask>
<path d="M22.0313 96H8.37429V27.7628H22.0313V61.8814L47.4418 27.7628H62.9545L41.3984 56.5518L62.9545 96H47.4418L32.4524 68.4006L22.0313 82.343V96Z" fill="#56B000"/>
<path d="M22.0313 96V100.568H26.5994V96H22.0313ZM8.37429 96H3.80611V100.568H8.37429V96ZM8.37429 27.7628V23.1946H3.80611V27.7628H8.37429ZM22.0313 27.7628H26.5994V23.1946H22.0313V27.7628ZM22.0313 61.8814H17.4631V75.663L25.695 64.61L22.0313 61.8814ZM47.4418 27.7628V23.1946H45.1481L43.778 25.0342L47.4418 27.7628ZM62.9545 27.7628L66.6113 30.5008L72.0819 23.1946H62.9545V27.7628ZM41.3984 56.5518L37.7417 53.8138L35.9813 56.1649L37.3897 58.7424L41.3984 56.5518ZM62.9545 96V100.568H70.6565L66.9633 93.8095L62.9545 96ZM47.4418 96L43.4274 98.1802L44.7243 100.568H47.4418V96ZM32.4524 68.4006L36.4668 66.2204L33.0631 59.9532L28.7934 65.6657L32.4524 68.4006ZM22.0313 82.343L18.3722 79.6081L17.4631 80.8245V82.343H22.0313ZM22.0313 91.4318H8.37429V100.568H22.0313V91.4318ZM12.9425 96V27.7628H3.80611V96H12.9425ZM8.37429 32.331H22.0313V23.1946H8.37429V32.331ZM17.4631 27.7628V61.8814H26.5994V27.7628H17.4631ZM25.695 64.61L51.1055 30.4914L43.778 25.0342L18.3675 59.1528L25.695 64.61ZM47.4418 32.331H62.9545V23.1946H47.4418V32.331ZM59.2978 25.0248L37.7417 53.8138L45.0552 59.2899L66.6113 30.5008L59.2978 25.0248ZM37.3897 58.7424L58.9458 98.1905L66.9633 93.8095L45.4072 54.3613L37.3897 58.7424ZM62.9545 91.4318H47.4418V100.568H62.9545V91.4318ZM51.4561 93.8198L36.4668 66.2204L28.4381 70.5808L43.4274 98.1802L51.4561 93.8198ZM28.7934 65.6657L18.3722 79.6081L25.6903 85.078L36.1115 71.1355L28.7934 65.6657ZM17.4631 82.343V96H26.5994V82.343H17.4631Z" fill="white" mask="url(#path-1-outside-1_8265_177)"/>
</g>
<path fill-rule="evenodd" clip-rule="evenodd" d="M19.2676 40.0775C20.7421 41.5155 20.7718 43.8765 19.3338 45.3509C18.3974 46.3112 17.7527 47.3513 17.3504 48.487C16.6627 50.4284 14.5314 51.4447 12.59 50.757C10.6487 50.0693 9.63237 47.938 10.3201 45.9967C11.0999 43.7952 12.341 41.8389 13.9942 40.1437C15.4322 38.6692 17.7931 38.6396 19.2676 40.0775Z" fill="white"/>
<path fill-rule="evenodd" clip-rule="evenodd" d="M51.395 92.3732C50.6593 91.4405 50.747 90.0712 51.5909 89.3148C52.1404 88.8223 52.5355 88.2637 52.8033 87.6332C53.2612 86.5556 54.4606 86.1116 55.4822 86.6415C56.5038 87.1714 56.9608 88.4746 56.5029 89.5522C55.9836 90.7743 55.2252 91.823 54.255 92.6926C53.4111 93.4489 52.1307 93.306 51.395 92.3732Z" fill="white" fill-opacity="0.76"/>
<defs>
<filter id="filter0_di_8265_177" x="0.974268" y="21.3628" width="83.3803" height="97.0372" filterUnits="userSpaceOnUse" color-interpolation-filters="sRGB">
<feFlood flood-opacity="0" result="BackgroundImageFix"/>
<feColorMatrix in="SourceAlpha" type="matrix" values="0 0 0 0 0 0 0 0 0 0 0 0 0 0 0 0 0 0 127 0" result="hardAlpha"/>
<feOffset dx="7" dy="8"/>
<feGaussianBlur stdDeviation="7.2"/>
<feComposite in2="hardAlpha" operator="out"/>
<feColorMatrix type="matrix" values="0 0 0 0 0 0 0 0 0 0 0 0 0 0 0 0 0 0 0.25 0"/>
<feBlend mode="normal" in2="BackgroundImageFix" result="effect1_dropShadow_8265_177"/>
<feBlend mode="normal" in="SourceGraphic" in2="effect1_dropShadow_8265_177" result="shape"/>
<feColorMatrix in="SourceAlpha" type="matrix" values="0 0 0 0 0 0 0 0 0 0 0 0 0 0 0 0 0 0 127 0" result="hardAlpha"/>
<feOffset dx="3" dy="4"/>
<feGaussianBlur stdDeviation="5.8"/>
<feComposite in2="hardAlpha" operator="arithmetic" k2="-1" k3="1"/>
<feColorMatrix type="matrix" values="0 0 0 0 0.167349 0 0 0 0 0.272858 0 0 0 0 0.0665298 0 0 0 1 0"/>
<feBlend mode="normal" in2="shape" result="effect2_innerShadow_8265_177"/>
</filter>
</defs>
</svg>
