<svg width="756" height="42" viewBox="0 0 756 42" fill="none" xmlns="http://www.w3.org/2000/svg">
<path d="M736.735 4.35265C743.724 4.38688 747.219 4.404 749.814 5.91948C751.514 6.9123 752.923 8.3352 753.899 10.0452C755.389 12.6553 755.372 16.1498 755.338 23.1386C755.304 30.1274 755.287 33.6218 753.771 36.2173C752.778 37.9176 751.356 39.3266 749.646 40.3027C747.035 41.7927 743.541 41.7756 736.552 41.7414L18.6887 38.2253C11.6999 38.1911 8.20546 38.174 5.61001 36.6585C3.90965 35.6657 2.50065 34.2428 1.52452 32.5328C0.0345352 29.9226 0.0516505 26.4282 0.0858811 19.4394C0.120112 12.4506 0.137227 8.95619 1.6527 6.36073C2.64554 4.66041 4.06841 3.25138 5.77842 2.27527C8.38859 0.785274 11.883 0.802389 18.8718 0.83662L736.735 4.35265Z" fill="#E2F2F5"/>
</svg>
