<svg width="723" height="181" viewBox="0 0 723 181" fill="none" xmlns="http://www.w3.org/2000/svg">
<mask id="path-1-outside-1_8270_173" maskUnits="userSpaceOnUse" x="23" y="46" width="680" height="85" fill="black">
<rect fill="white" x="23" y="46" width="680" height="85"/>
<path d="M37.884 122.864C35.452 122.864 33.596 122.192 32.316 120.848C31.036 119.504 30.396 117.616 30.396 115.184V61.136C30.396 58.704 31.036 56.816 32.316 55.472C33.596 54.128 35.452 53.456 37.884 53.456C40.252 53.456 42.076 54.128 43.356 55.472C44.636 56.816 45.276 58.704 45.276 61.136V115.184C45.276 117.616 44.636 119.504 43.356 120.848C42.14 122.192 40.316 122.864 37.884 122.864ZM88.464 123.056C84.048 123.056 80.336 122.32 77.328 120.848C74.384 119.376 72.176 117.232 70.704 114.416C69.296 111.6 68.592 108.048 68.592 103.76V85.712H64.56C62.768 85.712 61.36 85.232 60.336 84.272C59.376 83.312 58.896 82 58.896 80.336C58.896 78.544 59.376 77.2 60.336 76.304C61.36 75.344 62.768 74.864 64.56 74.864H68.592V67.568C68.592 65.136 69.232 63.312 70.512 62.096C71.792 60.816 73.584 60.176 75.888 60.176C78.256 60.176 80.048 60.816 81.264 62.096C82.48 63.312 83.088 65.136 83.088 67.568V74.864H92.208C94 74.864 95.376 75.344 96.336 76.304C97.296 77.2 97.776 78.544 97.776 80.336C97.776 82 97.296 83.312 96.336 84.272C95.376 85.232 94 85.712 92.208 85.712H83.088V103.184C83.088 105.872 83.696 107.888 84.912 109.232C86.192 110.576 88.208 111.248 90.96 111.248C91.92 111.248 92.816 111.152 93.648 110.96C94.48 110.768 95.248 110.64 95.952 110.576C96.848 110.512 97.584 110.8 98.16 111.44C98.736 112.016 99.024 113.328 99.024 115.376C99.024 116.912 98.768 118.256 98.256 119.408C97.744 120.56 96.848 121.392 95.568 121.904C94.736 122.224 93.584 122.48 92.112 122.672C90.704 122.928 89.488 123.056 88.464 123.056ZM121.03 80.528C120.07 81.744 119.046 82.416 117.958 82.544C116.87 82.672 115.91 82.48 115.078 81.968C114.31 81.392 113.894 80.56 113.83 79.472C113.766 78.384 114.246 77.232 115.27 76.016C116.678 74.288 117.638 72.56 118.15 70.832C118.662 69.104 118.918 67.568 118.918 66.224L119.398 70.16C116.838 70.16 114.758 69.424 113.158 67.952C111.558 66.48 110.758 64.496 110.758 62C110.758 59.568 111.494 57.616 112.966 56.144C114.438 54.608 116.454 53.84 119.014 53.84C121.638 53.84 123.686 54.704 125.158 56.432C126.63 58.16 127.366 60.624 127.366 63.824C127.366 65.488 127.206 67.216 126.886 69.008C126.566 70.736 125.958 72.56 125.062 74.48C124.166 76.336 122.822 78.352 121.03 80.528ZM160.142 123.056C157.326 123.056 154.414 122.8 151.406 122.288C148.462 121.776 145.774 120.912 143.342 119.696C142.062 119.056 141.134 118.256 140.558 117.296C140.046 116.272 139.822 115.248 139.886 114.224C139.95 113.2 140.27 112.272 140.846 111.44C141.486 110.608 142.286 110.064 143.246 109.808C144.27 109.488 145.39 109.584 146.606 110.096C149.23 111.184 151.63 111.952 153.806 112.4C155.982 112.848 158.126 113.072 160.238 113.072C162.99 113.072 164.974 112.656 166.19 111.824C167.47 110.928 168.11 109.776 168.11 108.368C168.11 107.088 167.694 106.128 166.862 105.488C166.03 104.848 164.814 104.4 163.214 104.144L153.134 102.32C149.166 101.616 146.094 100.176 143.918 98C141.806 95.76 140.75 92.912 140.75 89.456C140.75 86.256 141.646 83.504 143.438 81.2C145.23 78.832 147.694 77.04 150.83 75.824C154.03 74.544 157.646 73.904 161.678 73.904C164.558 73.904 167.214 74.16 169.646 74.672C172.078 75.184 174.414 76.016 176.654 77.168C177.806 77.744 178.606 78.512 179.054 79.472C179.566 80.432 179.726 81.424 179.534 82.448C179.406 83.472 179.022 84.4 178.382 85.232C177.742 86.064 176.91 86.608 175.886 86.864C174.926 87.12 173.806 86.992 172.526 86.48C170.478 85.52 168.59 84.848 166.862 84.464C165.134 84.016 163.47 83.792 161.87 83.792C158.99 83.792 156.91 84.272 155.63 85.232C154.35 86.128 153.71 87.28 153.71 88.688C153.71 89.776 154.062 90.704 154.766 91.472C155.534 92.176 156.686 92.656 158.222 92.912L168.302 94.736C172.462 95.44 175.63 96.848 177.806 98.96C179.982 101.008 181.07 103.824 181.07 107.408C181.07 112.272 179.15 116.112 175.31 118.928C171.534 121.68 166.478 123.056 160.142 123.056ZM247.453 123.056C243.997 123.056 240.893 122.384 238.141 121.04C235.389 119.696 233.245 117.872 231.709 115.568C230.173 113.264 229.405 110.672 229.405 107.792C229.405 104.336 230.301 101.616 232.093 99.632C233.885 97.584 236.797 96.144 240.829 95.312C244.861 94.416 250.205 93.968 256.861 93.968H261.949V101.456H256.957C253.693 101.456 251.037 101.648 248.989 102.032C247.005 102.352 245.565 102.928 244.669 103.76C243.837 104.592 243.421 105.744 243.421 107.216C243.421 109.008 244.029 110.48 245.245 111.632C246.525 112.784 248.349 113.36 250.717 113.36C252.573 113.36 254.205 112.944 255.613 112.112C257.085 111.216 258.237 110.032 259.069 108.56C259.901 107.024 260.317 105.296 260.317 103.376V92.336C260.317 89.52 259.677 87.536 258.397 86.384C257.117 85.168 254.941 84.56 251.869 84.56C250.141 84.56 248.253 84.784 246.205 85.232C244.221 85.616 242.013 86.288 239.581 87.248C238.173 87.888 236.925 88.048 235.837 87.728C234.749 87.344 233.917 86.704 233.341 85.808C232.765 84.848 232.477 83.824 232.477 82.736C232.477 81.584 232.797 80.496 233.437 79.472C234.077 78.384 235.133 77.584 236.605 77.072C239.613 75.856 242.429 75.024 245.053 74.576C247.741 74.128 250.205 73.904 252.445 73.904C257.373 73.904 261.405 74.64 264.541 76.112C267.741 77.52 270.141 79.728 271.741 82.736C273.341 85.68 274.141 89.488 274.141 94.16V115.472C274.141 117.84 273.565 119.664 272.413 120.944C271.261 122.224 269.597 122.864 267.421 122.864C265.245 122.864 263.549 122.224 262.333 120.944C261.181 119.664 260.605 117.84 260.605 115.472V111.92L261.277 112.496C260.893 114.672 260.061 116.56 258.781 118.16C257.565 119.696 255.997 120.912 254.077 121.808C252.157 122.64 249.949 123.056 247.453 123.056ZM334.615 122.864C332.247 122.864 330.423 122.224 329.143 120.944C327.927 119.664 327.319 117.84 327.319 115.472V81.392C327.319 79.024 327.927 77.232 329.143 76.016C330.423 74.736 332.183 74.096 334.423 74.096C336.727 74.096 338.487 74.736 339.703 76.016C340.919 77.232 341.527 79.024 341.527 81.392V87.536L340.471 83.696C341.751 80.752 343.735 78.384 346.423 76.592C349.111 74.8 352.279 73.904 355.927 73.904C359.575 73.904 362.615 74.768 365.047 76.496C367.479 78.224 369.207 80.88 370.231 84.464H368.887C370.295 81.2 372.439 78.64 375.319 76.784C378.263 74.864 381.623 73.904 385.399 73.904C389.047 73.904 392.023 74.64 394.327 76.112C396.695 77.52 398.455 79.696 399.607 82.64C400.759 85.52 401.335 89.2 401.335 93.68V115.472C401.335 117.84 400.695 119.664 399.415 120.944C398.199 122.224 396.439 122.864 394.135 122.864C391.767 122.864 389.943 122.224 388.663 120.944C387.447 119.664 386.839 117.84 386.839 115.472V94.16C386.839 91.024 386.327 88.752 385.303 87.344C384.343 85.872 382.679 85.136 380.311 85.136C377.559 85.136 375.415 86.096 373.879 88.016C372.343 89.936 371.575 92.656 371.575 96.176V115.472C371.575 117.84 370.935 119.664 369.655 120.944C368.439 122.224 366.679 122.864 364.375 122.864C362.071 122.864 360.279 122.224 358.999 120.944C357.719 119.664 357.079 117.84 357.079 115.472V94.16C357.079 91.024 356.567 88.752 355.543 87.344C354.583 85.872 352.919 85.136 350.551 85.136C347.799 85.136 345.655 86.096 344.119 88.016C342.583 89.936 341.815 92.656 341.815 96.176V115.472C341.815 120.4 339.415 122.864 334.615 122.864ZM436.055 123.056C432.599 123.056 429.495 122.384 426.743 121.04C423.991 119.696 421.847 117.872 420.311 115.568C418.775 113.264 418.007 110.672 418.007 107.792C418.007 104.336 418.903 101.616 420.695 99.632C422.487 97.584 425.399 96.144 429.431 95.312C433.463 94.416 438.807 93.968 445.463 93.968H450.551V101.456H445.559C442.295 101.456 439.639 101.648 437.591 102.032C435.607 102.352 434.167 102.928 433.271 103.76C432.439 104.592 432.023 105.744 432.023 107.216C432.023 109.008 432.631 110.48 433.847 111.632C435.127 112.784 436.951 113.36 439.319 113.36C441.175 113.36 442.807 112.944 444.215 112.112C445.687 111.216 446.839 110.032 447.671 108.56C448.503 107.024 448.919 105.296 448.919 103.376V92.336C448.919 89.52 448.279 87.536 446.999 86.384C445.719 85.168 443.543 84.56 440.471 84.56C438.743 84.56 436.855 84.784 434.807 85.232C432.823 85.616 430.615 86.288 428.183 87.248C426.775 87.888 425.527 88.048 424.439 87.728C423.351 87.344 422.519 86.704 421.943 85.808C421.367 84.848 421.079 83.824 421.079 82.736C421.079 81.584 421.399 80.496 422.039 79.472C422.679 78.384 423.735 77.584 425.207 77.072C428.215 75.856 431.031 75.024 433.655 74.576C436.343 74.128 438.807 73.904 441.047 73.904C445.975 73.904 450.007 74.64 453.143 76.112C456.343 77.52 458.743 79.728 460.343 82.736C461.943 85.68 462.743 89.488 462.743 94.16V115.472C462.743 117.84 462.167 119.664 461.015 120.944C459.863 122.224 458.199 122.864 456.023 122.864C453.847 122.864 452.151 122.224 450.935 120.944C449.783 119.664 449.207 117.84 449.207 115.472V111.92L449.879 112.496C449.495 114.672 448.663 116.56 447.383 118.16C446.167 119.696 444.599 120.912 442.679 121.808C440.759 122.64 438.551 123.056 436.055 123.056ZM504.373 123.056C499.957 123.056 496.245 122.32 493.237 120.848C490.293 119.376 488.085 117.232 486.613 114.416C485.205 111.6 484.501 108.048 484.501 103.76V85.712H480.469C478.677 85.712 477.269 85.232 476.245 84.272C475.285 83.312 474.805 82 474.805 80.336C474.805 78.544 475.285 77.2 476.245 76.304C477.269 75.344 478.677 74.864 480.469 74.864H484.501V67.568C484.501 65.136 485.141 63.312 486.421 62.096C487.701 60.816 489.493 60.176 491.797 60.176C494.165 60.176 495.957 60.816 497.173 62.096C498.389 63.312 498.997 65.136 498.997 67.568V74.864H508.117C509.909 74.864 511.285 75.344 512.245 76.304C513.205 77.2 513.685 78.544 513.685 80.336C513.685 82 513.205 83.312 512.245 84.272C511.285 85.232 509.909 85.712 508.117 85.712H498.997V103.184C498.997 105.872 499.605 107.888 500.821 109.232C502.101 110.576 504.117 111.248 506.869 111.248C507.829 111.248 508.725 111.152 509.557 110.96C510.389 110.768 511.157 110.64 511.861 110.576C512.757 110.512 513.493 110.8 514.069 111.44C514.645 112.016 514.933 113.328 514.933 115.376C514.933 116.912 514.677 118.256 514.165 119.408C513.653 120.56 512.757 121.392 511.477 121.904C510.645 122.224 509.493 122.48 508.021 122.672C506.613 122.928 505.397 123.056 504.373 123.056ZM550.205 123.056C545.085 123.056 540.605 122.064 536.765 120.08C532.989 118.032 530.077 115.152 528.029 111.44C525.981 107.728 524.957 103.344 524.957 98.288C524.957 94.512 525.533 91.12 526.685 88.112C527.837 85.104 529.501 82.544 531.677 80.432C533.917 78.32 536.605 76.72 539.741 75.632C542.877 74.48 546.365 73.904 550.205 73.904C552.189 73.904 554.301 74.16 556.541 74.672C558.781 75.12 560.989 75.92 563.165 77.072C564.445 77.648 565.309 78.48 565.757 79.568C566.269 80.592 566.461 81.68 566.333 82.832C566.205 83.92 565.789 84.912 565.085 85.808C564.445 86.64 563.613 87.216 562.589 87.536C561.565 87.792 560.413 87.6 559.133 86.96C557.917 86.256 556.637 85.744 555.293 85.424C554.013 85.104 552.797 84.944 551.645 84.944C549.725 84.944 548.029 85.264 546.557 85.904C545.085 86.48 543.837 87.344 542.813 88.496C541.853 89.584 541.085 90.96 540.509 92.624C539.997 94.288 539.741 96.208 539.741 98.384C539.741 102.608 540.765 105.936 542.813 108.368C544.925 110.736 547.869 111.92 551.645 111.92C552.797 111.92 554.013 111.792 555.293 111.536C556.573 111.216 557.853 110.704 559.133 110C560.413 109.36 561.565 109.2 562.589 109.52C563.613 109.84 564.413 110.448 564.989 111.344C565.629 112.176 565.981 113.168 566.045 114.32C566.173 115.408 565.981 116.496 565.469 117.584C565.021 118.608 564.189 119.408 562.973 119.984C560.797 121.072 558.621 121.84 556.445 122.288C554.269 122.8 552.189 123.056 550.205 123.056ZM588.08 122.864C585.712 122.864 583.888 122.224 582.608 120.944C581.392 119.664 580.784 117.84 580.784 115.472V60.848C580.784 58.416 581.392 56.592 582.608 55.376C583.888 54.096 585.712 53.456 588.08 53.456C590.384 53.456 592.144 54.096 593.36 55.376C594.64 56.592 595.28 58.416 595.28 60.848V83.696H593.936C595.408 80.56 597.584 78.16 600.464 76.496C603.408 74.768 606.736 73.904 610.448 73.904C614.224 73.904 617.328 74.64 619.76 76.112C622.192 77.52 624.016 79.696 625.232 82.64C626.448 85.52 627.056 89.2 627.056 93.68V115.472C627.056 117.84 626.416 119.664 625.136 120.944C623.92 122.224 622.128 122.864 619.76 122.864C617.456 122.864 615.664 122.224 614.384 120.944C613.168 119.664 612.56 117.84 612.56 115.472V94.352C612.56 91.088 611.952 88.752 610.736 87.344C609.584 85.872 607.792 85.136 605.36 85.136C602.288 85.136 599.824 86.096 597.968 88.016C596.176 89.936 595.28 92.496 595.28 95.696V115.472C595.28 120.4 592.88 122.864 588.08 122.864ZM687.059 101.168C685.587 101.168 684.435 100.72 683.603 99.824C682.771 98.928 682.259 97.616 682.067 95.888L678.995 63.056C678.675 60.176 679.219 57.872 680.627 56.144C682.035 54.352 684.179 53.456 687.059 53.456C689.811 53.456 691.891 54.352 693.299 56.144C694.707 57.872 695.251 60.176 694.931 63.056L691.859 95.888C691.667 97.616 691.155 98.928 690.323 99.824C689.555 100.72 688.467 101.168 687.059 101.168ZM687.059 122.48C684.499 122.48 682.451 121.712 680.915 120.176C679.443 118.64 678.707 116.656 678.707 114.224C678.707 111.856 679.443 109.936 680.915 108.464C682.451 106.928 684.499 106.16 687.059 106.16C689.619 106.16 691.603 106.928 693.011 108.464C694.483 109.936 695.219 111.856 695.219 114.224C695.219 116.656 694.483 118.64 693.011 120.176C691.603 121.712 689.619 122.48 687.059 122.48Z"/>
</mask>
<path d="M37.884 122.864C35.452 122.864 33.596 122.192 32.316 120.848C31.036 119.504 30.396 117.616 30.396 115.184V61.136C30.396 58.704 31.036 56.816 32.316 55.472C33.596 54.128 35.452 53.456 37.884 53.456C40.252 53.456 42.076 54.128 43.356 55.472C44.636 56.816 45.276 58.704 45.276 61.136V115.184C45.276 117.616 44.636 119.504 43.356 120.848C42.14 122.192 40.316 122.864 37.884 122.864ZM88.464 123.056C84.048 123.056 80.336 122.32 77.328 120.848C74.384 119.376 72.176 117.232 70.704 114.416C69.296 111.6 68.592 108.048 68.592 103.76V85.712H64.56C62.768 85.712 61.36 85.232 60.336 84.272C59.376 83.312 58.896 82 58.896 80.336C58.896 78.544 59.376 77.2 60.336 76.304C61.36 75.344 62.768 74.864 64.56 74.864H68.592V67.568C68.592 65.136 69.232 63.312 70.512 62.096C71.792 60.816 73.584 60.176 75.888 60.176C78.256 60.176 80.048 60.816 81.264 62.096C82.48 63.312 83.088 65.136 83.088 67.568V74.864H92.208C94 74.864 95.376 75.344 96.336 76.304C97.296 77.2 97.776 78.544 97.776 80.336C97.776 82 97.296 83.312 96.336 84.272C95.376 85.232 94 85.712 92.208 85.712H83.088V103.184C83.088 105.872 83.696 107.888 84.912 109.232C86.192 110.576 88.208 111.248 90.96 111.248C91.92 111.248 92.816 111.152 93.648 110.96C94.48 110.768 95.248 110.64 95.952 110.576C96.848 110.512 97.584 110.8 98.16 111.44C98.736 112.016 99.024 113.328 99.024 115.376C99.024 116.912 98.768 118.256 98.256 119.408C97.744 120.56 96.848 121.392 95.568 121.904C94.736 122.224 93.584 122.48 92.112 122.672C90.704 122.928 89.488 123.056 88.464 123.056ZM121.03 80.528C120.07 81.744 119.046 82.416 117.958 82.544C116.87 82.672 115.91 82.48 115.078 81.968C114.31 81.392 113.894 80.56 113.83 79.472C113.766 78.384 114.246 77.232 115.27 76.016C116.678 74.288 117.638 72.56 118.15 70.832C118.662 69.104 118.918 67.568 118.918 66.224L119.398 70.16C116.838 70.16 114.758 69.424 113.158 67.952C111.558 66.48 110.758 64.496 110.758 62C110.758 59.568 111.494 57.616 112.966 56.144C114.438 54.608 116.454 53.84 119.014 53.84C121.638 53.84 123.686 54.704 125.158 56.432C126.63 58.16 127.366 60.624 127.366 63.824C127.366 65.488 127.206 67.216 126.886 69.008C126.566 70.736 125.958 72.56 125.062 74.48C124.166 76.336 122.822 78.352 121.03 80.528ZM160.142 123.056C157.326 123.056 154.414 122.8 151.406 122.288C148.462 121.776 145.774 120.912 143.342 119.696C142.062 119.056 141.134 118.256 140.558 117.296C140.046 116.272 139.822 115.248 139.886 114.224C139.95 113.2 140.27 112.272 140.846 111.44C141.486 110.608 142.286 110.064 143.246 109.808C144.27 109.488 145.39 109.584 146.606 110.096C149.23 111.184 151.63 111.952 153.806 112.4C155.982 112.848 158.126 113.072 160.238 113.072C162.99 113.072 164.974 112.656 166.19 111.824C167.47 110.928 168.11 109.776 168.11 108.368C168.11 107.088 167.694 106.128 166.862 105.488C166.03 104.848 164.814 104.4 163.214 104.144L153.134 102.32C149.166 101.616 146.094 100.176 143.918 98C141.806 95.76 140.75 92.912 140.75 89.456C140.75 86.256 141.646 83.504 143.438 81.2C145.23 78.832 147.694 77.04 150.83 75.824C154.03 74.544 157.646 73.904 161.678 73.904C164.558 73.904 167.214 74.16 169.646 74.672C172.078 75.184 174.414 76.016 176.654 77.168C177.806 77.744 178.606 78.512 179.054 79.472C179.566 80.432 179.726 81.424 179.534 82.448C179.406 83.472 179.022 84.4 178.382 85.232C177.742 86.064 176.91 86.608 175.886 86.864C174.926 87.12 173.806 86.992 172.526 86.48C170.478 85.52 168.59 84.848 166.862 84.464C165.134 84.016 163.47 83.792 161.87 83.792C158.99 83.792 156.91 84.272 155.63 85.232C154.35 86.128 153.71 87.28 153.71 88.688C153.71 89.776 154.062 90.704 154.766 91.472C155.534 92.176 156.686 92.656 158.222 92.912L168.302 94.736C172.462 95.44 175.63 96.848 177.806 98.96C179.982 101.008 181.07 103.824 181.07 107.408C181.07 112.272 179.15 116.112 175.31 118.928C171.534 121.68 166.478 123.056 160.142 123.056ZM247.453 123.056C243.997 123.056 240.893 122.384 238.141 121.04C235.389 119.696 233.245 117.872 231.709 115.568C230.173 113.264 229.405 110.672 229.405 107.792C229.405 104.336 230.301 101.616 232.093 99.632C233.885 97.584 236.797 96.144 240.829 95.312C244.861 94.416 250.205 93.968 256.861 93.968H261.949V101.456H256.957C253.693 101.456 251.037 101.648 248.989 102.032C247.005 102.352 245.565 102.928 244.669 103.76C243.837 104.592 243.421 105.744 243.421 107.216C243.421 109.008 244.029 110.48 245.245 111.632C246.525 112.784 248.349 113.36 250.717 113.36C252.573 113.36 254.205 112.944 255.613 112.112C257.085 111.216 258.237 110.032 259.069 108.56C259.901 107.024 260.317 105.296 260.317 103.376V92.336C260.317 89.52 259.677 87.536 258.397 86.384C257.117 85.168 254.941 84.56 251.869 84.56C250.141 84.56 248.253 84.784 246.205 85.232C244.221 85.616 242.013 86.288 239.581 87.248C238.173 87.888 236.925 88.048 235.837 87.728C234.749 87.344 233.917 86.704 233.341 85.808C232.765 84.848 232.477 83.824 232.477 82.736C232.477 81.584 232.797 80.496 233.437 79.472C234.077 78.384 235.133 77.584 236.605 77.072C239.613 75.856 242.429 75.024 245.053 74.576C247.741 74.128 250.205 73.904 252.445 73.904C257.373 73.904 261.405 74.64 264.541 76.112C267.741 77.52 270.141 79.728 271.741 82.736C273.341 85.68 274.141 89.488 274.141 94.16V115.472C274.141 117.84 273.565 119.664 272.413 120.944C271.261 122.224 269.597 122.864 267.421 122.864C265.245 122.864 263.549 122.224 262.333 120.944C261.181 119.664 260.605 117.84 260.605 115.472V111.92L261.277 112.496C260.893 114.672 260.061 116.56 258.781 118.16C257.565 119.696 255.997 120.912 254.077 121.808C252.157 122.64 249.949 123.056 247.453 123.056ZM334.615 122.864C332.247 122.864 330.423 122.224 329.143 120.944C327.927 119.664 327.319 117.84 327.319 115.472V81.392C327.319 79.024 327.927 77.232 329.143 76.016C330.423 74.736 332.183 74.096 334.423 74.096C336.727 74.096 338.487 74.736 339.703 76.016C340.919 77.232 341.527 79.024 341.527 81.392V87.536L340.471 83.696C341.751 80.752 343.735 78.384 346.423 76.592C349.111 74.8 352.279 73.904 355.927 73.904C359.575 73.904 362.615 74.768 365.047 76.496C367.479 78.224 369.207 80.88 370.231 84.464H368.887C370.295 81.2 372.439 78.64 375.319 76.784C378.263 74.864 381.623 73.904 385.399 73.904C389.047 73.904 392.023 74.64 394.327 76.112C396.695 77.52 398.455 79.696 399.607 82.64C400.759 85.52 401.335 89.2 401.335 93.68V115.472C401.335 117.84 400.695 119.664 399.415 120.944C398.199 122.224 396.439 122.864 394.135 122.864C391.767 122.864 389.943 122.224 388.663 120.944C387.447 119.664 386.839 117.84 386.839 115.472V94.16C386.839 91.024 386.327 88.752 385.303 87.344C384.343 85.872 382.679 85.136 380.311 85.136C377.559 85.136 375.415 86.096 373.879 88.016C372.343 89.936 371.575 92.656 371.575 96.176V115.472C371.575 117.84 370.935 119.664 369.655 120.944C368.439 122.224 366.679 122.864 364.375 122.864C362.071 122.864 360.279 122.224 358.999 120.944C357.719 119.664 357.079 117.84 357.079 115.472V94.16C357.079 91.024 356.567 88.752 355.543 87.344C354.583 85.872 352.919 85.136 350.551 85.136C347.799 85.136 345.655 86.096 344.119 88.016C342.583 89.936 341.815 92.656 341.815 96.176V115.472C341.815 120.4 339.415 122.864 334.615 122.864ZM436.055 123.056C432.599 123.056 429.495 122.384 426.743 121.04C423.991 119.696 421.847 117.872 420.311 115.568C418.775 113.264 418.007 110.672 418.007 107.792C418.007 104.336 418.903 101.616 420.695 99.632C422.487 97.584 425.399 96.144 429.431 95.312C433.463 94.416 438.807 93.968 445.463 93.968H450.551V101.456H445.559C442.295 101.456 439.639 101.648 437.591 102.032C435.607 102.352 434.167 102.928 433.271 103.76C432.439 104.592 432.023 105.744 432.023 107.216C432.023 109.008 432.631 110.48 433.847 111.632C435.127 112.784 436.951 113.36 439.319 113.36C441.175 113.36 442.807 112.944 444.215 112.112C445.687 111.216 446.839 110.032 447.671 108.56C448.503 107.024 448.919 105.296 448.919 103.376V92.336C448.919 89.52 448.279 87.536 446.999 86.384C445.719 85.168 443.543 84.56 440.471 84.56C438.743 84.56 436.855 84.784 434.807 85.232C432.823 85.616 430.615 86.288 428.183 87.248C426.775 87.888 425.527 88.048 424.439 87.728C423.351 87.344 422.519 86.704 421.943 85.808C421.367 84.848 421.079 83.824 421.079 82.736C421.079 81.584 421.399 80.496 422.039 79.472C422.679 78.384 423.735 77.584 425.207 77.072C428.215 75.856 431.031 75.024 433.655 74.576C436.343 74.128 438.807 73.904 441.047 73.904C445.975 73.904 450.007 74.64 453.143 76.112C456.343 77.52 458.743 79.728 460.343 82.736C461.943 85.68 462.743 89.488 462.743 94.16V115.472C462.743 117.84 462.167 119.664 461.015 120.944C459.863 122.224 458.199 122.864 456.023 122.864C453.847 122.864 452.151 122.224 450.935 120.944C449.783 119.664 449.207 117.84 449.207 115.472V111.92L449.879 112.496C449.495 114.672 448.663 116.56 447.383 118.16C446.167 119.696 444.599 120.912 442.679 121.808C440.759 122.64 438.551 123.056 436.055 123.056ZM504.373 123.056C499.957 123.056 496.245 122.32 493.237 120.848C490.293 119.376 488.085 117.232 486.613 114.416C485.205 111.6 484.501 108.048 484.501 103.76V85.712H480.469C478.677 85.712 477.269 85.232 476.245 84.272C475.285 83.312 474.805 82 474.805 80.336C474.805 78.544 475.285 77.2 476.245 76.304C477.269 75.344 478.677 74.864 480.469 74.864H484.501V67.568C484.501 65.136 485.141 63.312 486.421 62.096C487.701 60.816 489.493 60.176 491.797 60.176C494.165 60.176 495.957 60.816 497.173 62.096C498.389 63.312 498.997 65.136 498.997 67.568V74.864H508.117C509.909 74.864 511.285 75.344 512.245 76.304C513.205 77.2 513.685 78.544 513.685 80.336C513.685 82 513.205 83.312 512.245 84.272C511.285 85.232 509.909 85.712 508.117 85.712H498.997V103.184C498.997 105.872 499.605 107.888 500.821 109.232C502.101 110.576 504.117 111.248 506.869 111.248C507.829 111.248 508.725 111.152 509.557 110.96C510.389 110.768 511.157 110.64 511.861 110.576C512.757 110.512 513.493 110.8 514.069 111.44C514.645 112.016 514.933 113.328 514.933 115.376C514.933 116.912 514.677 118.256 514.165 119.408C513.653 120.56 512.757 121.392 511.477 121.904C510.645 122.224 509.493 122.48 508.021 122.672C506.613 122.928 505.397 123.056 504.373 123.056ZM550.205 123.056C545.085 123.056 540.605 122.064 536.765 120.08C532.989 118.032 530.077 115.152 528.029 111.44C525.981 107.728 524.957 103.344 524.957 98.288C524.957 94.512 525.533 91.12 526.685 88.112C527.837 85.104 529.501 82.544 531.677 80.432C533.917 78.32 536.605 76.72 539.741 75.632C542.877 74.48 546.365 73.904 550.205 73.904C552.189 73.904 554.301 74.16 556.541 74.672C558.781 75.12 560.989 75.92 563.165 77.072C564.445 77.648 565.309 78.48 565.757 79.568C566.269 80.592 566.461 81.68 566.333 82.832C566.205 83.92 565.789 84.912 565.085 85.808C564.445 86.64 563.613 87.216 562.589 87.536C561.565 87.792 560.413 87.6 559.133 86.96C557.917 86.256 556.637 85.744 555.293 85.424C554.013 85.104 552.797 84.944 551.645 84.944C549.725 84.944 548.029 85.264 546.557 85.904C545.085 86.48 543.837 87.344 542.813 88.496C541.853 89.584 541.085 90.96 540.509 92.624C539.997 94.288 539.741 96.208 539.741 98.384C539.741 102.608 540.765 105.936 542.813 108.368C544.925 110.736 547.869 111.92 551.645 111.92C552.797 111.92 554.013 111.792 555.293 111.536C556.573 111.216 557.853 110.704 559.133 110C560.413 109.36 561.565 109.2 562.589 109.52C563.613 109.84 564.413 110.448 564.989 111.344C565.629 112.176 565.981 113.168 566.045 114.32C566.173 115.408 565.981 116.496 565.469 117.584C565.021 118.608 564.189 119.408 562.973 119.984C560.797 121.072 558.621 121.84 556.445 122.288C554.269 122.8 552.189 123.056 550.205 123.056ZM588.08 122.864C585.712 122.864 583.888 122.224 582.608 120.944C581.392 119.664 580.784 117.84 580.784 115.472V60.848C580.784 58.416 581.392 56.592 582.608 55.376C583.888 54.096 585.712 53.456 588.08 53.456C590.384 53.456 592.144 54.096 593.36 55.376C594.64 56.592 595.28 58.416 595.28 60.848V83.696H593.936C595.408 80.56 597.584 78.16 600.464 76.496C603.408 74.768 606.736 73.904 610.448 73.904C614.224 73.904 617.328 74.64 619.76 76.112C622.192 77.52 624.016 79.696 625.232 82.64C626.448 85.52 627.056 89.2 627.056 93.68V115.472C627.056 117.84 626.416 119.664 625.136 120.944C623.92 122.224 622.128 122.864 619.76 122.864C617.456 122.864 615.664 122.224 614.384 120.944C613.168 119.664 612.56 117.84 612.56 115.472V94.352C612.56 91.088 611.952 88.752 610.736 87.344C609.584 85.872 607.792 85.136 605.36 85.136C602.288 85.136 599.824 86.096 597.968 88.016C596.176 89.936 595.28 92.496 595.28 95.696V115.472C595.28 120.4 592.88 122.864 588.08 122.864ZM687.059 101.168C685.587 101.168 684.435 100.72 683.603 99.824C682.771 98.928 682.259 97.616 682.067 95.888L678.995 63.056C678.675 60.176 679.219 57.872 680.627 56.144C682.035 54.352 684.179 53.456 687.059 53.456C689.811 53.456 691.891 54.352 693.299 56.144C694.707 57.872 695.251 60.176 694.931 63.056L691.859 95.888C691.667 97.616 691.155 98.928 690.323 99.824C689.555 100.72 688.467 101.168 687.059 101.168ZM687.059 122.48C684.499 122.48 682.451 121.712 680.915 120.176C679.443 118.64 678.707 116.656 678.707 114.224C678.707 111.856 679.443 109.936 680.915 108.464C682.451 106.928 684.499 106.16 687.059 106.16C689.619 106.16 691.603 106.928 693.011 108.464C694.483 109.936 695.219 111.856 695.219 114.224C695.219 116.656 694.483 118.64 693.011 120.176C691.603 121.712 689.619 122.48 687.059 122.48Z" fill="#EF8F35"/>
<path d="M32.316 120.848L37.385 116.02L37.385 116.02L32.316 120.848ZM32.316 55.472L37.3849 60.2996L37.385 60.2996L32.316 55.472ZM43.356 55.472L38.287 60.2996L38.287 60.2996L43.356 55.472ZM43.356 120.848L38.287 116.02L38.2253 116.085L38.1652 116.152L43.356 120.848ZM37.884 115.864C37.2988 115.864 37.0609 115.782 37.0511 115.778C37.0501 115.778 37.0962 115.795 37.1693 115.842C37.2438 115.89 37.3191 115.951 37.385 116.02L27.247 125.676C30.2237 128.801 34.159 129.864 37.884 129.864V115.864ZM37.385 116.02C37.4974 116.138 37.5235 116.23 37.5054 116.177C37.478 116.096 37.396 115.798 37.396 115.184H23.396C23.396 118.838 24.3804 122.666 27.247 125.676L37.385 116.02ZM37.396 115.184V61.136H23.396V115.184H37.396ZM37.396 61.136C37.396 60.5221 37.478 60.2243 37.5054 60.1433C37.5235 60.0899 37.4974 60.1815 37.3849 60.2996L27.247 50.6444C24.3804 53.6543 23.396 57.4821 23.396 61.136H37.396ZM37.385 60.2996C37.3191 60.3687 37.2438 60.4303 37.1693 60.4782C37.0962 60.5252 37.0501 60.5422 37.0511 60.5419C37.0609 60.5383 37.2988 60.456 37.884 60.456V46.456C34.159 46.456 30.2237 47.5189 27.247 50.6444L37.385 60.2996ZM37.884 60.456C38.4167 60.456 38.6193 60.5325 38.608 60.5284C38.5998 60.5254 38.5515 60.5061 38.4812 60.4605C38.4099 60.4142 38.3425 60.3579 38.287 60.2996L48.425 50.6444C45.4825 47.5548 41.609 46.456 37.884 46.456V60.456ZM38.287 60.2996C38.1746 60.1815 38.1484 60.0899 38.1665 60.1433C38.194 60.2243 38.276 60.5221 38.276 61.136H52.276C52.276 57.4821 51.2916 53.6543 48.425 50.6444L38.287 60.2996ZM38.276 61.136V115.184H52.276V61.136H38.276ZM38.276 115.184C38.276 115.798 38.194 116.096 38.1665 116.177C38.1484 116.23 38.1746 116.138 38.287 116.02L48.425 125.676C51.2916 122.666 52.276 118.838 52.276 115.184H38.276ZM38.1652 116.152C38.2553 116.052 38.358 115.965 38.4613 115.896C38.5627 115.829 38.6356 115.799 38.6561 115.792C38.686 115.781 38.4733 115.864 37.884 115.864V129.864C41.5858 129.864 45.5931 128.809 48.5467 125.544L38.1652 116.152ZM77.328 120.848L74.1975 127.109L74.2242 127.122L74.2511 127.136L77.328 120.848ZM70.704 114.416L64.443 117.546L64.4712 117.603L64.5004 117.659L70.704 114.416ZM68.592 85.712H75.592V78.712H68.592V85.712ZM60.336 84.272L55.3862 89.2217L55.4661 89.3016L55.5484 89.3788L60.336 84.272ZM60.336 76.304L65.1122 81.4214L65.1179 81.4161L65.1236 81.4108L60.336 76.304ZM68.592 74.864V81.864H75.592V74.864H68.592ZM70.512 62.096L75.3332 67.171L75.3983 67.1092L75.4617 67.0457L70.512 62.096ZM81.264 62.096L76.189 66.9172L76.2508 66.9823L76.3142 67.0457L81.264 62.096ZM83.088 74.864H76.088V81.864H83.088V74.864ZM96.336 76.304L91.3862 81.2537L91.4716 81.3391L91.5598 81.4214L96.336 76.304ZM83.088 85.712V78.712H76.088V85.712H83.088ZM84.912 109.232L79.7212 113.928L79.7813 113.995L79.843 114.06L84.912 109.232ZM93.648 110.96L95.222 117.781L95.222 117.781L93.648 110.96ZM95.952 110.576L95.4533 103.594L95.3857 103.599L95.3182 103.605L95.952 110.576ZM98.16 111.44L92.9569 116.123L93.0801 116.26L93.2102 116.39L98.16 111.44ZM98.256 119.408L104.653 122.251L104.653 122.251L98.256 119.408ZM95.568 121.904L98.0808 128.437L98.1244 128.421L98.1677 128.403L95.568 121.904ZM92.112 122.672L91.2066 115.731L91.0325 115.754L90.8598 115.785L92.112 122.672ZM88.464 116.056C84.7888 116.056 82.2 115.439 80.4049 114.56L74.2511 127.136C78.472 129.201 83.3071 130.056 88.464 130.056V116.056ZM80.4585 114.587C78.7802 113.748 77.6722 112.636 76.9076 111.173L64.5004 117.659C66.6797 121.828 69.9878 125.004 74.1975 127.109L80.4585 114.587ZM76.965 111.286C76.1861 109.728 75.592 107.335 75.592 103.76H61.592C61.592 108.761 62.4058 113.472 64.443 117.546L76.965 111.286ZM75.592 103.76V85.712H61.592V103.76H75.592ZM68.592 78.712H64.56V92.712H68.592V78.712ZM64.56 78.712C64.28 78.712 64.2641 78.6737 64.4187 78.7264C64.4983 78.7536 64.6112 78.801 64.7424 78.8787C64.8747 78.957 65.0046 79.0537 65.1236 79.1652L55.5484 89.3788C58.2 91.8646 61.5006 92.712 64.56 92.712V78.712ZM65.2857 79.3223C65.5469 79.5835 65.7304 79.8912 65.8298 80.1629C65.9199 80.409 65.896 80.5004 65.896 80.336H51.896C51.896 83.4112 52.8289 86.6644 55.3862 89.2217L65.2857 79.3223ZM65.896 80.336C65.896 80.0459 65.937 80.0896 65.8482 80.3384C65.7455 80.6258 65.519 81.0417 65.1122 81.4214L55.5598 71.1866C52.7222 73.835 51.896 77.3365 51.896 80.336H65.896ZM65.1236 81.4108C65.0046 81.5223 64.8747 81.619 64.7424 81.6973C64.6112 81.775 64.4983 81.8224 64.4187 81.8496C64.2641 81.9023 64.28 81.864 64.56 81.864V67.864C61.5006 67.864 58.2 68.7114 55.5484 71.1972L65.1236 81.4108ZM64.56 81.864H68.592V67.864H64.56V81.864ZM75.592 74.864V67.568H61.592V74.864H75.592ZM75.592 67.568C75.592 67.2644 75.6121 67.0454 75.6342 66.8989C75.6561 66.7534 75.678 66.6914 75.6772 66.6936C75.6755 66.6983 75.6524 66.7618 75.5904 66.8599C75.527 66.9603 75.4405 67.0691 75.3332 67.171L65.6907 57.021C62.5585 59.9966 61.592 63.9628 61.592 67.568H75.592ZM75.4617 67.0457C75.4069 67.1006 75.3429 67.1514 75.278 67.192C75.2472 67.2112 75.2209 67.2252 75.2011 67.2348C75.1913 67.2394 75.1836 67.2428 75.1783 67.245C75.173 67.2472 75.1702 67.2482 75.1703 67.2482C75.1704 67.2482 75.3745 67.176 75.888 67.176V53.176C72.2592 53.176 68.4884 54.2201 65.5622 57.1463L75.4617 67.0457ZM75.888 67.176C76.458 67.176 76.6723 67.2549 76.6536 67.2482C76.6392 67.243 76.5732 67.2174 76.4777 67.1564C76.3805 67.0944 76.28 67.0131 76.189 66.9172L86.339 57.2748C83.3963 54.1772 79.4943 53.176 75.888 53.176V67.176ZM76.3142 67.0457C76.2012 66.9327 76.1169 66.8191 76.0595 66.7235C76.0037 66.6304 75.9872 66.5776 75.9912 66.5896C76.0039 66.6276 76.088 66.9144 76.088 67.568H90.088C90.088 64.057 89.2055 60.138 86.2137 57.1462L76.3142 67.0457ZM76.088 67.568V74.864H90.088V67.568H76.088ZM83.088 81.864H92.208V67.864H83.088V81.864ZM92.208 81.864C92.4927 81.864 92.4795 81.9036 92.2784 81.8334C92.0458 81.7523 91.7053 81.5728 91.3862 81.2537L101.286 71.3543C98.6337 68.7022 95.2407 67.864 92.208 67.864V81.864ZM91.5598 81.4214C91.153 81.0417 90.9265 80.6258 90.8238 80.3384C90.7349 80.0896 90.776 80.0459 90.776 80.336H104.776C104.776 77.3365 103.95 73.835 101.112 71.1866L91.5598 81.4214ZM90.776 80.336C90.776 80.5004 90.7521 80.409 90.8421 80.1629C90.9415 79.8912 91.125 79.5835 91.3862 79.3223L101.286 89.2217C103.843 86.6645 104.776 83.4112 104.776 80.336H90.776ZM91.3862 79.3223C91.7053 79.0032 92.0458 78.8237 92.2784 78.7426C92.4795 78.6724 92.4927 78.712 92.208 78.712V92.712C95.2407 92.712 98.6337 91.8738 101.286 89.2217L91.3862 79.3223ZM92.208 78.712H83.088V92.712H92.208V78.712ZM76.088 85.712V103.184H90.088V85.712H76.088ZM76.088 103.184C76.088 106.787 76.888 110.797 79.7212 113.928L90.1027 104.536C90.2943 104.747 90.2987 104.866 90.2458 104.691C90.1854 104.49 90.088 104.023 90.088 103.184H76.088ZM79.843 114.06C82.9693 117.342 87.2174 118.248 90.96 118.248V104.248C90.1265 104.248 89.7168 104.143 89.5976 104.103C89.5166 104.076 89.7239 104.134 89.981 104.404L79.843 114.06ZM90.96 118.248C92.3853 118.248 93.8146 118.106 95.222 117.781L92.074 104.139C91.8174 104.198 91.4547 104.248 90.96 104.248V118.248ZM95.222 117.781C95.8056 117.646 96.2552 117.577 96.5857 117.547L95.3182 103.605C94.2408 103.703 93.1543 103.89 92.074 104.139L95.222 117.781ZM96.4507 117.558C96.0026 117.59 95.3511 117.547 94.6252 117.263C93.8896 116.975 93.3316 116.539 92.9569 116.123L103.363 106.757C101.272 104.433 98.3944 103.384 95.4533 103.594L96.4507 117.558ZM93.2102 116.39C92.6281 115.808 92.3208 115.246 92.1728 114.923C92.0236 114.597 91.9761 114.381 91.9708 114.357C91.9634 114.323 91.9793 114.387 91.9956 114.576C92.0114 114.76 92.024 115.023 92.024 115.376H106.024C106.024 114.081 105.938 112.689 105.645 111.355C105.382 110.155 104.775 108.155 103.11 106.49L93.2102 116.39ZM92.024 115.376C92.024 116.142 91.8966 116.481 91.8593 116.565L104.653 122.251C105.639 120.031 106.024 117.682 106.024 115.376H92.024ZM91.8593 116.565C91.9755 116.304 92.1697 116.015 92.4368 115.766C92.6948 115.527 92.9102 115.428 92.9683 115.405L98.1677 128.403C100.968 127.283 103.327 125.233 104.653 122.251L91.8593 116.565ZM93.0551 115.371C93.0576 115.37 93.0196 115.384 92.9323 115.41C92.8459 115.435 92.724 115.467 92.5615 115.503C92.2319 115.576 91.7865 115.655 91.2066 115.731L93.0174 129.613C94.7274 129.39 96.5025 129.044 98.0808 128.437L93.0551 115.371ZM90.8598 115.785C89.7157 115.993 88.9396 116.056 88.464 116.056V130.056C90.0364 130.056 91.6923 129.863 93.3642 129.559L90.8598 115.785ZM121.03 80.528L115.626 76.078L115.58 76.1338L115.536 76.1905L121.03 80.528ZM117.958 82.544L117.14 75.5919L117.14 75.5919L117.958 82.544ZM115.078 81.968L110.878 87.568L111.135 87.761L111.409 87.9296L115.078 81.968ZM115.27 76.016L120.624 80.5249L120.661 80.4816L120.696 80.4377L115.27 76.016ZM118.15 70.832L111.438 68.8434L111.438 68.8434L118.15 70.832ZM118.918 66.224L125.866 65.3766L111.918 66.224H118.918ZM119.398 70.16V77.16H127.303L126.346 69.3126L119.398 70.16ZM113.158 67.952L117.897 62.8005L117.897 62.8005L113.158 67.952ZM112.966 56.144L117.915 61.0937L117.968 61.0411L118.02 60.9873L112.966 56.144ZM126.886 69.008L133.769 70.2826L133.773 70.2606L133.777 70.2385L126.886 69.008ZM125.062 74.48L131.366 77.5232L131.386 77.4818L131.405 77.4402L125.062 74.48ZM115.536 76.1905C115.404 76.357 115.443 76.2611 115.701 76.0917C115.989 75.9026 116.483 75.6692 117.14 75.5919L118.776 89.4961C122.358 89.0746 124.895 86.9284 126.524 84.8655L115.536 76.1905ZM117.14 75.5919C117.24 75.5801 117.473 75.5677 117.795 75.6319C118.125 75.6981 118.455 75.8271 118.746 76.0064L111.409 87.9296C113.745 89.3671 116.324 89.7845 118.776 89.4961L117.14 75.5919ZM119.278 76.368C119.734 76.7104 120.157 77.1938 120.451 77.7815C120.733 78.3462 120.803 78.819 120.818 79.0609L106.842 79.8831C107.008 82.7153 108.228 85.581 110.878 87.568L119.278 76.368ZM120.818 79.0609C120.857 79.7221 120.713 80.2219 120.603 80.4843C120.506 80.7184 120.452 80.7291 120.624 80.5249L109.915 71.507C108.262 73.4706 106.633 76.3319 106.842 79.8831L120.818 79.0609ZM120.696 80.4377C122.555 78.1565 124.032 75.62 124.861 72.8206L111.438 68.8434C111.244 69.5 110.8 70.4195 109.843 71.5943L120.696 80.4377ZM124.861 72.8206C125.504 70.6519 125.918 68.426 125.918 66.224H111.918C111.918 66.71 111.82 67.5561 111.438 68.8434L124.861 72.8206ZM111.969 67.0714L112.449 71.0074L126.346 69.3126L125.866 65.3766L111.969 67.0714ZM119.398 63.16C118.262 63.16 117.98 62.877 117.897 62.8005L108.418 73.1035C111.535 75.971 115.413 77.16 119.398 77.16V63.16ZM117.897 62.8005C117.863 62.7688 117.855 62.7552 117.857 62.7592C117.86 62.7636 117.858 62.7618 117.85 62.7422C117.836 62.7088 117.758 62.4984 117.758 62H103.758C103.758 66.135 105.159 70.1046 108.418 73.1035L117.897 62.8005ZM117.758 62C117.758 61.4902 117.834 61.2492 117.86 61.1816C117.877 61.1346 117.885 61.1246 117.915 61.0937L108.016 51.1942C105.011 54.1996 103.758 58.0486 103.758 62H117.758ZM118.02 60.9873C118.028 60.979 118.021 60.9775 118.074 60.9574C118.153 60.9274 118.43 60.84 119.014 60.84V46.84C114.963 46.84 110.968 48.112 107.912 51.3007L118.02 60.9873ZM119.014 60.84C119.557 60.84 119.775 60.9282 119.797 60.9375C119.811 60.9434 119.806 60.9424 119.795 60.9347C119.785 60.9273 119.797 60.9333 119.829 60.9713L130.486 51.8927C127.47 48.3516 123.333 46.84 119.014 46.84V60.84ZM119.829 60.9713C119.854 61 120.366 61.6134 120.366 63.824H134.366C134.366 59.6346 133.406 55.32 130.486 51.8927L119.829 60.9713ZM120.366 63.824C120.366 65.039 120.249 66.3541 119.995 67.7775L133.777 70.2385C134.163 68.0779 134.366 65.937 134.366 63.824H120.366ZM120.003 67.7334C119.81 68.7741 119.413 70.0305 118.718 71.5198L131.405 77.4402C132.502 75.0895 133.321 72.6978 133.769 70.2826L120.003 67.7334ZM118.758 71.4368C118.175 72.6439 117.183 74.1874 115.626 76.078L126.433 84.9779C128.46 82.5166 130.156 80.0281 131.366 77.5232L118.758 71.4368ZM151.406 122.288L150.207 129.184L150.219 129.187L150.232 129.189L151.406 122.288ZM143.342 119.696L140.212 125.957L140.212 125.957L143.342 119.696ZM140.558 117.296L134.297 120.426L134.417 120.667L134.556 120.897L140.558 117.296ZM139.886 114.224L132.9 113.787L132.9 113.787L139.886 114.224ZM140.846 111.44L135.298 107.172L135.191 107.311L135.091 107.456L140.846 111.44ZM143.246 109.808L145.05 116.572L145.193 116.534L145.334 116.489L143.246 109.808ZM146.606 110.096L143.89 116.547L143.907 116.555L143.925 116.562L146.606 110.096ZM153.806 112.4L152.395 119.256L152.395 119.256L153.806 112.4ZM166.19 111.824L170.143 117.601L170.174 117.58L170.204 117.559L166.19 111.824ZM163.214 104.144L161.968 111.032L162.038 111.045L162.108 111.056L163.214 104.144ZM153.134 102.32L154.381 95.4319L154.369 95.4297L154.357 95.4276L153.134 102.32ZM143.918 98L138.825 102.802L138.896 102.877L138.968 102.95L143.918 98ZM143.438 81.2L148.964 85.4976L148.992 85.461L149.02 85.4241L143.438 81.2ZM150.83 75.824L153.361 82.3505L153.396 82.3371L153.43 82.3233L150.83 75.824ZM169.646 74.672L171.088 67.8221L171.088 67.8221L169.646 74.672ZM176.654 77.168L173.453 83.393L173.488 83.4112L173.524 83.429L176.654 77.168ZM179.054 79.472L172.711 82.4322L172.79 82.6014L172.878 82.7661L179.054 79.472ZM179.534 82.448L172.654 81.158L172.615 81.3679L172.588 81.5798L179.534 82.448ZM175.886 86.864L174.189 80.073L174.135 80.0863L174.083 80.1004L175.886 86.864ZM172.526 86.48L169.555 92.8182L169.739 92.9041L169.927 92.9793L172.526 86.48ZM166.862 84.464L165.106 91.24L165.224 91.2707L165.344 91.2973L166.862 84.464ZM155.63 85.232L159.644 90.9666L159.738 90.9008L159.83 90.832L155.63 85.232ZM154.766 91.472L149.606 96.2021L149.812 96.4264L150.036 96.6321L154.766 91.472ZM158.222 92.912L159.469 86.0239L159.421 86.0152L159.373 86.0072L158.222 92.912ZM168.302 94.736L167.056 101.624L167.095 101.631L167.134 101.638L168.302 94.736ZM177.806 98.96L172.931 103.983L172.97 104.021L173.009 104.057L177.806 98.96ZM175.31 118.928L179.433 124.585L179.441 124.579L179.45 124.573L175.31 118.928ZM160.142 116.056C157.751 116.056 155.233 115.839 152.581 115.387L150.232 129.189C153.596 129.761 156.902 130.056 160.142 130.056V116.056ZM152.606 115.392C150.267 114.985 148.238 114.318 146.473 113.435L140.212 125.957C143.31 127.506 146.657 128.567 150.207 129.184L152.606 115.392ZM146.473 113.435C146.266 113.332 146.216 113.279 146.257 113.314C146.305 113.355 146.431 113.478 146.561 113.695L134.556 120.897C135.984 123.277 138.069 124.886 140.212 125.957L146.473 113.435ZM146.819 114.166C146.799 114.125 146.822 114.16 146.845 114.264C146.868 114.372 146.882 114.511 146.873 114.661L132.9 113.787C132.75 116.182 133.299 118.429 134.297 120.426L146.819 114.166ZM146.873 114.661C146.867 114.749 146.846 114.884 146.792 115.042C146.737 115.201 146.666 115.331 146.602 115.424L135.091 107.456C133.779 109.351 133.042 111.509 132.9 113.787L146.873 114.661ZM146.395 115.708C146.3 115.831 146.127 116.016 145.862 116.196C145.594 116.379 145.31 116.502 145.05 116.572L141.443 103.044C138.906 103.721 136.821 105.192 135.298 107.172L146.395 115.708ZM145.334 116.489C144.937 116.613 144.558 116.64 144.256 116.614C143.973 116.59 143.842 116.527 143.89 116.547L149.323 103.645C146.946 102.644 144.1 102.207 141.158 103.127L145.334 116.489ZM143.925 116.562C146.852 117.776 149.684 118.698 152.395 119.256L155.218 105.544C153.577 105.206 151.609 104.592 149.287 103.63L143.925 116.562ZM152.395 119.256C155.011 119.795 157.628 120.072 160.238 120.072V106.072C158.624 106.072 156.953 105.901 155.218 105.544L152.395 119.256ZM160.238 120.072C163.353 120.072 167.125 119.666 170.143 117.601L162.237 106.047C162.617 105.787 162.761 105.824 162.354 105.909C161.968 105.99 161.29 106.072 160.238 106.072V120.072ZM170.204 117.559C173.116 115.52 175.11 112.338 175.11 108.368H161.11C161.11 107.966 161.214 107.423 161.511 106.888C161.794 106.38 162.106 106.138 162.176 106.089L170.204 117.559ZM175.11 108.368C175.11 105.446 174.066 102.198 171.13 99.9396L162.594 111.036C162.072 110.635 161.641 110.085 161.375 109.471C161.128 108.9 161.11 108.477 161.11 108.368H175.11ZM171.13 99.9396C169.005 98.3048 166.501 97.5809 164.32 97.2319L162.108 111.056C162.566 111.129 162.814 111.206 162.906 111.24C163 111.275 162.853 111.235 162.594 111.036L171.13 99.9396ZM164.461 97.2559L154.381 95.4319L151.888 109.208L161.968 111.032L164.461 97.2559ZM154.357 95.4276C151.368 94.8973 149.758 93.9402 148.868 93.0503L138.968 102.95C142.431 106.412 146.965 108.335 151.911 109.212L154.357 95.4276ZM149.011 93.1979C148.277 92.4195 147.75 91.3636 147.75 89.456H133.75C133.75 94.4604 135.335 99.1005 138.825 102.802L149.011 93.1979ZM147.75 89.456C147.75 87.6535 148.221 86.4529 148.964 85.4976L137.913 76.9024C135.072 80.5551 133.75 84.8585 133.75 89.456H147.75ZM149.02 85.4241C149.928 84.2241 151.271 83.1608 153.361 82.3505L148.3 69.2975C144.117 70.9192 140.532 73.4399 137.856 76.9759L149.02 85.4241ZM153.43 82.3233C155.675 81.4252 158.388 80.904 161.678 80.904V66.904C156.905 66.904 152.385 67.6628 148.231 69.3247L153.43 82.3233ZM161.678 80.904C164.148 80.904 166.314 81.1239 168.204 81.5218L171.088 67.8221C168.114 67.1961 164.968 66.904 161.678 66.904V80.904ZM168.204 81.5218C170.016 81.9033 171.761 82.523 173.453 83.393L179.856 70.943C177.067 69.509 174.14 68.4647 171.088 67.8221L168.204 81.5218ZM173.524 83.429C173.569 83.4516 173.453 83.4009 173.271 83.2257C173.077 83.0399 172.869 82.7713 172.711 82.4322L185.398 76.5118C184.147 73.8317 182.035 72.0321 179.785 70.907L173.524 83.429ZM172.878 82.7661C172.801 82.6214 172.7 82.3772 172.648 82.0506C172.594 81.7201 172.607 81.4101 172.654 81.158L186.414 83.738C186.913 81.0772 186.456 78.4744 185.231 76.1779L172.878 82.7661ZM172.588 81.5798C172.6 81.4876 172.628 81.366 172.682 81.2355C172.736 81.1057 172.796 81.0137 172.834 80.964L183.931 89.5C185.317 87.6973 186.195 85.5999 186.48 83.3162L172.588 81.5798ZM172.834 80.964C172.966 80.7922 173.17 80.5869 173.448 80.4052C173.725 80.2238 173.99 80.1227 174.189 80.073L177.584 93.655C180.13 93.0185 182.322 91.5906 183.931 89.5L172.834 80.964ZM174.083 80.1004C175.05 79.8423 175.536 80.1448 175.126 79.9807L169.927 92.9793C172.076 93.8392 174.802 94.3977 177.69 93.6276L174.083 80.1004ZM175.497 80.1418C173.106 79.0209 170.725 78.1517 168.381 77.6307L165.344 91.2973C166.455 91.5443 167.85 92.0191 169.555 92.8182L175.497 80.1418ZM168.619 77.688C166.383 77.1082 164.127 76.792 161.87 76.792V90.792C162.814 90.792 163.886 90.9238 165.106 91.24L168.619 77.688ZM161.87 76.792C158.541 76.792 154.562 77.2834 151.43 79.632L159.83 90.832C159.475 91.0983 159.334 91.0628 159.724 90.9727C160.105 90.885 160.789 90.792 161.87 90.792V76.792ZM151.616 79.4974C148.704 81.5357 146.71 84.7185 146.71 88.688H160.71C160.71 89.0896 160.607 89.6326 160.309 90.1675C160.027 90.6763 159.714 90.9179 159.644 90.9666L151.616 79.4974ZM146.71 88.688C146.71 91.442 147.662 94.0815 149.606 96.2021L159.926 86.7419C160.144 86.9795 160.365 87.3103 160.519 87.7174C160.672 88.1195 160.71 88.4654 160.71 88.688H146.71ZM150.036 96.6321C152.183 98.5999 154.818 99.4412 157.071 99.8168L159.373 86.0072C159.197 85.9779 159.072 85.9488 158.991 85.9265C158.909 85.9042 158.882 85.8917 158.899 85.8985C158.928 85.9107 159.176 86.0187 159.496 86.3119L150.036 96.6321ZM156.976 99.8001L167.056 101.624L169.549 87.8479L159.469 86.0239L156.976 99.8001ZM167.134 101.638C170.426 102.195 172.099 103.176 172.931 103.983L182.682 93.9369C179.161 90.5202 174.498 88.685 169.47 87.8341L167.134 101.638ZM173.009 104.057C173.503 104.522 174.07 105.338 174.07 107.408H188.07C188.07 102.31 186.462 97.4938 182.604 93.8626L173.009 104.057ZM174.07 107.408C174.07 110.099 173.167 111.819 171.171 113.283L179.45 124.573C185.133 120.405 188.07 114.445 188.07 107.408H174.07ZM171.187 113.271C168.969 114.887 165.515 116.056 160.142 116.056V130.056C167.441 130.056 174.099 128.473 179.433 124.585L171.187 113.271ZM238.141 121.04L241.213 114.75L238.141 121.04ZM231.709 115.568L225.884 119.451L225.884 119.451L231.709 115.568ZM232.093 99.632L237.287 104.324L237.324 104.283L237.361 104.242L232.093 99.632ZM240.829 95.312L242.243 102.168L242.295 102.157L242.347 102.145L240.829 95.312ZM261.949 93.968H268.949V86.968H261.949V93.968ZM261.949 101.456V108.456H268.949V101.456H261.949ZM248.989 102.032L250.103 108.943L250.191 108.929L250.279 108.912L248.989 102.032ZM244.669 103.76L239.906 98.6304L239.811 98.7186L239.719 98.8103L244.669 103.76ZM245.245 111.632L240.431 116.714L240.495 116.775L240.562 116.835L245.245 111.632ZM255.613 112.112L259.174 118.138L259.213 118.115L259.252 118.091L255.613 112.112ZM259.069 108.56L265.163 112.004L265.194 111.949L265.224 111.894L259.069 108.56ZM258.397 86.384L253.575 91.459L253.644 91.524L253.714 91.5871L258.397 86.384ZM246.205 85.232L247.535 92.1045L247.618 92.0884L247.701 92.0703L246.205 85.232ZM239.581 87.248L237.011 80.7369L236.846 80.802L236.684 80.8754L239.581 87.248ZM235.837 87.728L233.507 94.3289L233.683 94.391L233.862 94.4436L235.837 87.728ZM233.341 85.808L227.338 89.4095L227.394 89.5023L227.452 89.5933L233.341 85.808ZM233.437 79.472L239.373 83.182L239.423 83.1022L239.47 83.0211L233.437 79.472ZM236.605 77.072L238.904 83.6835L239.068 83.6266L239.228 83.5618L236.605 77.072ZM245.053 74.576L243.902 67.6712L243.888 67.6735L243.875 67.6758L245.053 74.576ZM264.541 76.112L261.566 82.4487L261.644 82.4849L261.722 82.5192L264.541 76.112ZM271.741 82.736L265.561 86.0233L265.575 86.051L265.59 86.0786L271.741 82.736ZM272.413 120.944L267.21 116.261L267.21 116.261L272.413 120.944ZM262.333 120.944L257.13 125.627L257.193 125.697L257.258 125.765L262.333 120.944ZM260.605 111.92L265.16 106.605L253.605 96.7005V111.92H260.605ZM261.277 112.496L268.17 113.712L268.864 109.78L265.832 107.181L261.277 112.496ZM258.781 118.16L253.315 113.787L253.303 113.801L253.292 113.815L258.781 118.16ZM254.077 121.808L256.86 128.231L256.949 128.192L257.037 128.151L254.077 121.808ZM247.453 116.056C244.924 116.056 242.892 115.57 241.213 114.75L235.069 127.33C238.894 129.198 243.07 130.056 247.453 130.056V116.056ZM241.213 114.75C239.454 113.891 238.31 112.85 237.533 111.685L225.884 119.451C228.18 122.894 231.324 125.501 235.069 127.33L241.213 114.75ZM237.533 111.685C236.796 110.579 236.405 109.349 236.405 107.792H222.405C222.405 111.995 223.55 115.949 225.884 119.451L237.533 111.685ZM236.405 107.792C236.405 105.548 236.965 104.681 237.287 104.324L226.898 94.94C223.636 98.5514 222.405 103.124 222.405 107.792H236.405ZM237.361 104.242C237.749 103.798 238.979 102.841 242.243 102.168L239.414 88.4564C234.614 89.4469 230.02 91.3702 226.825 95.0225L237.361 104.242ZM242.347 102.145C245.673 101.406 250.446 100.968 256.861 100.968V86.968C249.963 86.968 244.049 87.4257 239.31 88.4787L242.347 102.145ZM256.861 100.968H261.949V86.968H256.861V100.968ZM254.949 93.968V101.456H268.949V93.968H254.949ZM261.949 94.456H256.957V108.456H261.949V94.456ZM256.957 94.456C253.473 94.456 250.34 94.6566 247.699 95.1519L250.279 108.912C251.733 108.639 253.912 108.456 256.957 108.456V94.456ZM247.874 95.1213C245.319 95.5334 242.277 96.4284 239.906 98.6304L249.432 108.89C249.105 109.193 248.894 109.254 249.02 109.203C249.146 109.153 249.479 109.043 250.103 108.943L247.874 95.1213ZM239.719 98.8103C237.263 101.266 236.421 104.38 236.421 107.216H250.421C250.421 107.132 250.433 107.303 250.317 107.626C250.19 107.976 249.959 108.369 249.618 108.71L239.719 98.8103ZM236.421 107.216C236.421 110.78 237.714 114.14 240.431 116.714L250.059 106.55C250.086 106.576 250.136 106.629 250.194 106.713C250.253 106.797 250.306 106.892 250.347 106.992C250.434 107.203 250.421 107.31 250.421 107.216H236.421ZM240.562 116.835C243.541 119.517 247.272 120.36 250.717 120.36V106.36C250.085 106.36 249.771 106.281 249.681 106.253C249.616 106.232 249.746 106.265 249.927 106.429L240.562 116.835ZM250.717 120.36C253.653 120.36 256.548 119.69 259.174 118.138L252.052 106.086C251.861 106.198 251.492 106.36 250.717 106.36V120.36ZM259.252 118.091C261.725 116.586 263.731 114.538 265.163 112.004L252.975 105.116C252.743 105.526 252.444 105.846 251.973 106.133L259.252 118.091ZM265.224 111.894C266.664 109.235 267.317 106.342 267.317 103.376H253.317C253.317 104.25 253.138 104.813 252.914 105.226L265.224 111.894ZM267.317 103.376V92.336H253.317V103.376H267.317ZM267.317 92.336C267.317 88.7573 266.548 84.3023 263.079 81.1809L253.714 91.5871C253.261 91.1795 253.154 90.8207 253.175 90.885C253.187 90.9245 253.225 91.0558 253.258 91.3051C253.291 91.5538 253.317 91.8928 253.317 92.336H267.317ZM263.218 81.309C259.961 78.2149 255.513 77.56 251.869 77.56V91.56C252.98 91.56 253.621 91.674 253.921 91.7578C254.208 91.838 253.963 91.8276 253.575 91.459L263.218 81.309ZM251.869 77.56C249.545 77.56 247.148 77.8601 244.709 78.3937L247.701 92.0703C249.357 91.7079 250.737 91.56 251.869 91.56V77.56ZM244.875 78.3595C242.365 78.8453 239.734 79.662 237.011 80.7369L242.151 93.7591C244.292 92.914 246.077 92.3867 247.535 92.1045L244.875 78.3595ZM236.684 80.8754C236.477 80.9697 236.491 80.9314 236.699 80.9048C236.93 80.8752 237.33 80.8707 237.812 81.0124L233.862 94.4436C237.066 95.3862 240.098 94.7023 242.477 93.6206L236.684 80.8754ZM238.166 81.1271C238.251 81.157 238.439 81.2381 238.665 81.4116C238.896 81.5892 239.089 81.8045 239.229 82.0227L227.452 89.5933C228.941 91.9082 231.083 93.4734 233.507 94.3289L238.166 81.1271ZM239.343 82.2065C239.358 82.232 239.398 82.3072 239.431 82.4248C239.465 82.5436 239.477 82.654 239.477 82.736H225.477C225.477 85.1308 226.129 87.3947 227.338 89.4095L239.343 82.2065ZM239.477 82.736C239.477 82.8179 239.464 82.9236 239.432 83.0312C239.401 83.1365 239.368 83.1888 239.373 83.182L227.501 75.762C226.201 77.8423 225.477 80.2073 225.477 82.736H239.477ZM239.47 83.0211C239.304 83.3043 239.1 83.5111 238.936 83.6356C238.787 83.7486 238.742 83.74 238.904 83.6835L234.305 70.4605C231.646 71.3855 229.069 73.0903 227.403 75.9229L239.47 83.0211ZM239.228 83.5618C241.868 82.4947 244.196 81.8236 246.231 81.4762L243.875 67.6758C240.662 68.2244 237.358 69.2173 233.981 70.5822L239.228 83.5618ZM246.204 81.4808C248.59 81.0831 250.662 80.904 252.445 80.904V66.904C249.747 66.904 246.892 67.1729 243.902 67.6712L246.204 81.4808ZM252.445 80.904C256.749 80.904 259.668 81.5577 261.566 82.4487L267.515 69.7753C263.141 67.7223 257.997 66.904 252.445 66.904V80.904ZM261.722 82.5192C263.523 83.312 264.719 84.4419 265.561 86.0233L277.921 79.4487C275.562 75.0141 271.958 71.728 267.36 69.7048L261.722 82.5192ZM265.59 86.0786C266.456 87.6719 267.141 90.2197 267.141 94.16H281.141C281.141 88.7563 280.225 83.6881 277.891 79.3934L265.59 86.0786ZM267.141 94.16V115.472H281.141V94.16H267.141ZM267.141 115.472C267.141 116.104 267.062 116.418 267.034 116.508C267.013 116.573 267.046 116.443 267.21 116.261L277.616 125.627C280.297 122.647 281.141 118.917 281.141 115.472H267.141ZM267.21 116.261C267.292 116.17 267.394 116.079 267.509 116C267.624 115.922 267.723 115.876 267.788 115.851C267.913 115.802 267.833 115.864 267.421 115.864V129.864C271.021 129.864 274.803 128.752 277.616 125.627L267.21 116.261ZM267.421 115.864C267.012 115.864 266.906 115.804 266.988 115.835C267.03 115.851 267.102 115.883 267.188 115.94C267.274 115.997 267.349 116.061 267.408 116.123L257.258 125.765C260.091 128.748 263.803 129.864 267.421 129.864V115.864ZM267.536 116.261C267.7 116.443 267.732 116.573 267.712 116.508C267.683 116.418 267.605 116.104 267.605 115.472H253.605C253.605 118.917 254.448 122.647 257.13 125.627L267.536 116.261ZM267.605 115.472V111.92H253.605V115.472H267.605ZM256.049 117.235L256.721 117.811L265.832 107.181L265.16 106.605L256.049 117.235ZM254.383 111.279C254.187 112.393 253.805 113.174 253.315 113.787L264.247 122.533C266.316 119.946 267.599 116.951 268.17 113.712L254.383 111.279ZM253.292 113.815C252.806 114.429 252.132 114.991 251.117 115.465L257.037 128.151C259.861 126.833 262.323 124.963 264.269 122.505L253.292 113.815ZM251.293 115.385C250.404 115.77 249.173 116.056 247.453 116.056V130.056C250.725 130.056 253.909 129.51 256.86 128.231L251.293 115.385ZM329.143 120.944L324.068 125.765L324.13 125.83L324.193 125.894L329.143 120.944ZM329.143 76.016L324.193 71.0662L324.193 71.0663L329.143 76.016ZM339.703 76.016L334.628 80.8372L334.69 80.9023L334.753 80.9657L339.703 76.016ZM341.527 87.536L334.777 89.3921L348.527 87.536H341.527ZM340.471 83.696L334.051 80.9049L333.066 83.1703L333.721 85.5521L340.471 83.696ZM346.423 76.592L350.306 82.4164L350.306 82.4163L346.423 76.592ZM365.047 76.496L360.992 82.2023L360.992 82.2023L365.047 76.496ZM370.231 84.464V91.464H379.511L376.961 82.5409L370.231 84.464ZM368.887 84.464L362.459 81.6914L358.244 91.464H368.887V84.464ZM375.319 76.784L379.111 82.668L379.127 82.6577L379.143 82.6473L375.319 76.784ZM394.327 76.112L390.558 82.0109L390.653 82.0713L390.749 82.1288L394.327 76.112ZM399.607 82.64L393.088 85.1908L393.098 85.2153L393.107 85.2397L399.607 82.64ZM399.415 120.944L394.465 115.994L394.402 116.058L394.34 116.123L399.415 120.944ZM388.663 120.944L383.588 125.765L383.65 125.83L383.713 125.894L388.663 120.944ZM385.303 87.344L379.439 91.1679L379.537 91.3171L379.642 91.4612L385.303 87.344ZM369.655 120.944L364.705 115.994L364.642 116.058L364.58 116.123L369.655 120.944ZM358.999 120.944L363.948 115.994L363.948 115.994L358.999 120.944ZM355.543 87.344L349.679 91.1679L349.777 91.3171L349.882 91.4612L355.543 87.344ZM344.119 88.016L349.585 92.3889L349.585 92.3889L344.119 88.016ZM334.615 115.864C334.049 115.864 333.809 115.786 333.788 115.779C333.781 115.776 333.82 115.79 333.887 115.831C333.955 115.873 334.027 115.929 334.092 115.994L324.193 125.894C327.154 128.855 330.985 129.864 334.615 129.864V115.864ZM334.218 116.123C334.289 116.197 334.343 116.272 334.38 116.336C334.416 116.397 334.423 116.426 334.416 116.402C334.397 116.347 334.319 116.071 334.319 115.472H320.319C320.319 119.008 321.243 122.792 324.068 125.765L334.218 116.123ZM334.319 115.472V81.392H320.319V115.472H334.319ZM334.319 81.392C334.319 80.7889 334.398 80.5369 334.404 80.5211C334.404 80.519 334.385 80.5746 334.33 80.6655C334.274 80.7585 334.194 80.8638 334.092 80.9657L324.193 71.0663C321.233 74.0262 320.319 77.8822 320.319 81.392H334.319ZM334.092 80.9657C334.048 81.01 333.992 81.0555 333.931 81.0944C333.87 81.1329 333.826 81.1504 333.815 81.1546C333.794 81.162 333.963 81.096 334.423 81.096V67.096C330.793 67.096 327.083 68.1764 324.193 71.0662L334.092 80.9657ZM334.423 81.096C334.94 81.096 335.119 81.1692 335.079 81.1546C335.055 81.1458 334.986 81.1178 334.894 81.0581C334.8 80.9975 334.708 80.9217 334.628 80.8372L344.778 71.1947C341.87 68.1336 338.031 67.096 334.423 67.096V81.096ZM334.753 80.9657C334.651 80.8638 334.572 80.7585 334.515 80.6655C334.46 80.5746 334.441 80.519 334.442 80.5211C334.447 80.5369 334.527 80.7889 334.527 81.392H348.527C348.527 77.8822 347.612 74.0262 344.652 71.0663L334.753 80.9657ZM334.527 81.392V87.536H348.527V81.392H334.527ZM348.276 85.6799L347.22 81.8399L333.721 85.5521L334.777 89.3921L348.276 85.6799ZM346.89 86.4871C347.63 84.7852 348.73 83.4671 350.306 82.4164L342.54 70.7676C338.74 73.3009 335.871 76.7188 334.051 80.9049L346.89 86.4871ZM350.306 82.4163C351.699 81.4873 353.476 80.904 355.927 80.904V66.904C351.081 66.904 346.522 68.1127 342.54 70.7676L350.306 82.4163ZM355.927 80.904C358.451 80.904 359.987 81.4881 360.992 82.2023L369.101 70.7897C365.242 68.0479 360.699 66.904 355.927 66.904V80.904ZM360.992 82.2023C361.833 82.7993 362.801 83.9413 363.5 86.387L376.961 82.5409C375.612 77.8187 373.125 73.6487 369.101 70.7897L360.992 82.2023ZM370.231 77.464H368.887V91.464H370.231V77.464ZM375.314 87.2366C376.194 85.1977 377.444 83.7421 379.111 82.668L371.527 70.9C367.433 73.5379 364.396 77.2023 362.459 81.6914L375.314 87.2366ZM379.143 82.6473C380.864 81.5247 382.875 80.904 385.399 80.904V66.904C380.37 66.904 375.662 68.2033 371.495 70.9207L379.143 82.6473ZM385.399 80.904C388.147 80.904 389.698 81.4611 390.558 82.0109L398.095 70.2131C394.348 67.8189 389.947 66.904 385.399 66.904V80.904ZM390.749 82.1288C391.585 82.626 392.416 83.4731 393.088 85.1908L406.125 80.0892C404.494 75.9189 401.804 72.414 397.904 70.0952L390.749 82.1288ZM393.107 85.2397C393.816 87.0122 394.335 89.7278 394.335 93.68H408.335C408.335 88.6722 407.701 84.0278 406.106 80.0403L393.107 85.2397ZM394.335 93.68V115.472H408.335V93.68H394.335ZM394.335 115.472C394.335 116.038 394.257 116.277 394.25 116.298C394.247 116.305 394.26 116.266 394.302 116.2C394.344 116.132 394.4 116.06 394.465 115.994L404.365 125.894C407.325 122.933 408.335 119.102 408.335 115.472H394.335ZM394.34 116.123C394.42 116.038 394.512 115.963 394.606 115.902C394.698 115.842 394.767 115.814 394.791 115.805C394.831 115.791 394.652 115.864 394.135 115.864V129.864C397.743 129.864 401.582 128.826 404.49 125.765L394.34 116.123ZM394.135 115.864C393.569 115.864 393.33 115.786 393.308 115.779C393.301 115.776 393.34 115.79 393.407 115.831C393.475 115.873 393.547 115.929 393.613 115.994L383.713 125.894C386.674 128.855 390.505 129.864 394.135 129.864V115.864ZM393.738 116.123C393.809 116.197 393.863 116.272 393.9 116.336C393.936 116.397 393.943 116.425 393.936 116.402C393.917 116.347 393.839 116.071 393.839 115.472H379.839C379.839 119.008 380.763 122.792 383.588 125.765L393.738 116.123ZM393.839 115.472V94.16H379.839V115.472H393.839ZM393.839 94.16C393.839 90.5833 393.316 86.4614 390.964 83.2268L379.642 91.4612C379.438 91.1811 379.513 91.1397 379.626 91.6429C379.737 92.1344 379.839 92.944 379.839 94.16H393.839ZM391.166 83.5201C388.485 79.4086 384.133 78.136 380.311 78.136V92.136C380.801 92.136 380.789 92.216 380.503 92.0897C380.351 92.0225 380.152 91.9093 379.944 91.7341C379.734 91.5576 379.565 91.3598 379.439 91.1679L391.166 83.5201ZM380.311 78.136C375.72 78.136 371.447 79.8502 368.413 83.6431L379.345 92.3889C379.408 92.31 379.447 92.2775 379.459 92.2685C379.469 92.2604 379.479 92.254 379.499 92.2448C379.53 92.2309 379.753 92.136 380.311 92.136V78.136ZM368.413 83.6431C365.534 87.2417 364.575 91.7356 364.575 96.176H378.575C378.575 93.5764 379.152 92.6303 379.345 92.3889L368.413 83.6431ZM364.575 96.176V115.472H378.575V96.176H364.575ZM364.575 115.472C364.575 116.038 364.497 116.277 364.49 116.298C364.487 116.305 364.5 116.266 364.542 116.2C364.584 116.132 364.64 116.06 364.705 115.994L374.605 125.894C377.565 122.933 378.575 119.102 378.575 115.472H364.575ZM364.58 116.123C364.66 116.038 364.752 115.963 364.846 115.902C364.938 115.842 365.007 115.814 365.031 115.805C365.071 115.791 364.892 115.864 364.375 115.864V129.864C367.983 129.864 371.822 128.826 374.73 125.765L364.58 116.123ZM364.375 115.864C363.861 115.864 363.657 115.792 363.657 115.792C363.657 115.792 363.66 115.793 363.665 115.795C363.67 115.797 363.678 115.801 363.688 115.805C363.708 115.815 363.734 115.829 363.765 115.848C363.83 115.889 363.894 115.939 363.948 115.994L354.049 125.894C356.975 128.82 360.746 129.864 364.375 129.864V115.864ZM363.948 115.994C364.014 116.06 364.07 116.132 364.112 116.2C364.153 116.266 364.166 116.305 364.164 116.298C364.157 116.277 364.079 116.038 364.079 115.472H350.079C350.079 119.102 351.088 122.933 354.049 125.894L363.948 115.994ZM364.079 115.472V94.16H350.079V115.472H364.079ZM364.079 94.16C364.079 90.5833 363.556 86.4614 361.204 83.2268L349.882 91.4612C349.678 91.1811 349.753 91.1397 349.866 91.6429C349.977 92.1344 350.079 92.944 350.079 94.16H364.079ZM361.406 83.5201C358.725 79.4086 354.373 78.136 350.551 78.136V92.136C351.041 92.136 351.029 92.216 350.743 92.0897C350.591 92.0225 350.392 91.9093 350.184 91.7341C349.974 91.5576 349.805 91.3598 349.679 91.1679L361.406 83.5201ZM350.551 78.136C345.96 78.136 341.687 79.8502 338.653 83.6431L349.585 92.3889C349.648 92.31 349.687 92.2775 349.699 92.2685C349.709 92.2604 349.719 92.254 349.739 92.2448C349.77 92.2309 349.993 92.136 350.551 92.136V78.136ZM338.653 83.6431C335.774 87.2417 334.815 91.7356 334.815 96.176H348.815C348.815 93.5764 349.392 92.6303 349.585 92.3889L338.653 83.6431ZM334.815 96.176V115.472H348.815V96.176H334.815ZM334.815 115.472C334.815 115.807 334.794 116.059 334.769 116.24C334.744 116.42 334.716 116.516 334.707 116.544C334.698 116.571 334.709 116.53 334.759 116.445C334.81 116.357 334.889 116.246 335 116.132C335.112 116.017 335.228 115.928 335.331 115.865C335.432 115.802 335.496 115.78 335.498 115.779C335.498 115.779 335.434 115.801 335.286 115.823C335.138 115.844 334.918 115.864 334.615 115.864V129.864C338.141 129.864 342.061 128.948 345.029 125.9C347.964 122.887 348.815 118.969 348.815 115.472H334.815ZM426.743 121.04L429.815 114.75L426.743 121.04ZM420.311 115.568L414.487 119.451L414.487 119.451L420.311 115.568ZM420.695 99.632L425.89 104.324L425.927 104.283L425.963 104.242L420.695 99.632ZM429.431 95.312L430.846 102.168L430.898 102.157L430.95 102.145L429.431 95.312ZM450.551 93.968H457.551V86.968H450.551V93.968ZM450.551 101.456V108.456H457.551V101.456H450.551ZM437.591 102.032L438.706 108.943L438.794 108.929L438.881 108.912L437.591 102.032ZM433.271 103.76L428.508 98.6304L428.413 98.7186L428.321 98.8103L433.271 103.76ZM433.847 111.632L429.033 116.714L429.098 116.775L429.164 116.835L433.847 111.632ZM444.215 112.112L447.776 118.138L447.816 118.115L447.855 118.091L444.215 112.112ZM447.671 108.56L453.765 112.004L453.796 111.949L453.826 111.894L447.671 108.56ZM446.999 86.384L442.178 91.459L442.246 91.524L442.316 91.5871L446.999 86.384ZM434.807 85.232L436.137 92.1045L436.22 92.0884L436.303 92.0703L434.807 85.232ZM428.183 87.248L425.613 80.7369L425.448 80.802L425.287 80.8754L428.183 87.248ZM424.439 87.728L422.11 94.3289L422.285 94.391L422.464 94.4436L424.439 87.728ZM421.943 85.808L415.941 89.4095L415.996 89.5023L416.055 89.5933L421.943 85.808ZM422.039 79.472L427.975 83.182L428.025 83.1022L428.073 83.0211L422.039 79.472ZM425.207 77.072L427.507 83.6835L427.67 83.6266L427.831 83.5618L425.207 77.072ZM433.655 74.576L432.504 67.6712L432.491 67.6735L432.477 67.6758L433.655 74.576ZM453.143 76.112L450.169 82.4487L450.246 82.4849L450.324 82.5192L453.143 76.112ZM460.343 82.736L454.163 86.0233L454.178 86.051L454.193 86.0786L460.343 82.736ZM461.015 120.944L455.812 116.261L455.812 116.261L461.015 120.944ZM450.935 120.944L445.732 125.627L445.795 125.697L445.86 125.765L450.935 120.944ZM449.207 111.92L453.763 106.605L442.207 96.7005V111.92H449.207ZM449.879 112.496L456.773 113.712L457.467 109.78L454.435 107.181L449.879 112.496ZM447.383 118.16L441.917 113.787L441.906 113.801L441.895 113.815L447.383 118.16ZM442.679 121.808L445.462 128.231L445.552 128.192L445.639 128.151L442.679 121.808ZM436.055 116.056C433.526 116.056 431.494 115.57 429.815 114.75L423.671 127.33C427.496 129.198 431.672 130.056 436.055 130.056V116.056ZM429.815 114.75C428.056 113.891 426.912 112.85 426.136 111.685L414.487 119.451C416.782 122.894 419.926 125.501 423.671 127.33L429.815 114.75ZM426.136 111.685C425.398 110.579 425.007 109.349 425.007 107.792H411.007C411.007 111.995 412.152 115.949 414.487 119.451L426.136 111.685ZM425.007 107.792C425.007 105.548 425.568 104.681 425.89 104.324L415.501 94.94C412.239 98.5514 411.007 103.124 411.007 107.792H425.007ZM425.963 104.242C426.352 103.798 427.582 102.841 430.846 102.168L428.017 88.4564C423.217 89.4469 418.623 91.3702 415.427 95.0225L425.963 104.242ZM430.95 102.145C434.275 101.406 439.048 100.968 445.463 100.968V86.968C438.566 86.968 432.651 87.4257 427.913 88.4787L430.95 102.145ZM445.463 100.968H450.551V86.968H445.463V100.968ZM443.551 93.968V101.456H457.551V93.968H443.551ZM450.551 94.456H445.559V108.456H450.551V94.456ZM445.559 94.456C442.076 94.456 438.943 94.6566 436.301 95.1519L438.881 108.912C440.336 108.639 442.515 108.456 445.559 108.456V94.456ZM436.477 95.1213C433.922 95.5334 430.879 96.4284 428.508 98.6304L438.034 108.89C437.708 109.193 437.497 109.254 437.623 109.203C437.748 109.153 438.082 109.043 438.706 108.943L436.477 95.1213ZM428.321 98.8103C425.865 101.266 425.023 104.38 425.023 107.216H439.023C439.023 107.132 439.036 107.303 438.919 107.626C438.793 107.976 438.562 108.369 438.221 108.71L428.321 98.8103ZM425.023 107.216C425.023 110.78 426.316 114.14 429.033 116.714L438.661 106.55C438.688 106.576 438.739 106.629 438.797 106.713C438.856 106.797 438.908 106.892 438.949 106.992C439.036 107.203 439.023 107.31 439.023 107.216H425.023ZM429.164 116.835C432.144 119.517 435.874 120.36 439.319 120.36V106.36C438.687 106.36 438.374 106.281 438.283 106.253C438.218 106.232 438.348 106.265 438.53 106.429L429.164 116.835ZM439.319 120.36C442.256 120.36 445.151 119.69 447.776 118.138L440.654 106.086C440.464 106.198 440.095 106.36 439.319 106.36V120.36ZM447.855 118.091C450.328 116.586 452.333 114.538 453.765 112.004L441.577 105.116C441.345 105.526 441.047 105.846 440.576 106.133L447.855 118.091ZM453.826 111.894C455.266 109.235 455.919 106.342 455.919 103.376H441.919C441.919 104.25 441.74 104.813 441.516 105.226L453.826 111.894ZM455.919 103.376V92.336H441.919V103.376H455.919ZM455.919 92.336C455.919 88.7573 455.15 84.3023 451.682 81.1809L442.316 91.5871C441.864 91.1795 441.757 90.8207 441.777 90.885C441.79 90.9245 441.827 91.0558 441.861 91.3051C441.894 91.5538 441.919 91.8928 441.919 92.336H455.919ZM451.82 81.309C448.564 78.2149 444.115 77.56 440.471 77.56V91.56C441.582 91.56 442.224 91.674 442.524 91.7578C442.811 91.838 442.566 91.8276 442.178 91.459L451.82 81.309ZM440.471 77.56C438.147 77.56 435.751 77.8601 433.311 78.3937L436.303 92.0703C437.96 91.7079 439.339 91.56 440.471 91.56V77.56ZM433.477 78.3595C430.967 78.8453 428.336 79.662 425.613 80.7369L430.753 93.7591C432.894 92.914 434.679 92.3867 436.137 92.1045L433.477 78.3595ZM425.287 80.8754C425.079 80.9697 425.094 80.9314 425.301 80.9048C425.532 80.8752 425.932 80.8707 426.414 81.0124L422.464 94.4436C425.669 95.3862 428.7 94.7023 431.08 93.6206L425.287 80.8754ZM426.769 81.1271C426.854 81.157 427.042 81.2381 427.267 81.4116C427.498 81.5892 427.691 81.8045 427.831 82.0227L416.055 89.5933C417.543 91.9082 419.685 93.4734 422.11 94.3289L426.769 81.1271ZM427.946 82.2065C427.961 82.232 428.001 82.3072 428.034 82.4248C428.067 82.5436 428.079 82.654 428.079 82.736H414.079C414.079 85.1308 414.732 87.3947 415.941 89.4095L427.946 82.2065ZM428.079 82.736C428.079 82.8179 428.066 82.9236 428.035 83.0312C428.004 83.1365 427.971 83.1888 427.975 83.182L416.103 75.762C414.803 77.8423 414.079 80.2073 414.079 82.736H428.079ZM428.073 83.0211C427.906 83.3043 427.703 83.5111 427.538 83.6356C427.389 83.7486 427.344 83.74 427.507 83.6835L422.908 70.4605C420.248 71.3855 417.672 73.0903 416.006 75.9229L428.073 83.0211ZM427.831 83.5618C430.47 82.4947 432.798 81.8236 434.833 81.4762L432.477 67.6758C429.264 68.2244 425.96 69.2173 422.584 70.5822L427.831 83.5618ZM434.806 81.4808C437.192 81.0831 439.265 80.904 441.047 80.904V66.904C438.35 66.904 435.494 67.1729 432.504 67.6712L434.806 81.4808ZM441.047 80.904C445.351 80.904 448.271 81.5577 450.169 82.4487L456.118 69.7753C451.744 67.7223 446.599 66.904 441.047 66.904V80.904ZM450.324 82.5192C452.126 83.312 453.322 84.4419 454.163 86.0233L466.523 79.4487C464.165 75.0141 460.561 71.728 455.962 69.7048L450.324 82.5192ZM454.193 86.0786C455.059 87.6719 455.743 90.2197 455.743 94.16H469.743C469.743 88.7563 468.828 83.6881 466.494 79.3934L454.193 86.0786ZM455.743 94.16V115.472H469.743V94.16H455.743ZM455.743 115.472C455.743 116.104 455.665 116.418 455.636 116.508C455.616 116.573 455.648 116.443 455.812 116.261L466.218 125.627C468.9 122.647 469.743 118.917 469.743 115.472H455.743ZM455.812 116.261C455.895 116.17 455.997 116.079 456.112 116C456.226 115.922 456.325 115.876 456.39 115.851C456.516 115.802 456.436 115.864 456.023 115.864V129.864C459.624 129.864 463.405 128.752 466.218 125.627L455.812 116.261ZM456.023 115.864C455.615 115.864 455.508 115.804 455.591 115.835C455.633 115.851 455.705 115.883 455.79 115.94C455.877 115.997 455.952 116.061 456.01 116.123L445.86 125.765C448.694 128.748 452.406 129.864 456.023 129.864V115.864ZM456.138 116.261C456.302 116.443 456.335 116.573 456.314 116.508C456.286 116.418 456.207 116.104 456.207 115.472H442.207C442.207 118.917 443.051 122.647 445.732 125.627L456.138 116.261ZM456.207 115.472V111.92H442.207V115.472H456.207ZM444.652 117.235L445.324 117.811L454.435 107.181L453.763 106.605L444.652 117.235ZM442.986 111.279C442.789 112.393 442.408 113.174 441.917 113.787L452.849 122.533C454.919 119.946 456.201 116.951 456.773 113.712L442.986 111.279ZM441.895 113.815C441.409 114.429 440.734 114.991 439.719 115.465L445.639 128.151C448.464 126.833 450.926 124.963 452.872 122.505L441.895 113.815ZM439.896 115.385C439.007 115.77 437.775 116.056 436.055 116.056V130.056C439.327 130.056 442.512 129.51 445.462 128.231L439.896 115.385ZM493.237 120.848L490.106 127.109L490.133 127.122L490.16 127.136L493.237 120.848ZM486.613 114.416L480.352 117.546L480.38 117.603L480.409 117.659L486.613 114.416ZM484.501 85.712H491.501V78.712H484.501V85.712ZM476.245 84.272L471.295 89.2217L471.375 89.3016L471.457 89.3788L476.245 84.272ZM476.245 76.304L481.021 81.4214L481.027 81.4161L481.032 81.4108L476.245 76.304ZM484.501 74.864V81.864H491.501V74.864H484.501ZM486.421 62.096L491.242 67.171L491.307 67.1092L491.37 67.0457L486.421 62.096ZM497.173 62.096L492.098 66.9172L492.16 66.9823L492.223 67.0457L497.173 62.096ZM498.997 74.864H491.997V81.864H498.997V74.864ZM512.245 76.304L507.295 81.2537L507.38 81.3391L507.469 81.4214L512.245 76.304ZM498.997 85.712V78.712H491.997V85.712H498.997ZM500.821 109.232L495.63 113.928L495.69 113.995L495.752 114.06L500.821 109.232ZM509.557 110.96L511.131 117.781L511.131 117.781L509.557 110.96ZM511.861 110.576L511.362 103.594L511.294 103.599L511.227 103.605L511.861 110.576ZM514.069 111.44L508.866 116.123L508.989 116.26L509.119 116.39L514.069 111.44ZM514.165 119.408L520.561 122.251L520.561 122.251L514.165 119.408ZM511.477 121.904L513.99 128.437L514.033 128.421L514.076 128.403L511.477 121.904ZM508.021 122.672L507.115 115.731L506.941 115.754L506.769 115.785L508.021 122.672ZM504.373 116.056C500.698 116.056 498.109 115.439 496.314 114.56L490.16 127.136C494.381 129.201 499.216 130.056 504.373 130.056V116.056ZM496.367 114.587C494.689 113.748 493.581 112.636 492.816 111.173L480.409 117.659C482.588 121.828 485.897 125.004 490.106 127.109L496.367 114.587ZM492.874 111.286C492.095 109.728 491.501 107.335 491.501 103.76H477.501C477.501 108.761 478.315 113.472 480.352 117.546L492.874 111.286ZM491.501 103.76V85.712H477.501V103.76H491.501ZM484.501 78.712H480.469V92.712H484.501V78.712ZM480.469 78.712C480.189 78.712 480.173 78.6737 480.327 78.7264C480.407 78.7536 480.52 78.801 480.651 78.8787C480.783 78.957 480.913 79.0537 481.032 79.1652L471.457 89.3788C474.109 91.8646 477.409 92.712 480.469 92.712V78.712ZM481.194 79.3223C481.456 79.5835 481.639 79.8912 481.739 80.1629C481.829 80.409 481.805 80.5004 481.805 80.336H467.805C467.805 83.4112 468.738 86.6644 471.295 89.2217L481.194 79.3223ZM481.805 80.336C481.805 80.0459 481.846 80.0896 481.757 80.3384C481.654 80.6258 481.428 81.0417 481.021 81.4214L471.469 71.1866C468.631 73.835 467.805 77.3365 467.805 80.336H481.805ZM481.032 81.4108C480.913 81.5223 480.783 81.619 480.651 81.6973C480.52 81.775 480.407 81.8224 480.327 81.8496C480.173 81.9023 480.189 81.864 480.469 81.864V67.864C477.409 67.864 474.109 68.7114 471.457 71.1972L481.032 81.4108ZM480.469 81.864H484.501V67.864H480.469V81.864ZM491.501 74.864V67.568H477.501V74.864H491.501ZM491.501 67.568C491.501 67.2644 491.521 67.0454 491.543 66.8989C491.565 66.7534 491.587 66.6914 491.586 66.6936C491.584 66.6983 491.561 66.7618 491.499 66.8599C491.436 66.9603 491.349 67.0691 491.242 67.171L481.599 57.021C478.467 59.9966 477.501 63.9628 477.501 67.568H491.501ZM491.37 67.0457C491.316 67.1006 491.252 67.1514 491.187 67.192C491.156 67.2112 491.13 67.2252 491.11 67.2348C491.1 67.2394 491.092 67.2428 491.087 67.245C491.082 67.2472 491.079 67.2482 491.079 67.2482C491.079 67.2482 491.283 67.176 491.797 67.176V53.176C488.168 53.176 484.397 54.2201 481.471 57.1463L491.37 67.0457ZM491.797 67.176C492.367 67.176 492.581 67.2549 492.562 67.2482C492.548 67.243 492.482 67.2174 492.386 67.1564C492.289 67.0944 492.189 67.0131 492.098 66.9172L502.248 57.2748C499.305 54.1772 495.403 53.176 491.797 53.176V67.176ZM492.223 67.0457C492.11 66.9327 492.026 66.8191 491.968 66.7235C491.912 66.6304 491.896 66.5776 491.9 66.5896C491.913 66.6276 491.997 66.9144 491.997 67.568H505.997C505.997 64.057 505.114 60.138 502.122 57.1462L492.223 67.0457ZM491.997 67.568V74.864H505.997V67.568H491.997ZM498.997 81.864H508.117V67.864H498.997V81.864ZM508.117 81.864C508.401 81.864 508.388 81.9036 508.187 81.8334C507.955 81.7523 507.614 81.5728 507.295 81.2537L517.194 71.3543C514.542 68.7022 511.149 67.864 508.117 67.864V81.864ZM507.469 81.4214C507.062 81.0417 506.835 80.6258 506.733 80.3384C506.644 80.0896 506.685 80.0459 506.685 80.336H520.685C520.685 77.3365 519.859 73.835 517.021 71.1866L507.469 81.4214ZM506.685 80.336C506.685 80.5004 506.661 80.409 506.751 80.1629C506.85 79.8912 507.034 79.5835 507.295 79.3223L517.194 89.2217C519.752 86.6645 520.685 83.4112 520.685 80.336H506.685ZM507.295 79.3223C507.614 79.0032 507.955 78.8237 508.187 78.7426C508.388 78.6724 508.401 78.712 508.117 78.712V92.712C511.149 92.712 514.542 91.8738 517.194 89.2217L507.295 79.3223ZM508.117 78.712H498.997V92.712H508.117V78.712ZM491.997 85.712V103.184H505.997V85.712H491.997ZM491.997 103.184C491.997 106.787 492.797 110.797 495.63 113.928L506.011 104.536C506.203 104.747 506.207 104.866 506.155 104.691C506.094 104.49 505.997 104.023 505.997 103.184H491.997ZM495.752 114.06C498.878 117.342 503.126 118.248 506.869 118.248V104.248C506.035 104.248 505.625 104.143 505.506 104.103C505.425 104.076 505.633 104.134 505.89 104.404L495.752 114.06ZM506.869 118.248C508.294 118.248 509.723 118.106 511.131 117.781L507.983 104.139C507.726 104.198 507.363 104.248 506.869 104.248V118.248ZM511.131 117.781C511.714 117.646 512.164 117.577 512.494 117.547L511.227 103.605C510.15 103.703 509.063 103.89 507.983 104.139L511.131 117.781ZM512.359 117.558C511.911 117.59 511.26 117.547 510.534 117.263C509.798 116.975 509.24 116.539 508.866 116.123L519.272 106.757C517.18 104.433 514.303 103.384 511.362 103.594L512.359 117.558ZM509.119 116.39C508.537 115.808 508.229 115.246 508.082 114.923C507.932 114.597 507.885 114.381 507.88 114.357C507.872 114.323 507.888 114.387 507.904 114.576C507.92 114.76 507.933 115.023 507.933 115.376H521.933C521.933 114.081 521.847 112.689 521.554 111.355C521.291 110.155 520.684 108.155 519.018 106.49L509.119 116.39ZM507.933 115.376C507.933 116.142 507.805 116.481 507.768 116.565L520.561 122.251C521.548 120.031 521.933 117.682 521.933 115.376H507.933ZM507.768 116.565C507.884 116.304 508.078 116.015 508.346 115.766C508.604 115.527 508.819 115.428 508.877 115.405L514.076 128.403C516.877 127.283 519.236 125.233 520.561 122.251L507.768 116.565ZM508.964 115.371C508.966 115.37 508.928 115.384 508.841 115.41C508.755 115.435 508.633 115.467 508.47 115.503C508.141 115.576 507.695 115.655 507.115 115.731L508.926 129.613C510.636 129.39 512.411 129.044 513.99 128.437L508.964 115.371ZM506.769 115.785C505.624 115.993 504.848 116.056 504.373 116.056V130.056C505.945 130.056 507.601 129.863 509.273 129.559L506.769 115.785ZM536.765 120.08L533.427 126.233L533.489 126.267L533.551 126.299L536.765 120.08ZM528.029 111.44L521.899 114.822L521.899 114.822L528.029 111.44ZM531.677 80.432L526.874 75.3389L526.838 75.3736L526.801 75.4089L531.677 80.432ZM539.741 75.632L542.035 82.2453L542.095 82.2245L542.154 82.2027L539.741 75.632ZM556.541 74.672L554.981 81.496L555.074 81.5173L555.168 81.5361L556.541 74.672ZM563.165 77.072L559.889 83.2585L560.087 83.3634L560.292 83.4554L563.165 77.072ZM565.757 79.568L559.284 82.2332L559.381 82.4697L559.496 82.6985L565.757 79.568ZM566.333 82.832L573.285 83.6499L573.287 83.6275L573.29 83.605L566.333 82.832ZM565.085 85.808L559.58 81.4833L559.558 81.5115L559.536 81.54L565.085 85.808ZM562.589 87.536L564.286 94.327L564.483 94.2778L564.676 94.2174L562.589 87.536ZM559.133 86.96L555.625 93.018L555.811 93.1252L556.002 93.221L559.133 86.96ZM555.293 85.424L553.595 92.215L553.633 92.2245L553.671 92.2336L555.293 85.424ZM546.557 85.904L549.107 92.4227L549.228 92.3753L549.348 92.3235L546.557 85.904ZM542.813 88.496L537.581 83.8455L537.572 83.855L537.564 83.8646L542.813 88.496ZM540.509 92.624L533.894 90.3342L533.854 90.4492L533.818 90.5654L540.509 92.624ZM542.813 108.368L537.458 112.877L537.522 112.953L537.588 113.027L542.813 108.368ZM555.293 111.536L556.665 118.4L556.829 118.367L556.99 118.327L555.293 111.536ZM559.133 110L556.002 103.739L555.879 103.8L555.759 103.866L559.133 110ZM562.589 109.52L564.676 102.839L564.676 102.839L562.589 109.52ZM564.989 111.344L559.1 115.129L559.26 115.378L559.44 115.612L564.989 111.344ZM566.045 114.32L559.055 114.708L559.067 114.924L559.092 115.138L566.045 114.32ZM565.469 117.584L559.135 114.603L559.094 114.69L559.055 114.778L565.469 117.584ZM562.973 119.984L559.976 113.658L559.909 113.69L559.842 113.723L562.973 119.984ZM556.445 122.288L555.033 115.432L554.937 115.452L554.841 115.474L556.445 122.288ZM550.205 116.056C545.997 116.056 542.657 115.245 539.978 113.861L533.551 126.299C538.552 128.883 544.172 130.056 550.205 130.056V116.056ZM540.102 113.927C537.486 112.508 535.55 110.582 534.158 108.058L521.899 114.822C524.603 119.722 528.491 123.556 533.427 126.233L540.102 113.927ZM534.158 108.058C532.782 105.564 531.957 102.389 531.957 98.288H517.957C517.957 104.299 519.179 109.892 521.899 114.822L534.158 108.058ZM531.957 98.288C531.957 95.2231 532.423 92.6995 533.222 90.6155L520.148 85.6085C518.642 89.5405 517.957 93.8009 517.957 98.288H531.957ZM533.222 90.6155C534.033 88.4979 535.151 86.8144 536.552 85.4551L526.801 75.4089C523.85 78.2736 521.64 81.7101 520.148 85.6085L533.222 90.6155ZM536.479 85.5251C537.944 84.143 539.759 83.035 542.035 82.2453L537.446 69.0187C533.45 70.405 529.889 72.497 526.874 75.3389L536.479 85.5251ZM542.154 82.2027C544.411 81.3737 547.067 80.904 550.205 80.904V66.904C545.662 66.904 541.342 67.5863 537.327 69.0613L542.154 82.2027ZM550.205 80.904C551.589 80.904 553.174 81.083 554.981 81.496L558.1 67.848C555.427 67.237 552.788 66.904 550.205 66.904V80.904ZM555.168 81.5361C556.695 81.8414 558.265 82.3986 559.889 83.2585L566.44 70.8855C563.712 69.4414 560.866 68.3986 557.913 67.8079L555.168 81.5361ZM560.292 83.4554C560.321 83.4685 560.153 83.3978 559.917 83.1702C559.665 82.9277 559.436 82.6026 559.284 82.2332L572.229 76.9027C570.972 73.8503 568.614 71.848 566.037 70.6885L560.292 83.4554ZM559.496 82.6985C559.46 82.6284 559.417 82.5135 559.391 82.3685C559.366 82.2242 559.369 82.1131 559.375 82.059L573.29 83.605C573.565 81.1296 573.141 78.6842 572.017 76.4375L559.496 82.6985ZM559.38 82.0141C559.391 81.9203 559.419 81.8035 559.469 81.6849C559.518 81.5681 559.567 81.5001 559.58 81.4833L570.589 90.1327C572.055 88.266 573 86.0707 573.285 83.6499L559.38 82.0141ZM559.536 81.54C559.641 81.404 559.795 81.2478 559.996 81.1087C560.196 80.9703 560.378 80.893 560.501 80.8546L564.676 94.2174C567.042 93.478 569.095 92.0758 570.633 90.076L559.536 81.54ZM560.891 80.745C561.405 80.6164 561.837 80.6343 562.107 80.6792C562.354 80.7204 562.414 80.7745 562.263 80.699L556.002 93.221C558.243 94.3413 561.143 95.1127 564.286 94.327L560.891 80.745ZM562.64 80.902C560.845 79.863 558.931 79.0946 556.914 78.6144L553.671 92.2336C554.342 92.3934 554.988 92.649 555.625 93.018L562.64 80.902ZM556.99 78.633C555.234 78.1939 553.445 77.944 551.645 77.944V91.944C552.148 91.944 552.791 92.0141 553.595 92.215L556.99 78.633ZM551.645 77.944C548.949 77.944 546.273 78.3941 543.765 79.4845L549.348 92.3235C549.784 92.1339 550.5 91.944 551.645 91.944V77.944ZM544.006 79.3853C541.532 80.3531 539.358 81.8464 537.581 83.8455L548.044 93.1465C548.315 92.8416 548.637 92.6069 549.107 92.4227L544.006 79.3853ZM537.564 83.8646C535.886 85.766 534.706 87.9876 533.894 90.3342L547.123 94.9138C547.463 93.9324 547.819 93.402 548.061 93.1274L537.564 83.8646ZM533.818 90.5654C533.057 93.0386 532.741 95.6765 532.741 98.384H546.741C546.741 96.7395 546.936 95.5374 547.199 94.6826L533.818 90.5654ZM532.741 98.384C532.741 103.711 534.041 108.82 537.458 112.877L548.167 103.859C547.488 103.052 546.741 101.505 546.741 98.384H532.741ZM537.588 113.027C541.282 117.168 546.288 118.92 551.645 118.92V104.92C549.449 104.92 548.567 104.304 548.037 103.709L537.588 113.027ZM551.645 118.92C553.314 118.92 554.992 118.735 556.665 118.4L553.92 104.672C553.033 104.849 552.279 104.92 551.645 104.92V118.92ZM556.99 118.327C558.913 117.846 560.754 117.097 562.506 116.134L555.759 103.866C554.951 104.311 554.232 104.586 553.595 104.745L556.99 118.327ZM562.263 116.261C562.373 116.206 562.249 116.288 561.919 116.333C561.56 116.383 561.055 116.375 560.501 116.201L564.676 102.839C561.41 101.818 558.346 102.567 556.002 103.739L562.263 116.261ZM560.501 116.201C560.291 116.136 560.01 116.009 559.721 115.789C559.432 115.569 559.228 115.328 559.1 115.129L570.877 107.559C569.406 105.271 567.255 103.645 564.676 102.839L560.501 116.201ZM559.44 115.612C559.31 115.443 559.205 115.248 559.136 115.053C559.068 114.863 559.057 114.735 559.055 114.708L573.034 113.932C572.9 111.517 572.122 109.137 570.537 107.076L559.44 115.612ZM559.092 115.138C559.076 114.999 559.082 114.857 559.103 114.736C559.124 114.618 559.15 114.571 559.135 114.603L571.802 120.565C572.815 118.413 573.292 116.014 572.997 113.502L559.092 115.138ZM559.055 114.778C559.212 114.421 559.432 114.122 559.657 113.906C559.868 113.703 560.011 113.641 559.976 113.658L565.969 126.31C568.385 125.166 570.625 123.262 571.882 120.39L559.055 114.778ZM559.842 113.723C558.159 114.564 556.559 115.118 555.033 115.432L557.856 129.144C560.682 128.562 563.434 127.58 566.103 126.245L559.842 113.723ZM554.841 115.474C553.126 115.878 551.586 116.056 550.205 116.056V130.056C552.791 130.056 555.411 129.722 558.048 129.102L554.841 115.474ZM582.608 120.944L577.533 125.765L577.595 125.83L577.658 125.894L582.608 120.944ZM582.608 55.376L587.558 60.3257L587.558 60.3257L582.608 55.376ZM593.36 55.376L588.285 60.1972L588.409 60.3274L588.539 60.451L593.36 55.376ZM595.28 83.696V90.696H602.28V83.696H595.28ZM593.936 83.696L587.6 80.7216L582.918 90.696H593.936V83.696ZM600.464 76.496L603.966 82.5571L603.987 82.545L604.008 82.5329L600.464 76.496ZM619.76 76.112L616.136 82.1005L616.194 82.1358L616.253 82.17L619.76 76.112ZM625.232 82.64L618.762 85.3123L618.773 85.3376L618.783 85.3628L625.232 82.64ZM625.136 120.944L620.186 115.994L620.123 116.058L620.061 116.123L625.136 120.944ZM614.384 120.944L609.309 125.765L609.371 125.83L609.434 125.894L614.384 120.944ZM610.736 87.344L605.224 91.6582L605.328 91.7913L605.438 91.9193L610.736 87.344ZM597.968 88.016L592.935 83.1508L592.893 83.1949L592.851 83.2398L597.968 88.016ZM588.08 115.864C587.514 115.864 587.275 115.786 587.254 115.779C587.247 115.776 587.286 115.79 587.353 115.831C587.421 115.873 587.493 115.929 587.558 115.994L577.658 125.894C580.619 128.855 584.451 129.864 588.08 129.864V115.864ZM587.683 116.123C587.754 116.197 587.808 116.272 587.845 116.336C587.881 116.397 587.889 116.426 587.881 116.402C587.863 116.347 587.784 116.071 587.784 115.472H573.784C573.784 119.008 574.708 122.792 577.533 125.765L587.683 116.123ZM587.784 115.472V60.848H573.784V115.472H587.784ZM587.784 60.848C587.784 60.1944 587.868 59.9076 587.881 59.8696C587.885 59.8576 587.869 59.9104 587.813 60.0035C587.755 60.0991 587.671 60.2127 587.558 60.3257L577.658 50.4263C574.667 53.418 573.784 57.337 573.784 60.848H587.784ZM587.558 60.3257C587.493 60.3912 587.421 60.4471 587.353 60.4892C587.286 60.5304 587.247 60.5436 587.254 60.5412C587.275 60.5338 587.514 60.456 588.08 60.456V46.456C584.451 46.456 580.619 47.4654 577.658 50.4263L587.558 60.3257ZM588.08 60.456C588.598 60.456 588.776 60.5292 588.736 60.5145C588.712 60.5058 588.644 60.4778 588.551 60.4181C588.457 60.3575 588.365 60.2817 588.285 60.1972L598.435 50.5548C595.527 47.4936 591.689 46.456 588.08 46.456V60.456ZM588.539 60.451C588.432 60.3491 588.345 60.2403 588.282 60.14C588.22 60.0418 588.197 59.9783 588.195 59.9736C588.194 59.9714 588.216 60.0334 588.238 60.1789C588.26 60.3254 588.28 60.5444 588.28 60.848H602.28C602.28 57.2428 601.314 53.2766 598.181 50.301L588.539 60.451ZM588.28 60.848V83.696H602.28V60.848H588.28ZM595.28 76.696H593.936V90.696H595.28V76.696ZM600.273 86.6703C601.164 84.7715 602.378 83.4749 603.966 82.5571L596.962 70.4349C592.791 72.8451 589.652 76.3485 587.6 80.7216L600.273 86.6703ZM604.008 82.5329C605.784 81.4901 607.87 80.904 610.448 80.904V66.904C605.603 66.904 601.032 68.0459 596.921 70.4591L604.008 82.5329ZM610.448 80.904C613.354 80.904 615.1 81.4736 616.136 82.1005L623.385 70.1235C619.557 67.8064 615.094 66.904 610.448 66.904V80.904ZM616.253 82.17C617.176 82.7046 618.052 83.5927 618.762 85.3123L631.702 79.9677C629.98 75.7993 627.208 72.3354 623.267 70.054L616.253 82.17ZM618.783 85.3628C619.514 87.0933 620.056 89.7619 620.056 93.68H634.056C634.056 88.6381 633.382 83.9467 631.681 79.9172L618.783 85.3628ZM620.056 93.68V115.472H634.056V93.68H620.056ZM620.056 115.472C620.056 116.038 619.978 116.277 619.971 116.298C619.969 116.305 619.982 116.266 620.023 116.2C620.065 116.132 620.121 116.06 620.186 115.994L630.086 125.894C633.047 122.933 634.056 119.102 634.056 115.472H620.056ZM620.061 116.123C620.152 116.027 620.253 115.946 620.35 115.884C620.445 115.823 620.511 115.797 620.526 115.792C620.545 115.785 620.33 115.864 619.76 115.864V129.864C623.366 129.864 627.269 128.863 630.211 125.765L620.061 116.123ZM619.76 115.864C619.247 115.864 619.043 115.792 619.043 115.792C619.042 115.792 619.045 115.793 619.05 115.795C619.056 115.797 619.063 115.801 619.073 115.805C619.093 115.815 619.119 115.829 619.15 115.848C619.215 115.889 619.279 115.939 619.334 115.994L609.434 125.894C612.361 128.82 616.131 129.864 619.76 129.864V115.864ZM619.459 116.123C619.53 116.197 619.584 116.272 619.621 116.336C619.657 116.397 619.665 116.426 619.657 116.402C619.639 116.347 619.56 116.071 619.56 115.472H605.56C605.56 119.008 606.484 122.792 609.309 125.765L619.459 116.123ZM619.56 115.472V94.352H605.56V115.472H619.56ZM619.56 94.352C619.56 90.5555 618.918 86.1078 616.034 82.7687L605.438 91.9193C605.169 91.607 605.219 91.4876 605.33 91.9152C605.442 92.346 605.56 93.1211 605.56 94.352H619.56ZM616.249 83.0298C613.389 79.3763 609.241 78.136 605.36 78.136V92.136C605.889 92.136 606.002 92.2179 605.869 92.1631C605.797 92.1337 605.683 92.0761 605.552 91.978C605.42 91.8791 605.309 91.7668 605.224 91.6582L616.249 83.0298ZM605.36 78.136C600.702 78.136 596.312 79.6579 592.935 83.1508L603.001 92.8812C603.337 92.5341 603.875 92.136 605.36 92.136V78.136ZM592.851 83.2398C589.597 86.7264 588.28 91.1311 588.28 95.696H602.28C602.28 93.8609 602.756 93.1456 603.086 92.7922L592.851 83.2398ZM588.28 95.696V115.472H602.28V95.696H588.28ZM588.28 115.472C588.28 115.807 588.26 116.059 588.234 116.24C588.209 116.42 588.182 116.516 588.172 116.544C588.164 116.571 588.174 116.53 588.224 116.445C588.275 116.357 588.355 116.246 588.466 116.132C588.577 116.017 588.693 115.928 588.796 115.865C588.897 115.802 588.961 115.78 588.964 115.779C588.964 115.779 588.9 115.801 588.752 115.823C588.603 115.844 588.383 115.864 588.08 115.864V129.864C591.607 129.864 595.526 128.948 598.495 125.9C601.43 122.887 602.28 118.969 602.28 115.472H588.28ZM683.603 99.824L688.732 95.0608L688.732 95.0608L683.603 99.824ZM682.067 95.888L675.097 96.5401L675.103 96.6006L675.109 96.661L682.067 95.888ZM678.995 63.056L685.964 62.4039L685.958 62.3434L685.952 62.283L678.995 63.056ZM680.627 56.144L686.053 60.5657L686.092 60.5176L686.131 60.4687L680.627 56.144ZM693.299 56.144L687.794 60.4687L687.833 60.5176L687.872 60.5657L693.299 56.144ZM694.931 63.056L687.973 62.283L687.967 62.3434L687.961 62.4039L694.931 63.056ZM691.859 95.888L698.816 96.661L698.822 96.6006L698.828 96.5401L691.859 95.888ZM690.323 99.824L685.193 95.0608L685.098 95.1628L685.008 95.2685L690.323 99.824ZM680.915 120.176L675.861 125.019L675.912 125.073L675.965 125.126L680.915 120.176ZM680.915 108.464L685.864 113.414L685.864 113.414L680.915 108.464ZM693.011 108.464L687.85 113.194L687.953 113.306L688.061 113.414L693.011 108.464ZM693.011 120.176L687.957 115.333L687.903 115.389L687.85 115.446L693.011 120.176ZM687.059 94.168C687.028 94.168 687.256 94.1636 687.628 94.308C688.027 94.4631 688.42 94.7248 688.732 95.0608L678.473 104.587C680.896 107.196 684.069 108.168 687.059 108.168V94.168ZM688.732 95.0608C688.999 95.3484 689.099 95.5819 689.116 95.6232C689.122 95.6409 689.11 95.6127 689.09 95.5267C689.07 95.4406 689.045 95.306 689.024 95.115L675.109 96.661C675.399 99.2709 676.269 102.214 678.473 104.587L688.732 95.0608ZM689.036 95.2359L685.964 62.4039L672.025 63.7081L675.097 96.5401L689.036 95.2359ZM685.952 62.283C685.861 61.467 685.923 60.9963 685.975 60.7765C686 60.6702 686.024 60.6165 686.033 60.5982C686.041 60.5814 686.046 60.574 686.053 60.5657L675.2 51.7223C672.279 55.3071 671.575 59.6676 672.037 63.829L685.952 62.283ZM686.131 60.4687C686.12 60.4819 686.091 60.5151 686.045 60.5498C685.999 60.5842 685.973 60.5935 685.99 60.5867C686.028 60.5705 686.33 60.456 687.059 60.456V46.456C682.651 46.456 678.199 47.9038 675.122 51.8192L686.131 60.4687ZM687.059 60.456C687.369 60.456 687.584 60.4814 687.72 60.5067C687.854 60.5315 687.911 60.556 687.913 60.5569C687.915 60.5577 687.907 60.5545 687.893 60.546C687.878 60.5375 687.861 60.5262 687.844 60.5126C687.804 60.4823 687.788 60.4608 687.794 60.4687L698.803 51.8192C695.789 47.9832 691.463 46.456 687.059 46.456V60.456ZM687.872 60.5657C687.879 60.574 687.884 60.5814 687.892 60.5982C687.901 60.6165 687.925 60.6702 687.95 60.7765C688.002 60.9963 688.064 61.467 687.973 62.283L701.888 63.829C702.35 59.6676 701.646 55.3071 698.725 51.7223L687.872 60.5657ZM687.961 62.4039L684.889 95.2359L698.828 96.5401L701.9 63.7081L687.961 62.4039ZM684.901 95.115C684.88 95.306 684.855 95.4406 684.835 95.5267C684.815 95.6127 684.803 95.6409 684.81 95.6232C684.826 95.5819 684.926 95.3484 685.193 95.0608L695.452 104.587C697.656 102.214 698.526 99.2709 698.816 96.661L684.901 95.115ZM685.008 95.2685C685.341 94.8797 685.784 94.5574 686.265 94.3593C686.716 94.1739 687.024 94.168 687.059 94.168V108.168C690.076 108.168 693.281 107.129 695.637 104.38L685.008 95.2685ZM687.059 115.48C686.478 115.48 686.177 115.393 686.06 115.35C685.965 115.314 685.921 115.283 685.864 115.226L675.965 125.126C679.046 128.207 682.999 129.48 687.059 129.48V115.48ZM685.968 115.333C685.926 115.288 685.707 115.13 685.707 114.224H671.707C671.707 118.182 672.959 121.992 675.861 125.019L685.968 115.333ZM685.707 114.224C685.707 113.768 685.776 113.562 685.795 113.514C685.805 113.486 685.812 113.475 685.815 113.471C685.818 113.466 685.83 113.448 685.864 113.414L675.965 103.514C672.996 106.483 671.707 110.277 671.707 114.224H685.707ZM685.864 113.414C685.921 113.357 685.965 113.326 686.06 113.29C686.177 113.247 686.478 113.16 687.059 113.16V99.16C682.999 99.16 679.046 100.433 675.965 103.514L685.864 113.414ZM687.059 113.16C687.645 113.16 687.899 113.248 687.94 113.264C687.959 113.272 687.945 113.268 687.913 113.247C687.881 113.225 687.859 113.203 687.85 113.194L698.171 103.734C695.142 100.43 691.098 99.16 687.059 99.16V113.16ZM688.061 113.414C688.095 113.448 688.107 113.466 688.11 113.471C688.113 113.475 688.12 113.486 688.13 113.514C688.149 113.562 688.219 113.768 688.219 114.224H702.219C702.219 110.277 700.929 106.483 697.96 103.514L688.061 113.414ZM688.219 114.224C688.219 115.13 687.999 115.288 687.957 115.333L698.064 125.019C700.966 121.992 702.219 118.182 702.219 114.224H688.219ZM687.85 115.446C687.859 115.437 687.881 115.415 687.913 115.393C687.945 115.372 687.959 115.368 687.94 115.376C687.899 115.392 687.645 115.48 687.059 115.48V129.48C691.098 129.48 695.142 128.21 698.171 124.906L687.85 115.446Z" fill="white" mask="url(#path-1-outside-1_8270_173)"/>
</svg>
