<svg width="100" height="121" viewBox="0 0 100 121" fill="none" xmlns="http://www.w3.org/2000/svg">
<g filter="url(#filter0_di_8265_177)">
<mask id="path-1-outside-1_8265_177" maskUnits="userSpaceOnUse" x="3" y="22" width="80" height="81" fill="black">
<rect fill="white" x="3" y="22" width="80" height="81"/>
<path d="M78.2607 62.1669C78.2607 65.4027 77.8324 68.5275 76.9759 71.5412C76.151 74.5232 74.9773 77.3307 73.4545 79.9638C71.9318 82.5651 70.0919 84.9444 67.9347 87.1016C65.7775 89.2588 63.3982 91.1146 60.7969 92.669C58.1955 94.1918 55.388 95.3655 52.3743 96.1903C49.3606 97.0469 46.2358 97.4751 43 97.4751C39.7642 97.4751 36.6394 97.0469 33.6257 96.1903C30.6437 95.3655 27.8362 94.1918 25.2031 92.669C22.6018 91.1146 20.2225 89.2588 18.0653 87.1016C15.9081 84.9444 14.0523 82.5651 12.4979 79.9638C10.9751 77.3307 9.78551 74.5232 8.92898 71.5412C8.10417 68.5275 7.69176 65.4027 7.69176 62.1669C7.69176 58.9311 8.10417 55.8063 8.92898 52.7926C9.78551 49.7789 10.9751 46.9714 12.4979 44.37C14.0523 41.7687 15.9081 39.3894 18.0653 37.2322C20.2225 35.075 22.6018 33.2351 25.2031 31.7124C27.8362 30.1896 30.6437 29.0159 33.6257 28.1911C36.6394 27.3345 39.7642 26.9063 43 26.9063C46.2358 26.9063 49.3606 27.3345 52.3743 28.1911C55.388 29.0159 58.1955 30.1896 60.7969 31.7124C63.3982 33.2351 65.7775 35.075 67.9347 37.2322C70.0919 39.3894 71.9318 41.7687 73.4545 44.37C74.9773 46.9714 76.151 49.7789 76.9759 52.7926C77.8324 55.8063 78.2607 58.9311 78.2607 62.1669ZM64.6989 62.1669C64.6989 59.1849 64.1278 56.3774 62.9858 53.7443C61.8437 51.0795 60.2893 48.7796 58.3224 46.8445C56.3873 44.8776 54.0874 43.3232 51.4226 42.1811C48.7895 41.0391 45.982 40.468 43 40.468C39.9863 40.468 37.1629 41.0391 34.5298 42.1811C31.8968 43.3232 29.5968 44.8776 27.63 46.8445C25.6631 48.7796 24.1087 51.0795 22.9666 53.7443C21.8246 56.3774 21.2536 59.1849 21.2536 62.1669C21.2536 65.1489 21.8246 67.9564 22.9666 70.5895C24.1087 73.1908 25.6631 75.4749 27.63 77.4418C29.5968 79.4086 31.8968 80.9631 34.5298 82.1051C37.1629 83.2472 39.9863 83.8182 43 83.8182C45.982 83.8182 48.7895 83.2472 51.4226 82.1051C54.0874 80.9631 56.3873 79.4086 58.3224 77.4418C60.2893 75.4749 61.8437 73.1908 62.9858 70.5895C64.1278 67.9564 64.6989 65.1489 64.6989 62.1669Z"/>
</mask>
<path d="M78.2607 62.1669C78.2607 65.4027 77.8324 68.5275 76.9759 71.5412C76.151 74.5232 74.9773 77.3307 73.4545 79.9638C71.9318 82.5651 70.0919 84.9444 67.9347 87.1016C65.7775 89.2588 63.3982 91.1146 60.7969 92.669C58.1955 94.1918 55.388 95.3655 52.3743 96.1903C49.3606 97.0469 46.2358 97.4751 43 97.4751C39.7642 97.4751 36.6394 97.0469 33.6257 96.1903C30.6437 95.3655 27.8362 94.1918 25.2031 92.669C22.6018 91.1146 20.2225 89.2588 18.0653 87.1016C15.9081 84.9444 14.0523 82.5651 12.4979 79.9638C10.9751 77.3307 9.78551 74.5232 8.92898 71.5412C8.10417 68.5275 7.69176 65.4027 7.69176 62.1669C7.69176 58.9311 8.10417 55.8063 8.92898 52.7926C9.78551 49.7789 10.9751 46.9714 12.4979 44.37C14.0523 41.7687 15.9081 39.3894 18.0653 37.2322C20.2225 35.075 22.6018 33.2351 25.2031 31.7124C27.8362 30.1896 30.6437 29.0159 33.6257 28.1911C36.6394 27.3345 39.7642 26.9063 43 26.9063C46.2358 26.9063 49.3606 27.3345 52.3743 28.1911C55.388 29.0159 58.1955 30.1896 60.7969 31.7124C63.3982 33.2351 65.7775 35.075 67.9347 37.2322C70.0919 39.3894 71.9318 41.7687 73.4545 44.37C74.9773 46.9714 76.151 49.7789 76.9759 52.7926C77.8324 55.8063 78.2607 58.9311 78.2607 62.1669ZM64.6989 62.1669C64.6989 59.1849 64.1278 56.3774 62.9858 53.7443C61.8437 51.0795 60.2893 48.7796 58.3224 46.8445C56.3873 44.8776 54.0874 43.3232 51.4226 42.1811C48.7895 41.0391 45.982 40.468 43 40.468C39.9863 40.468 37.1629 41.0391 34.5298 42.1811C31.8968 43.3232 29.5968 44.8776 27.63 46.8445C25.6631 48.7796 24.1087 51.0795 22.9666 53.7443C21.8246 56.3774 21.2536 59.1849 21.2536 62.1669C21.2536 65.1489 21.8246 67.9564 22.9666 70.5895C24.1087 73.1908 25.6631 75.4749 27.63 77.4418C29.5968 79.4086 31.8968 80.9631 34.5298 82.1051C37.1629 83.2472 39.9863 83.8182 43 83.8182C45.982 83.8182 48.7895 83.2472 51.4226 82.1051C54.0874 80.9631 56.3873 79.4086 58.3224 77.4418C60.2893 75.4749 61.8437 73.1908 62.9858 70.5895C64.1278 67.9564 64.6989 65.1489 64.6989 62.1669Z" fill="#56B000"/>
<path d="M76.9759 71.5412L72.5817 70.2923L72.5773 70.3078L72.573 70.3234L76.9759 71.5412ZM73.4545 79.9638L77.397 82.2715L77.403 82.2611L77.4091 82.2507L73.4545 79.9638ZM60.7969 92.669L63.1046 96.6114L63.1224 96.601L63.1401 96.5904L60.7969 92.669ZM52.3743 96.1903L51.1684 91.7842L51.1469 91.7901L51.1254 91.7962L52.3743 96.1903ZM33.6257 96.1903L34.8746 91.7962L34.8591 91.7918L34.8435 91.7875L33.6257 96.1903ZM25.2031 92.669L22.8599 96.5904L22.8879 96.6072L22.9162 96.6235L25.2031 92.669ZM12.4979 79.9638L8.54336 82.2507L8.55971 82.279L8.57647 82.3071L12.4979 79.9638ZM8.92898 71.5412L4.52283 72.7471L4.53041 72.7748L4.53833 72.8023L8.92898 71.5412ZM8.92898 52.7926L4.53482 51.5437L4.52872 51.5652L4.52283 51.5867L8.92898 52.7926ZM12.4979 44.37L8.57647 42.0268L8.56589 42.0445L8.55546 42.0623L12.4979 44.37ZM25.2031 31.7124L22.9162 27.7578L22.9058 27.7639L22.8954 27.77L25.2031 31.7124ZM33.6257 28.1911L34.8435 32.5939L34.8591 32.5896L34.8746 32.5852L33.6257 28.1911ZM52.3743 28.1911L51.1254 32.5852L51.1469 32.5913L51.1684 32.5972L52.3743 28.1911ZM76.9759 52.7926L72.5697 53.9985L72.5756 54.02L72.5817 54.0415L76.9759 52.7926ZM62.9858 53.7443L58.787 55.5438L58.7909 55.553L58.7948 55.5621L62.9858 53.7443ZM58.3224 46.8445L55.0661 50.0483L55.0921 50.0748L55.1186 50.1008L58.3224 46.8445ZM51.4226 42.1811L49.6048 46.3721L49.6139 46.376L49.6231 46.3799L51.4226 42.1811ZM27.63 46.8445L30.8338 50.1008L30.847 50.0878L30.8602 50.0747L27.63 46.8445ZM22.9666 53.7443L27.1576 55.5621L27.1615 55.553L27.1654 55.5438L22.9666 53.7443ZM22.9666 70.5895L18.7757 72.4072L18.7797 72.4166L18.7838 72.4259L22.9666 70.5895ZM51.4226 82.1051L49.6231 77.9063L49.6139 77.9102L49.6048 77.9142L51.4226 82.1051ZM58.3224 77.4418L55.0922 74.2116L55.0791 74.2247L55.0661 74.2379L58.3224 77.4418ZM62.9858 70.5895L67.1686 72.4259L67.1727 72.4166L67.1767 72.4072L62.9858 70.5895ZM73.6925 62.1669C73.6925 64.9943 73.319 67.698 72.5817 70.2923L81.37 72.7901C82.3457 69.3569 82.8288 65.8111 82.8288 62.1669H73.6925ZM72.573 70.3234C71.8498 72.9379 70.8252 75.3854 69.5 77.6768L77.4091 82.2507C79.1294 79.276 80.4523 76.1085 81.3787 72.759L72.573 70.3234ZM69.5121 77.656C68.1889 79.9166 66.5892 81.9866 64.7045 83.8714L71.1649 90.3318C73.5945 87.9021 75.6748 85.2136 77.397 82.2715L69.5121 77.656ZM64.7045 83.8714C62.8115 85.7643 60.7298 87.3875 58.4536 88.7476L63.1401 96.5904C66.0666 94.8417 68.7434 92.7532 71.1649 90.3318L64.7045 83.8714ZM58.4891 88.7266C56.2456 90.0399 53.8103 91.0612 51.1684 91.7842L53.5802 100.596C56.9657 99.6699 60.1454 98.3436 63.1046 96.6114L58.4891 88.7266ZM51.1254 91.7962C48.5311 92.5335 45.8274 92.907 43 92.907V102.043C46.6442 102.043 50.19 101.56 53.6232 100.584L51.1254 91.7962ZM43 92.907C40.1726 92.907 37.4689 92.5335 34.8746 91.7962L32.3768 100.584C35.81 101.56 39.3558 102.043 43 102.043V92.907ZM34.8435 91.7875C32.229 91.0643 29.7815 90.0397 27.4901 88.7145L22.9162 96.6235C25.8909 98.3439 29.0584 99.6667 32.4079 100.593L34.8435 91.7875ZM27.5464 88.7476C25.2702 87.3875 23.1885 85.7643 21.2955 83.8714L14.8351 90.3318C17.2566 92.7532 19.9334 94.8417 22.8599 96.5904L27.5464 88.7476ZM21.2955 83.8714C19.4026 81.9784 17.7794 79.8967 16.4193 77.6205L8.57647 82.3071C10.3252 85.2335 12.4137 87.9103 14.8351 90.3318L21.2955 83.8714ZM16.4524 77.6768C15.1201 75.3731 14.0753 72.9108 13.3196 70.28L4.53833 72.8023C5.49575 76.1356 6.8302 79.2884 8.54336 82.2507L16.4524 77.6768ZM13.3351 70.3353C12.6216 67.7283 12.2599 65.0099 12.2599 62.1669H3.12358C3.12358 65.7955 3.5867 69.3266 4.52283 72.7471L13.3351 70.3353ZM12.2599 62.1669C12.2599 59.3239 12.6216 56.6055 13.3351 53.9985L4.52283 51.5867C3.5867 55.0072 3.12358 58.5383 3.12358 62.1669H12.2599ZM13.3231 54.0415C14.0785 51.3837 15.1197 48.9337 16.4403 46.6778L8.55546 42.0623C6.83056 45.009 5.49252 48.1741 4.53482 51.5437L13.3231 54.0415ZM16.4193 46.7133C17.7794 44.4371 19.4026 42.3554 21.2955 40.4624L14.8351 34.0021C12.4137 36.4235 10.3252 39.1003 8.57647 42.0268L16.4193 46.7133ZM21.2955 40.4624C23.1803 38.5777 25.2503 36.978 27.5109 35.6548L22.8954 27.77C19.9533 29.4921 17.2648 31.5724 14.8351 34.0021L21.2955 40.4624ZM27.4901 35.6669C29.7815 34.3417 32.229 33.3171 34.8435 32.5939L32.4079 23.7882C29.0584 24.7146 25.8909 26.0375 22.9162 27.7578L27.4901 35.6669ZM34.8746 32.5852C37.4689 31.8479 40.1726 31.4744 43 31.4744V22.3381C39.3558 22.3381 35.81 22.8212 32.3768 23.7969L34.8746 32.5852ZM43 31.4744C45.8274 31.4744 48.5311 31.8479 51.1254 32.5852L53.6232 23.7969C50.19 22.8212 46.6442 22.3381 43 22.3381V31.4744ZM51.1684 32.5972C53.8103 33.3202 56.2456 34.3415 58.4891 35.6548L63.1046 27.77C60.1454 26.0378 56.9657 24.7115 53.5802 23.7849L51.1684 32.5972ZM58.4891 35.6548C60.7497 36.978 62.8197 38.5777 64.7045 40.4624L71.1649 34.0021C68.7352 31.5724 66.0467 29.4921 63.1046 27.77L58.4891 35.6548ZM64.7045 40.4624C66.5892 42.3472 68.1889 44.4172 69.5121 46.6778L77.397 42.0623C75.6748 39.1202 73.5945 36.4317 71.1649 34.0021L64.7045 40.4624ZM69.5121 46.6778C70.8254 48.9213 71.8467 51.3566 72.5697 53.9985L81.382 51.5867C80.4554 48.2012 79.1292 45.0215 77.397 42.0623L69.5121 46.6778ZM72.5817 54.0415C73.319 56.6358 73.6925 59.3395 73.6925 62.1669H82.8288C82.8288 58.5227 82.3457 54.9769 81.37 51.5437L72.5817 54.0415ZM69.267 62.1669C69.267 58.5845 68.5774 55.1558 67.1767 51.9266L58.7948 55.5621C59.6783 57.599 60.1307 59.7853 60.1307 62.1669H69.267ZM67.1846 51.9448C65.8208 48.7625 63.9376 45.9605 61.5263 43.5881L55.1186 50.1008C56.641 51.5987 57.8667 53.3966 58.787 55.5438L67.1846 51.9448ZM61.5788 43.6406C59.2064 41.2293 56.4044 39.3461 53.2221 37.9823L49.6231 46.3799C51.7703 47.3002 53.5682 48.5259 55.0661 50.0483L61.5788 43.6406ZM53.2403 37.9902C50.0111 36.5895 46.5824 35.8999 43 35.8999V45.0362C45.3816 45.0362 47.5679 45.4886 49.6048 46.3721L53.2403 37.9902ZM43 35.8999C39.3928 35.8999 35.9474 36.5869 32.7121 37.9902L36.3476 46.3721C38.3784 45.4912 40.5797 45.0362 43 45.0362V35.8999ZM32.7121 37.9902C29.5691 39.3534 26.7858 41.2282 24.3998 43.6143L30.8602 50.0747C32.4078 48.527 34.2245 47.2929 36.3476 46.3721L32.7121 37.9902ZM24.4261 43.5881C22.0148 45.9605 20.1316 48.7625 18.7678 51.9448L27.1654 55.5438C28.0857 53.3966 29.3114 51.5987 30.8338 50.1008L24.4261 43.5881ZM18.7757 51.9266C17.3751 55.1558 16.6854 58.5845 16.6854 62.1669H25.8217C25.8217 59.7853 26.2741 57.599 27.1576 55.5621L18.7757 51.9266ZM16.6854 62.1669C16.6854 65.7493 17.3751 69.178 18.7757 72.4072L27.1576 68.7717C26.2741 66.7348 25.8217 64.5485 25.8217 62.1669H16.6854ZM18.7838 72.4259C20.149 75.5356 22.0229 78.295 24.3998 80.672L30.8602 74.2116C29.3034 72.6548 28.0683 70.846 27.1494 68.7531L18.7838 72.4259ZM24.3998 80.672C26.7858 83.058 29.5691 84.9328 32.7121 86.2961L36.3476 77.9142C34.2245 76.9933 32.4078 75.7592 30.8602 74.2116L24.3998 80.672ZM32.7121 86.2961C35.9474 87.6993 39.3928 88.3864 43 88.3864V79.25C40.5797 79.25 38.3784 78.795 36.3476 77.9142L32.7121 86.2961ZM43 88.3864C46.5824 88.3864 50.0111 87.6967 53.2403 86.2961L49.6048 77.9142C47.5679 78.7976 45.3816 79.25 43 79.25V88.3864ZM53.2221 86.3039C56.4044 84.9401 59.2064 83.0569 61.5788 80.6456L55.0661 74.2379C53.5682 75.7603 51.7703 76.986 49.6231 77.9063L53.2221 86.3039ZM61.5526 80.672C63.9295 78.295 65.8034 75.5356 67.1686 72.4259L58.803 68.7531C57.8841 70.846 56.6491 72.6548 55.0922 74.2116L61.5526 80.672ZM67.1767 72.4072C68.5774 69.178 69.267 65.7493 69.267 62.1669H60.1307C60.1307 64.5485 59.6783 66.7348 58.7948 68.7717L67.1767 72.4072Z" fill="white" mask="url(#path-1-outside-1_8265_177)"/>
</g>
<path fill-rule="evenodd" clip-rule="evenodd" d="M30.2676 40.0775C31.7421 41.5155 31.7718 43.8765 30.3338 45.3509C29.3974 46.3112 28.7527 47.3513 28.3504 48.487C27.6627 50.4284 25.5314 51.4447 23.59 50.757C21.6487 50.0693 20.6324 47.938 21.3201 45.9967C22.0999 43.7952 23.341 41.8389 24.9942 40.1437C26.4322 38.6692 28.7931 38.6396 30.2676 40.0775Z" fill="white"/>
<path fill-rule="evenodd" clip-rule="evenodd" d="M62.395 92.3732C61.6593 91.4405 61.747 90.0712 62.5909 89.3148C63.1404 88.8223 63.5355 88.2637 63.8033 87.6332C64.2612 86.5556 65.4606 86.1116 66.4822 86.6415C67.5038 87.1714 67.9608 88.4746 67.5029 89.5522C66.9836 90.7743 66.2252 91.823 65.255 92.6926C64.4111 93.4489 63.1307 93.306 62.395 92.3732Z" fill="white" fill-opacity="0.76"/>
<defs>
<filter id="filter0_di_8265_177" x="0.291773" y="20.5063" width="99.3689" height="99.3688" filterUnits="userSpaceOnUse" color-interpolation-filters="sRGB">
<feFlood flood-opacity="0" result="BackgroundImageFix"/>
<feColorMatrix in="SourceAlpha" type="matrix" values="0 0 0 0 0 0 0 0 0 0 0 0 0 0 0 0 0 0 127 0" result="hardAlpha"/>
<feOffset dx="7" dy="8"/>
<feGaussianBlur stdDeviation="7.2"/>
<feComposite in2="hardAlpha" operator="out"/>
<feColorMatrix type="matrix" values="0 0 0 0 0 0 0 0 0 0 0 0 0 0 0 0 0 0 0.25 0"/>
<feBlend mode="normal" in2="BackgroundImageFix" result="effect1_dropShadow_8265_177"/>
<feBlend mode="normal" in="SourceGraphic" in2="effect1_dropShadow_8265_177" result="shape"/>
<feColorMatrix in="SourceAlpha" type="matrix" values="0 0 0 0 0 0 0 0 0 0 0 0 0 0 0 0 0 0 127 0" result="hardAlpha"/>
<feOffset dx="3" dy="4"/>
<feGaussianBlur stdDeviation="5.8"/>
<feComposite in2="hardAlpha" operator="arithmetic" k2="-1" k3="1"/>
<feColorMatrix type="matrix" values="0 0 0 0 0.167349 0 0 0 0 0.272858 0 0 0 0 0.0665298 0 0 0 1 0"/>
<feBlend mode="normal" in2="shape" result="effect2_innerShadow_8265_177"/>
</filter>
</defs>
</svg>
