<svg width="84" height="121" viewBox="0 0 84 121" fill="none" xmlns="http://www.w3.org/2000/svg">
<g filter="url(#filter0_di_8265_177)">
<mask id="path-1-outside-1_8265_177" maskUnits="userSpaceOnUse" x="2" y="23" width="65" height="78" fill="black">
<rect fill="white" x="2" y="23" width="65" height="78"/>
<path d="M7.54333 48.2244C7.54333 45.401 8.08262 42.7521 9.16122 40.2777C10.2398 37.8033 11.6991 35.6461 13.5391 33.8061C15.4107 31.9344 17.5838 30.4593 20.0582 29.3807C22.5327 28.3021 25.1816 27.7628 28.005 27.7628H59.3161V41.4197H28.005C27.0533 41.4197 26.165 41.5942 25.3402 41.9432C24.5154 42.2921 23.7857 42.7839 23.1513 43.4183C22.5485 44.0211 22.0727 44.7348 21.7237 45.5597C21.3748 46.3845 21.2003 47.2727 21.2003 48.2244C21.2003 49.1761 21.3748 50.0803 21.7237 50.9368C22.0727 51.7616 22.5485 52.4912 23.1513 53.1257C23.7857 53.7285 24.5154 54.2043 25.3402 54.5533C26.165 54.9022 27.0533 55.0767 28.005 55.0767H41.6619C44.4853 55.0767 47.1342 55.616 49.6087 56.6946C52.1148 57.7415 54.2879 59.2008 56.1278 61.0724C57.9995 62.9124 59.4588 65.0855 60.5057 67.5916C61.5843 70.0661 62.1236 72.715 62.1236 75.5384C62.1236 78.3617 61.5843 81.0107 60.5057 83.4851C59.4588 85.9595 57.9995 88.1326 56.1278 90.0043C54.2879 91.8442 52.1148 93.3035 49.6087 94.3821C47.1342 95.4607 44.4853 96 41.6619 96H11.3501V82.343H41.6619C42.6136 82.343 43.5019 82.1686 44.3267 81.8196C45.1515 81.4706 45.8653 80.9948 46.468 80.392C47.1025 79.7576 47.5942 79.0279 47.9432 78.2031C48.2921 77.3783 48.4666 76.4901 48.4666 75.5384C48.4666 74.5866 48.2921 73.6984 47.9432 72.8736C47.5942 72.0488 47.1025 71.335 46.468 70.7322C45.8653 70.0978 45.1515 69.6061 44.3267 69.2571C43.5019 68.9081 42.6136 68.7337 41.6619 68.7337H28.005C25.1816 68.7337 22.5327 68.1944 20.0582 67.1158C17.5838 66.0372 15.4107 64.5779 13.5391 62.7379C11.6991 60.8662 10.2398 58.6932 9.16122 56.2188C8.08262 53.7126 7.54333 51.0478 7.54333 48.2244Z"/>
</mask>
<path d="M7.54333 48.2244C7.54333 45.401 8.08262 42.7521 9.16122 40.2777C10.2398 37.8033 11.6991 35.6461 13.5391 33.8061C15.4107 31.9344 17.5838 30.4593 20.0582 29.3807C22.5327 28.3021 25.1816 27.7628 28.005 27.7628H59.3161V41.4197H28.005C27.0533 41.4197 26.165 41.5942 25.3402 41.9432C24.5154 42.2921 23.7857 42.7839 23.1513 43.4183C22.5485 44.0211 22.0727 44.7348 21.7237 45.5597C21.3748 46.3845 21.2003 47.2727 21.2003 48.2244C21.2003 49.1761 21.3748 50.0803 21.7237 50.9368C22.0727 51.7616 22.5485 52.4912 23.1513 53.1257C23.7857 53.7285 24.5154 54.2043 25.3402 54.5533C26.165 54.9022 27.0533 55.0767 28.005 55.0767H41.6619C44.4853 55.0767 47.1342 55.616 49.6087 56.6946C52.1148 57.7415 54.2879 59.2008 56.1278 61.0724C57.9995 62.9124 59.4588 65.0855 60.5057 67.5916C61.5843 70.0661 62.1236 72.715 62.1236 75.5384C62.1236 78.3617 61.5843 81.0107 60.5057 83.4851C59.4588 85.9595 57.9995 88.1326 56.1278 90.0043C54.2879 91.8442 52.1148 93.3035 49.6087 94.3821C47.1342 95.4607 44.4853 96 41.6619 96H11.3501V82.343H41.6619C42.6136 82.343 43.5019 82.1686 44.3267 81.8196C45.1515 81.4706 45.8653 80.9948 46.468 80.392C47.1025 79.7576 47.5942 79.0279 47.9432 78.2031C48.2921 77.3783 48.4666 76.4901 48.4666 75.5384C48.4666 74.5866 48.2921 73.6984 47.9432 72.8736C47.5942 72.0488 47.1025 71.335 46.468 70.7322C45.8653 70.0978 45.1515 69.6061 44.3267 69.2571C43.5019 68.9081 42.6136 68.7337 41.6619 68.7337H28.005C25.1816 68.7337 22.5327 68.1944 20.0582 67.1158C17.5838 66.0372 15.4107 64.5779 13.5391 62.7379C11.6991 60.8662 10.2398 58.6932 9.16122 56.2188C8.08262 53.7126 7.54333 51.0478 7.54333 48.2244Z" fill="#56B000"/>
<path d="M59.3161 27.7628H63.8842V23.1946H59.3161V27.7628ZM59.3161 41.4197V45.9879H63.8842V41.4197H59.3161ZM21.7237 50.9368L17.4932 52.6604L17.5047 52.6886L17.5166 52.7167L21.7237 50.9368ZM23.1513 53.1257L19.8394 56.272L19.92 56.357L20.0049 56.4376L23.1513 53.1257ZM49.6087 56.6946L47.7833 60.8822L47.8155 60.8963L47.8479 60.9098L49.6087 56.6946ZM56.1278 61.0724L52.8702 64.2749L52.8975 64.3028L52.9254 64.3301L56.1278 61.0724ZM60.5057 67.5916L56.2905 69.3524L56.304 69.3848L56.318 69.417L60.5057 67.5916ZM60.5057 83.4851L56.318 81.6597L56.3082 81.6824L56.2985 81.7051L60.5057 83.4851ZM49.6087 94.3821L47.8028 90.186L47.793 90.1902L47.7833 90.1945L49.6087 94.3821ZM11.3501 96H6.78196V100.568H11.3501V96ZM11.3501 82.343V77.7749H6.78196V82.343H11.3501ZM46.468 70.7322L43.1561 73.8786L43.2368 73.9635L43.3217 74.0442L46.468 70.7322ZM13.5391 62.7379L10.2814 65.9404L10.3088 65.9682L10.3366 65.9956L13.5391 62.7379ZM9.16122 56.2188L4.96515 58.0247L4.96935 58.0344L4.97359 58.0441L9.16122 56.2188ZM12.1115 48.2244C12.1115 45.9997 12.5328 43.9753 13.3489 42.1031L4.97359 38.4523C3.63247 41.529 2.97514 44.8024 2.97514 48.2244H12.1115ZM13.3489 42.1031C14.2077 40.1328 15.3486 38.4569 16.7693 37.0363L10.3089 30.5759C8.04959 32.8352 6.27194 35.4737 4.97359 38.4523L13.3489 42.1031ZM16.7693 37.0363C18.2286 35.5769 19.9227 34.4231 21.8836 33.5683L18.2329 25.193C15.245 26.4955 12.5929 28.2919 10.3089 30.5759L16.7693 37.0363ZM21.8836 33.5683C23.7558 32.7522 25.7803 32.331 28.005 32.331V23.1946C24.5829 23.1946 21.3095 23.8519 18.2329 25.193L21.8836 33.5683ZM28.005 32.331H59.3161V23.1946H28.005V32.331ZM54.7479 27.7628V41.4197H63.8842V27.7628H54.7479ZM59.3161 36.8516H28.005V45.9879H59.3161V36.8516ZM28.005 36.8516C26.4806 36.8516 24.983 37.1341 23.5603 37.736L27.1201 46.1503C27.3471 46.0543 27.6259 45.9879 28.005 45.9879V36.8516ZM23.5603 37.736C22.1926 38.3147 20.9707 39.1385 19.9211 40.1881L26.3815 46.6485C26.6007 46.4292 26.8382 46.2696 27.1201 46.1503L23.5603 37.736ZM19.9211 40.1881C18.8815 41.2278 18.083 42.441 17.5166 43.7797L25.9309 47.3396C26.0624 47.0287 26.2156 46.8144 26.3815 46.6485L19.9211 40.1881ZM17.5166 43.7797C16.9147 45.2024 16.6321 46.7001 16.6321 48.2244H25.7685C25.7685 47.8454 25.8349 47.5665 25.9309 47.3396L17.5166 43.7797ZM16.6321 48.2244C16.6321 49.7496 16.9147 51.2406 17.4932 52.6604L25.9543 49.2132C25.8348 48.9199 25.7685 48.6027 25.7685 48.2244H16.6321ZM17.5166 52.7167C18.0743 54.0351 18.8496 55.2302 19.8394 56.272L26.4632 49.9794C26.2474 49.7523 26.071 49.4881 25.9309 49.1568L17.5166 52.7167ZM20.0049 56.4376C21.0468 57.4274 22.2419 58.2027 23.5603 58.7604L27.1201 50.3461C26.7888 50.206 26.5247 50.0295 26.2976 49.8138L20.0049 56.4376ZM23.5603 58.7604C24.983 59.3623 26.4806 59.6449 28.005 59.6449V50.5085C27.6259 50.5085 27.3471 50.4421 27.1201 50.3461L23.5603 58.7604ZM28.005 59.6449H41.6619V50.5085H28.005V59.6449ZM41.6619 59.6449C43.8866 59.6449 45.9111 60.0662 47.7833 60.8822L51.434 52.507C48.3574 51.1659 45.084 50.5085 41.6619 50.5085V59.6449ZM47.8479 60.9098C49.8126 61.7305 51.4717 62.8523 52.8702 64.2749L59.3855 57.87C57.1041 55.5492 54.4171 53.7525 51.3694 52.4794L47.8479 60.9098ZM52.9254 64.3301C54.348 65.7286 55.4698 67.3877 56.2905 69.3524L64.7209 65.8308C63.4478 62.7832 61.6511 60.0962 59.3303 57.8148L52.9254 64.3301ZM56.318 69.417C57.1341 71.2892 57.5554 73.3136 57.5554 75.5384H66.6918C66.6918 72.1163 66.0344 68.8429 64.6933 65.7662L56.318 69.417ZM57.5554 75.5384C57.5554 77.7631 57.1341 79.7875 56.318 81.6597L64.6933 85.3105C66.0344 82.2338 66.6918 78.9604 66.6918 75.5384H57.5554ZM56.2985 81.7051C55.4774 83.6461 54.347 85.3247 52.8976 86.7741L59.358 93.2345C61.6521 90.9404 63.4403 88.2729 64.7128 85.265L56.2985 81.7051ZM52.8976 86.7741C51.4867 88.1851 49.8034 89.325 47.8028 90.186L51.4146 98.5782C54.4262 97.282 57.0891 95.5034 59.358 93.2345L52.8976 86.7741ZM47.7833 90.1945C45.9111 91.0106 43.8866 91.4318 41.6619 91.4318V100.568C45.084 100.568 48.3574 99.9109 51.434 98.5697L47.7833 90.1945ZM41.6619 91.4318H11.3501V100.568H41.6619V91.4318ZM15.9183 96V82.343H6.78196V96H15.9183ZM11.3501 86.9112H41.6619V77.7749H11.3501V86.9112ZM41.6619 86.9112C43.1863 86.9112 44.6839 86.6287 46.1067 86.0267L42.5468 77.6125C42.3198 77.7085 42.041 77.7749 41.6619 77.7749V86.9112ZM46.1067 86.0267C47.4454 85.4604 48.6586 84.6619 49.6982 83.6222L43.2378 77.1619C43.072 77.3277 42.8576 77.4809 42.5468 77.6125L46.1067 86.0267ZM49.6982 83.6222C50.7479 82.5726 51.5717 81.3507 52.1503 79.9831L43.736 76.4232C43.6167 76.7051 43.4571 76.9426 43.2378 77.1619L49.6982 83.6222ZM52.1503 79.9831C52.7522 78.5604 53.0348 77.0627 53.0348 75.5384H43.8984C43.8984 75.9174 43.832 76.1963 43.736 76.4232L52.1503 79.9831ZM53.0348 75.5384C53.0348 74.014 52.7522 72.5163 52.1503 71.0936L43.736 74.6535C43.832 74.8804 43.8984 75.1593 43.8984 75.5384H53.0348ZM52.1503 71.0936C51.5626 69.7046 50.7147 68.4657 49.6144 67.4203L43.3217 74.0442C43.4903 74.2043 43.6258 74.393 43.736 74.6535L52.1503 71.0936ZM49.78 67.5859C48.7346 66.4855 47.4957 65.6376 46.1067 65.05L42.5468 73.4642C42.8073 73.5745 42.996 73.71 43.1561 73.8786L49.78 67.5859ZM46.1067 65.05C44.6839 64.448 43.1863 64.1655 41.6619 64.1655V73.3018C42.041 73.3018 42.3198 73.3682 42.5468 73.4642L46.1067 65.05ZM41.6619 64.1655H28.005V73.3018H41.6619V64.1655ZM28.005 64.1655C25.7803 64.1655 23.7558 63.7442 21.8836 62.9281L18.2329 71.3034C21.3095 72.6445 24.5829 73.3018 28.005 73.3018V64.1655ZM21.8836 62.9281C19.9064 62.0663 18.2035 60.9175 16.7415 59.4802L10.3366 65.9956C12.618 68.2383 15.2612 70.0081 18.2329 71.3034L21.8836 62.9281ZM16.7967 59.5355C15.3595 58.0735 14.2107 56.3706 13.3489 54.3934L4.97359 58.0441C6.26891 61.0158 8.03867 63.659 10.2814 65.9404L16.7967 59.5355ZM13.3573 54.4128C12.5328 52.4971 12.1115 50.4489 12.1115 48.2244H2.97514C2.97514 51.6467 3.63247 54.9281 4.96515 58.0247L13.3573 54.4128Z" fill="white" mask="url(#path-1-outside-1_8265_177)"/>
</g>
<path fill-rule="evenodd" clip-rule="evenodd" d="M22.2676 40.0775C23.7421 41.5155 23.7718 43.8765 22.3338 45.3509C21.3974 46.3112 20.7527 47.3513 20.3504 48.487C19.6627 50.4284 17.5314 51.4447 15.59 50.757C13.6487 50.0693 12.6324 47.938 13.3201 45.9967C14.0999 43.7952 15.341 41.8389 16.9942 40.1437C18.4322 38.6692 20.7931 38.6396 22.2676 40.0775Z" fill="white"/>
<path fill-rule="evenodd" clip-rule="evenodd" d="M54.395 92.3732C53.6593 91.4405 53.747 90.0712 54.5909 89.3148C55.1404 88.8223 55.5355 88.2637 55.8033 87.6332C56.2612 86.5556 57.4606 86.1116 58.4822 86.6415C59.5038 87.1714 59.9608 88.4746 59.5029 89.5522C58.9836 90.7743 58.2252 91.823 57.255 92.6926C56.4111 93.4489 55.1307 93.306 54.395 92.3732Z" fill="white" fill-opacity="0.76"/>
<defs>
<filter id="filter0_di_8265_177" x="0.143335" y="21.3628" width="83.3803" height="97.0372" filterUnits="userSpaceOnUse" color-interpolation-filters="sRGB">
<feFlood flood-opacity="0" result="BackgroundImageFix"/>
<feColorMatrix in="SourceAlpha" type="matrix" values="0 0 0 0 0 0 0 0 0 0 0 0 0 0 0 0 0 0 127 0" result="hardAlpha"/>
<feOffset dx="7" dy="8"/>
<feGaussianBlur stdDeviation="7.2"/>
<feComposite in2="hardAlpha" operator="out"/>
<feColorMatrix type="matrix" values="0 0 0 0 0 0 0 0 0 0 0 0 0 0 0 0 0 0 0.25 0"/>
<feBlend mode="normal" in2="BackgroundImageFix" result="effect1_dropShadow_8265_177"/>
<feBlend mode="normal" in="SourceGraphic" in2="effect1_dropShadow_8265_177" result="shape"/>
<feColorMatrix in="SourceAlpha" type="matrix" values="0 0 0 0 0 0 0 0 0 0 0 0 0 0 0 0 0 0 127 0" result="hardAlpha"/>
<feOffset dx="3" dy="4"/>
<feGaussianBlur stdDeviation="5.8"/>
<feComposite in2="hardAlpha" operator="arithmetic" k2="-1" k3="1"/>
<feColorMatrix type="matrix" values="0 0 0 0 0.167349 0 0 0 0 0.272858 0 0 0 0 0.0665298 0 0 0 1 0"/>
<feBlend mode="normal" in2="shape" result="effect2_innerShadow_8265_177"/>
</filter>
</defs>
</svg>
